<svg width="33" height="32" viewBox="0 0 33 32" fill="none" style="background-color:white"
    xmlns="http://www.w3.org/2000/svg">
    <path
        d="M8.61505 17.5971L9.46168 11.2345L2.11816 6.13537L8.82784 8.40869L10.4124 5.97687L16.1985 2.38574L28.9523 9.41402L29.6134 20.1376L23.9314 28.0353L19.4402 28.7237L21.7628 24.4714V20.3776L20.074 17.1804L18.3581 16.0438L15.7186 18.7654V21.6456L13.6586 23.5747L11.0418 23.8917L9.88274 24.5484L7.98121 23.9415L7.18891 21.0886L8.61505 19.0824V17.5971Z"
        fill="white" />
    <path
        d="M17.412 5.86815C17.412 5.86815 18.9423 5.79117 20.3412 6.08099C17.9974 10.0538 14.1094 8.89613 13.8125 8.80775C13.8014 8.80445 13.7954 8.80264 13.7946 8.80264C16.9094 8.19129 17.412 5.86815 17.412 5.86815Z"
        fill="#94A6C3" />
    <path
        d="M25.1495 21.958C24.5654 24.0185 23.2978 25.839 21.609 27.1613C25.5705 24.9152 27.9203 21.0342 27.2095 16.8906C26.2587 11.5017 20.7669 8.75285 20.45 8.62152C21.5592 12.267 19.1008 14.3003 17.4392 14.3275C16.5156 14.3275 15.2751 14.9343 15.2751 14.9343L14.0074 18.0499L13.4777 18.3397L14.1885 16.4649C14.1885 16.4649 12.0516 17.6016 11.8931 17.7057C11.7347 17.8099 11.1778 18.9194 10.7567 20.0832C10.5362 19.3917 10.0573 18.9545 9.97538 18.8797C9.96986 18.8747 9.96615 18.8713 9.96443 18.8696C9.96708 18.8824 9.97475 18.9147 9.98627 18.9633C10.093 19.4133 10.5304 21.2571 10.3629 21.8539C10.1772 22.5422 9.01367 23.149 9.01367 23.149L10.9152 23.5702L11.0465 23.5974L12.2055 22.1437L12.4409 20.1874L12.9978 19.6575C12.9978 19.6575 14.5326 19.2636 14.5009 20.6946C14.5009 21.1364 14.1815 21.3154 13.7491 21.5578C13.5122 21.6906 13.2414 21.8424 12.9707 22.0667C12.5224 22.4381 11.9384 22.9905 11.6486 23.3619L12.6266 23.8917C12.6266 23.8917 13.686 23.5747 15.0306 22.1482C16.407 20.6946 15.4291 19.4538 15.4291 19.4538L17.5162 16.0709L19.4177 15.8083L22.7726 19.0553L22.8767 22.9634C22.5058 23.7431 21.929 25.0089 21.4716 26.0126C21.2144 26.5771 20.9949 27.0587 20.871 27.3243C22.7997 26.0564 24.253 24.1 24.8869 21.8539C24.9367 21.641 25.1766 21.5097 25.4392 21.3784C25.4711 21.3605 25.5044 21.3425 25.5379 21.3244C25.6996 21.237 25.865 21.1477 25.8875 21.0614C25.9916 20.4546 26.0459 19.8477 26.0459 19.2409C26.0459 19.1368 25.8331 18.8968 25.6475 18.7383C25.4347 18.5254 25.2264 18.3171 25.1993 18.1043C24.9593 15.7811 23.8501 13.5893 22.1342 11.9772L22.3198 11.7915C24.0901 13.4263 25.1993 15.6724 25.4619 18.0771C25.4619 18.2084 25.6475 18.3941 25.8331 18.5526C26.0686 18.7881 26.3085 19.0281 26.3085 19.2636C26.3085 19.8976 26.2542 20.5316 26.15 21.1384C26.1065 21.3247 25.8963 21.4485 25.6685 21.5828C25.6361 21.602 25.6033 21.6213 25.5705 21.641C25.5404 21.6608 25.5075 21.6818 25.4738 21.7032C25.3301 21.7947 25.1715 21.8957 25.1495 21.958Z"
        fill="#94A6C3" />
    <path
        d="M25.068 4.15183C25.068 4.15183 26.39 4.20617 27.7618 4.36467C24.6696 1.93285 21.7403 1.22187 19.3634 1.22187C16.0901 1.22187 13.8716 2.57137 13.7358 2.64835L14.768 1.00903C14.768 1.00903 10.6481 0.610516 9.19475 4.97149C8.8235 4.04767 8.48394 2.69817 8.48394 2.69817C8.48394 2.69817 6.34246 4.57751 7.34755 7.69314C4.88915 6.79649 1.38037 5.55114 1.24455 5.5285C1.05892 5.50133 1.0046 5.58284 1.0046 5.58284C1.0046 5.58284 0.950266 5.65983 1.10873 5.79568C1.40301 6.02664 6.94913 10.125 8.16702 10.9174C7.90443 11.8684 7.90443 12.3168 8.16702 12.7651C8.53827 13.3719 8.5609 13.6889 8.5111 14.1372C8.45677 14.5856 7.98139 18.471 7.87726 18.9465C7.77313 19.422 6.6639 21.1112 6.71371 21.6138C6.76804 22.1165 7.45168 24.254 8.06289 24.494C8.5111 24.6525 9.62033 24.9967 10.3583 24.9967C10.6209 24.9967 10.8608 24.9423 10.965 24.8382C11.4132 24.4442 11.5445 24.3627 11.8614 24.3627C11.8886 24.3627 11.9157 24.3627 11.9384 24.3627C12.0697 24.3627 12.2281 24.3898 12.4138 24.3898C12.8348 24.3898 13.3917 24.3083 13.7856 23.9415C14.3651 23.3619 15.3702 22.5694 15.6871 22.198C16.0855 21.6954 16.2938 21.0115 16.1897 20.3232C16.1082 19.6892 16.4522 19.1322 16.8507 18.5797C17.3532 17.9186 18.2768 16.7321 18.2768 16.7321C20.1014 18.0997 21.2378 20.1874 21.2378 22.5105C21.2378 26.6314 17.6475 29.9599 13.2106 29.9599C12.5224 29.9599 11.8659 29.8829 11.2049 29.7244C13.2378 30.4354 14.9537 30.6754 16.3572 30.6754C19.3408 30.6754 20.9254 29.5931 20.9254 29.5931C20.9254 29.5931 20.373 30.3086 19.4721 31.1238C19.4992 31.1238 19.4992 31.1238 19.4992 31.1238C24.4387 30.4354 26.8427 26.3688 26.8427 26.3688C26.8427 26.3688 26.6571 27.6911 26.4217 28.5878C32.991 23.6471 31.8818 17.4657 31.8546 17.2574C31.909 17.3344 32.57 18.1269 32.9095 18.5526C33.9689 7.66597 25.068 4.15183 25.068 4.15183ZM14.9537 21.5369C14.8495 21.6682 14.4013 22.0667 14.0844 22.3565C13.7675 22.6463 13.4234 22.9362 13.1608 23.2034C13.0567 23.3075 12.8439 23.3618 12.5269 23.3618C12.4228 23.3618 12.3142 23.3618 12.2372 23.3618C12.1829 23.3618 12.1331 23.3618 12.0787 23.3618C12.0244 23.3618 11.9972 23.3618 11.9746 23.3618C11.8931 23.3618 11.8161 23.3618 11.7346 23.3618C12.1331 22.832 13.2921 21.6184 13.6905 21.3557C14.1659 21.0387 14.4058 20.7217 14.1116 20.1692C13.8218 19.6122 13.0567 19.7481 13.0567 19.7481C13.0567 19.7481 13.5049 19.5624 13.9033 19.5624C13.4007 19.4311 12.7669 19.5624 12.4771 19.8522C12.1602 20.1421 12.2146 21.1746 12.0833 21.8312C11.952 22.5195 11.5037 22.8637 10.8156 23.4977C10.4443 23.8419 10.1817 23.946 9.96894 23.946C9.52072 23.869 8.99101 23.7332 8.61976 23.6019C8.35717 23.2577 7.95875 22.121 7.85462 21.6455C7.93159 21.3829 8.24851 20.8259 8.40697 20.5089C8.72389 19.9021 8.90952 19.5579 8.96385 19.2409C9.06798 18.7926 9.41207 16.0166 9.54336 14.8573C9.88745 15.3056 10.3628 16.0483 10.2542 16.5238C11.0193 15.4415 10.467 14.3818 10.1998 13.9606C9.96441 13.5395 9.64749 12.6926 9.91008 11.796C10.1727 10.8993 11.1234 8.41317 11.1234 8.41317C11.1234 8.41317 11.4404 8.97018 11.8886 8.8615C12.3368 8.75734 15.9542 3.31405 15.9542 3.31405C15.9542 3.31405 16.9322 5.45151 15.8999 7.01386C14.845 8.57167 13.8127 8.8615 13.8127 8.8615C13.8127 8.8615 15.2661 9.12415 16.6107 8.14599C17.1631 9.44115 17.6928 10.7861 17.7199 10.9718C17.6384 11.1575 16.5835 13.6934 16.4794 13.8519C16.4251 13.9063 16.0584 14.0104 15.7912 14.0648C15.343 14.1961 15.0804 14.2776 14.9718 14.3546C14.7861 14.5131 13.9395 16.8362 13.5456 17.9729C13.0702 18.1042 12.5949 18.3714 12.2508 18.8967C12.4364 18.7654 13.0159 18.6839 13.4415 18.6341C13.8127 18.6069 14.9446 19.2137 15.2389 20.3504C15.2389 20.3775 15.2389 20.3775 15.2389 20.4047C15.2977 20.8213 15.1665 21.2199 14.9537 21.5369ZM12.4726 21.8538C12.7126 21.5097 12.6854 20.93 12.7126 20.7444C12.7397 20.5587 12.7895 20.2145 13.0023 20.1647C13.2151 20.1104 13.7177 20.1919 13.7177 20.5587C13.7177 20.9029 13.3464 20.9798 13.0838 21.2199C12.8937 21.401 12.5224 21.7995 12.4726 21.8538ZM23.008 16.8045C23.2706 15.4596 23.2977 14.2957 23.2208 13.3447C24.2485 14.7169 24.8824 16.3834 25.068 18.0997C25.0951 18.3125 25.3034 18.5209 25.5162 18.7337C25.7018 18.8922 25.9146 19.105 25.9146 19.2364C25.9146 19.8432 25.8603 20.45 25.7562 21.0614C25.729 21.1383 25.4936 21.2742 25.3079 21.3784C25.0453 21.5097 24.8054 21.641 24.7556 21.8538C24.1761 23.8872 22.931 25.685 21.2695 26.953C23.7233 24.3898 24.9095 20.1602 23.008 16.8045ZM21.3464 27.1885C23.0623 25.8661 24.3843 24.0185 24.9638 21.9308C24.991 21.8538 25.2264 21.718 25.3849 21.6138C25.6475 21.4825 25.9146 21.324 25.9644 21.1112C26.0685 20.5043 26.1229 19.8704 26.1229 19.2364C26.1229 19.0009 25.8829 18.7609 25.6475 18.5254C25.5162 18.3669 25.3034 18.1812 25.3034 18.0499C25.0906 16.1207 24.3255 14.3003 23.1393 12.7923C22.6096 9.62229 20.4998 8.64413 20.4455 8.61696C20.4998 8.69847 21.8716 10.6774 20.9208 13.0006C19.9429 15.3509 17.4347 14.9841 17.2219 15.0067C17.0091 15.0067 16.1942 16.0619 15.1619 18.0182C15.0306 17.9638 14.4738 17.8325 13.8399 17.9412C14.3153 16.6189 15.0306 14.7441 15.1619 14.5856C15.2163 14.5312 15.6101 14.4271 15.8773 14.3501C16.3798 14.2187 16.6152 14.1372 16.6967 14.0331C16.7511 13.9516 17.0137 13.3447 17.2762 12.7107C17.5162 12.7107 18.1229 12.6564 18.1727 12.6292C18.227 12.5749 18.7296 11.2843 18.7296 11.1258C18.7296 10.9944 17.6973 8.43129 17.3034 7.45312C17.489 7.24028 17.6747 6.97763 17.8558 6.6878C23.2706 7.27198 27.4992 11.8684 27.4992 17.4385C27.4992 21.718 24.991 25.445 21.3464 27.1885Z"
        fill="#1B314F" />
    <path
        d="M15.696 4.88989C15.696 4.88989 15.9314 5.94504 15.3247 6.66055C14.5551 7.53455 13.8986 7.50738 13.9257 7.50738L15.696 4.88989Z"
        fill="#1B314F" />
    <path
        d="M14.3196 12.9235C14.8221 12.3439 14.5595 11.2615 13.6314 11.0759C13.8713 10.5234 14.2109 9.41389 14.2109 9.41389C14.2109 9.41389 11.5171 13.639 11.2816 13.7205C11.0417 13.802 10.8063 12.8737 10.8063 12.8737C10.3037 14.8028 11.6529 15.0655 11.8113 14.4587C12.5493 14.2685 13.817 13.476 14.3196 12.9235Z"
        fill="#1B314F" />
    <path
        d="M9.38012 20.9526L9.59292 19.8975C9.59292 19.8975 8.71912 21.4281 8.64215 21.641C8.56066 21.881 8.69648 22.3021 9.03604 22.275C9.38012 22.2478 9.80118 21.7451 9.80118 21.3783C9.80118 20.9028 9.38012 20.9526 9.38012 20.9526Z"
        fill="#1B314F" />
    <path
        d="M12.0198 13.9516L13.3916 11.6013C13.3916 11.6013 14.1839 11.9998 13.7855 12.6338C13.2875 13.372 12.0198 13.9516 12.0198 13.9516Z"
        fill="#FFD923" />
    <path
        d="M9.3034 9.35526C9.46187 9.48659 9.62033 9.7266 9.4347 10.0708C9.33057 10.2564 9.17211 10.2293 8.93215 10.1251C8.61523 9.96661 6.71371 8.85712 4.9978 7.72046C6.95366 8.4088 8.93215 9.14695 9.24908 9.30544C9.24908 9.30544 9.27624 9.33262 9.3034 9.35526Z"
        fill="white" />
    <path
        d="M11.309 6.7648C11.309 6.7648 10.8336 3.35935 13.2105 1.93286C13.2016 1.93679 13.1838 1.94353 13.1583 1.9532C12.655 2.14421 9.14574 3.47603 11.309 6.7648Z"
        fill="#D82122" />
    <path
        d="M16.4295 3.6492C18.254 2.96086 20.7894 2.59405 24.7237 3.3322C22.9807 2.46272 21.1607 2.0144 19.3406 1.98723C18.6524 1.98723 18.0186 2.04157 17.4391 2.14573C15.3791 2.51707 13.6858 3.99337 13.1063 5.97686C13.1063 5.97686 13.5274 5.3157 14.5325 4.62736C14.8992 4.1247 15.4832 3.3322 16.0311 2.67104C16.1895 3.01521 16.3751 3.43636 16.4295 3.6492Z"
        fill="#D82122" />
    <path
        d="M32.1715 16.4106C30.9808 13.2135 29.292 10.4918 25.5705 8.03734C21.9802 5.65986 18.1228 5.84553 17.91 5.8727H17.8557C17.987 5.81836 18.1183 5.79119 18.2496 5.76855C19.0691 5.50589 20.124 5.29305 21.1834 5.16172C23.9859 4.75868 26.811 5.70968 28.7397 7.74751L28.794 7.80186C30.9853 10.125 32.1217 13.0278 32.1715 16.4106Z"
        fill="#D82122" />
    <path
        d="M29.0023 24.8382C28.6039 25.368 28.1557 25.9205 27.6305 26.4504C31.0351 19.8976 27.789 13.9018 27.6577 13.6663C27.8807 13.8894 28.0998 14.132 28.3004 14.3542L28.3458 14.4045C30.9582 17.3073 31.2751 21.6682 29.0023 24.8382Z"
        fill="#D82122" />
    <path
        d="M10.1726 8.40414C7.14885 8.30214 8.07181 4.85179 8.16237 4.51326L8.16695 4.49602C8.16695 4.52319 8.37521 7.32182 10.1726 8.40414Z"
        fill="#D82122" />
</svg>