<svg width="36" height="36" viewBox="-2 -2 36 36" style="background-color:white" fill="none"
    xmlns="http://www.w3.org/2000/svg">
    <path fill-rule="evenodd" clip-rule="evenodd"
        d="M16.785 2.28277C17.1562 1.57577 16.3049 0.719808 15.6074 1.08876C15.04 1.31811 14.896 2.15134 15.3371 2.57302C15.7539 3.01223 16.5699 2.85899 16.785 2.28277ZM9.02244 2.59445C9.06571 2.12589 8.52939 1.732 8.10571 1.90901C7.51588 2.06836 7.45047 3.01094 8.02263 3.23574C8.45451 3.47755 9.06737 3.10301 9.02244 2.59445ZM23.47 3.25002C22.8078 3.16885 22.7031 2.11277 23.3406 1.8994C23.835 1.65473 24.2885 2.11355 24.3609 2.58899C24.2572 2.99496 23.9221 3.36742 23.47 3.25002ZM11.4224 6.20503C11.5314 5.37024 10.5207 4.69337 9.81233 5.14791C9.14904 5.49167 9.05816 6.51879 9.65976 6.96632C10.2822 7.53618 11.3857 7.04787 11.4224 6.20503ZM20.6253 5.6305C20.9416 4.80506 22.2221 4.77908 22.5818 5.58426C22.9372 6.21023 22.5 6.98541 21.8666 7.19813C21.0276 7.35709 20.2303 6.4362 20.6253 5.6305ZM16 5.86322C15.3347 5.91153 14.6971 6.44074 14.704 7.15099C14.666 7.73137 15.0748 8.20552 15.5601 8.4472C15.6083 8.45018 15.6572 8.45413 15.7064 8.45812C15.981 8.48034 16.2665 8.50344 16.5137 8.36292C17.1511 8.07682 17.4643 7.21891 17.1116 6.59554C16.9222 6.14373 16.4412 5.95296 16 5.86322ZM3.548 8.18578C4.19504 7.78215 5.068 8.51876 4.82301 9.23186C4.6881 9.84873 3.87081 10.0996 3.40361 9.70588C2.90441 9.33692 2.9839 8.44967 3.548 8.18578ZM28.8935 8.9507C28.9589 8.24811 28.053 7.75202 27.504 8.18448C26.9407 8.53551 27.0019 9.47173 27.6021 9.74536C28.1471 10.0755 28.9303 9.59198 28.8935 8.9507ZM17.8413 9.46056C18.7471 9.13043 19.8232 9.52549 20.3396 10.345C21.0207 11.3468 20.6583 12.8723 19.6013 13.4471C18.5061 14.127 16.9069 13.551 16.5024 12.3099C16.0431 11.199 16.7122 9.80873 17.8413 9.46056ZM15.3663 10.5351C14.8813 9.49263 13.5301 9.09004 12.5261 9.57055C11.456 10.0555 10.9637 11.4857 11.5186 12.5387C12.0125 13.6281 13.4538 14.074 14.4754 13.4853C15.4957 12.9617 15.937 11.5493 15.3663 10.5351ZM7.20394 11.4166C7.28074 10.7603 7.89054 10.3333 8.50622 10.289C9.16964 10.3702 9.69956 10.8929 9.77163 11.5747C9.72811 12.2489 9.21444 12.9082 8.51019 12.904C7.73527 12.9717 7.05597 12.1892 7.20394 11.4166ZM24.7885 11.5736C24.8238 10.6464 23.7192 9.96237 22.9237 10.4322C22.0695 10.8409 22.0054 12.1923 22.8283 12.6722C23.6205 13.2489 24.843 12.5561 24.7885 11.5736ZM10.363 13.8944C11.2934 13.6346 12.3572 14.0796 12.8136 14.9472C13.3128 15.8206 13.1091 17.0338 12.3328 17.6744C11.3371 18.614 9.50078 18.2368 8.97086 16.9544C8.36196 15.779 9.10155 14.2038 10.363 13.8944ZM22.8977 14.8167C22.4114 13.9803 21.3489 13.627 20.4444 13.8894C19.1736 14.2425 18.5006 15.8785 19.1694 17.0361C19.7211 18.1552 21.274 18.531 22.2766 17.8153C23.2337 17.199 23.5406 15.7729 22.8977 14.8167ZM4.37872 14.9803C5.18243 14.6719 6.07332 15.5717 5.74768 16.3802C5.5489 17.1165 4.52592 17.3892 3.99741 16.8459C3.37904 16.336 3.6079 15.2015 4.37872 14.9803ZM27.3101 14.8419C26.6272 14.8795 26.1401 15.4782 26.1632 16.1536C26.2966 16.4687 26.4587 16.7972 26.7747 16.9602C27.449 17.3374 28.4026 16.7917 28.3522 15.9887C28.3957 15.3808 27.8605 14.9303 27.3101 14.8419ZM0.42722 15.3763C0.910677 15.1621 1.50882 15.5873 1.39849 16.1321C1.37289 16.749 0.474964 16.9861 0.145235 16.4707C-0.146222 16.1134 0.0281147 15.5615 0.42722 15.3763ZM31.9358 15.6977C31.801 15.2941 31.2547 15.1173 30.9142 15.3633C30.3473 15.6699 30.5696 16.7313 31.2561 16.6678C31.7451 16.7424 32.1646 16.1385 31.9358 15.6977ZM12.9894 18.3243C14.2618 17.9886 15.6294 19.0645 15.6375 20.3943C15.7206 21.7373 14.3735 22.9285 13.0711 22.6182C12.0644 22.4538 11.2745 21.4699 11.3071 20.4378C11.3044 19.4508 12.0385 18.5331 12.9894 18.3243ZM20.7076 20.411C20.7281 19.051 19.3197 17.9553 18.0283 18.3216C17.2626 18.5147 16.6143 19.1549 16.4452 19.9422C16.1102 21.1237 16.9956 22.4614 18.1956 22.6188C19.4707 22.8803 20.7758 21.7293 20.7076 20.411ZM8.31307 19.1397C9.20664 18.9851 10.0444 19.9969 9.68203 20.8574C9.41771 21.7747 8.10186 22.0236 7.5201 21.2742C6.83773 20.5546 7.34717 19.2391 8.31307 19.1397ZM24.8034 20.4196C24.8647 19.5421 23.8866 18.8429 23.0898 19.1814C22.1267 19.4921 21.9655 20.9813 22.8487 21.4877C23.6278 22.0515 24.8354 21.3855 24.8034 20.4196ZM27.2201 23.3846C26.9082 22.7945 27.4748 22.0124 28.1206 22.1216C28.4249 22.1165 28.6427 22.3464 28.8395 22.5543L28.8726 22.5891L28.88 22.6493C28.9218 22.9857 28.9695 23.3707 28.6997 23.6255C28.3112 24.1243 27.4312 23.9815 27.2201 23.3846ZM4.88189 23.2023C5.01757 22.4863 4.14909 21.8784 3.54556 22.286C2.97071 22.5833 2.95023 23.5125 3.50588 23.8386C4.02429 24.1972 4.8097 23.8354 4.88189 23.2023ZM15.4688 23.612C16.2589 23.2582 17.2654 23.9561 17.1905 24.8391C17.2492 25.8147 16.0041 26.4904 15.2321 25.904C14.3745 25.4009 14.5166 23.9213 15.4688 23.612ZM11.4603 25.9444C11.5217 25.1796 10.6185 24.5592 9.94558 24.9185C9.47147 25.0982 9.27819 25.6295 9.26987 26.106C9.43192 26.5431 9.76152 27.0028 10.267 27.0139C10.8773 27.1066 11.4808 26.5718 11.4603 25.9444ZM21.1319 24.9301C21.8239 24.4963 22.8074 25.1195 22.742 25.9366C22.7598 26.7906 21.6483 27.3378 21.0039 26.7767C20.38 26.337 20.4562 25.2799 21.1319 24.9301ZM23.6319 28.6598C23.132 28.7675 22.7703 29.3368 23.0775 29.8094C23.3934 30.3582 24.3157 30.1619 24.3743 29.5221C24.4588 29.0494 24.0338 28.7428 23.6319 28.6598ZM7.63569 29.399C7.75831 29.0245 8.05527 28.6523 8.48983 28.7497C9.12331 28.7953 9.31134 29.764 8.75684 30.0625C8.25828 30.4036 7.67985 29.9365 7.63569 29.399ZM16.3794 29.2995C15.9135 29.0053 15.2067 29.2747 15.0853 29.8288C14.8637 30.3885 15.3958 31.0651 15.9858 30.995C16.3039 31.0033 16.5484 30.7738 16.7391 30.5445C16.7762 30.3898 16.814 30.2349 16.8562 30.0802L16.854 30.0719C16.7754 29.7767 16.6837 29.4324 16.3794 29.2995Z"
        fill="#1D6AD7" />
</svg>