<svg width="32" height="32" viewBox="0 0 32 32" fill="none" xmlns="http://www.w3.org/2000/svg">
<path d="M32 16C32 7.16344 24.8366 0 16 0C7.16344 0 0 7.16344 0 16C0 24.8366 7.16344 32 16 32C24.8366 32 32 24.8366 32 16Z" fill="url(#paint0_radial_686_4155)"/>
<path d="M26.6429 11.807C26.7348 11.5872 26.8132 11.3973 26.8802 11.0056C26.9814 10.4056 27.0544 9.97247 26.8541 9.56465C26.7894 9.43228 26.7466 9.39483 26.5289 9.21581L26.5217 9.21C26.3667 9.08274 26.1549 8.90883 25.8334 8.60975C25.2158 8.03568 24.9062 7.74792 24.7229 7.37901C24.4624 6.85617 23.4532 6.29318 22.9612 6.12441C21.8758 5.75278 20.8468 5.86865 19.6558 6.00353L19.5037 6.02055C19.366 6.03607 19.2266 6.05175 19.0855 6.06566C18.4947 6.12626 17.9002 6.47056 17.4212 6.74795L17.4156 6.75118C17.2324 6.85784 17.0643 6.9553 16.9135 7.02703C17.727 7.02871 18.5784 7.14728 19.2384 7.55155C20.3439 8.22892 20.5687 9.6184 20.6421 10.8878C20.6632 11.2517 20.6381 11.6767 20.6116 12.1261C20.5524 13.1316 20.4855 14.2714 21.0083 14.4195C21.4577 14.5474 22.7561 15.1177 24.2673 15.8894C24.3067 15.9095 24.4036 15.9046 24.4497 15.9016C24.9824 15.838 25.3817 15.3081 25.62 14.9914C25.9154 14.6001 26.038 14.2369 26.1114 14.0192C26.2015 13.7532 26.2206 13.6035 26.2488 13.3818L26.2489 13.3804L26.25 13.3723L26.2511 13.3637C26.2687 13.2249 26.289 13.0674 26.3295 12.8526C26.4314 12.3162 26.5439 12.0453 26.6429 11.807Z" fill="white"/>
<path d="M21.4215 16.4262C21.4715 16.3491 21.4389 16.2433 21.3519 16.2136C21.1251 16.1363 20.9123 16.0749 20.7436 16.0463C20.1064 15.9393 19.6087 16.3163 19.4453 16.4403C19.2909 16.5574 19.2864 16.5775 19.2745 16.6307C19.2467 16.7596 19.2021 16.9088 19.0014 17.1836C18.6237 17.7026 18.3685 17.8637 18.1824 17.9806L18.1807 17.9816C18.0485 18.0655 17.9676 18.1168 17.8641 18.2832C17.7794 18.4214 17.7815 18.5553 17.7978 18.873C17.8066 19.0325 17.8168 19.2304 17.8103 19.4742V19.5282C17.8096 19.7927 17.804 20.0063 17.7951 20.1798C17.7904 20.2729 17.8761 20.3472 17.9623 20.3118C17.9753 20.3064 17.9877 20.3011 18.0002 20.2957L18.0036 20.2942C18.0883 20.2572 18.1847 20.2152 18.4018 20.1815C19.6461 19.992 19.8255 19.9529 20.0008 19.8354C20.2131 19.6938 20.2311 19.5307 20.2511 19.1754C20.2698 18.8357 20.2936 18.4125 20.5864 17.9097C20.669 17.7671 20.7675 17.5843 20.8714 17.3906C21.0849 16.9948 21.2643 16.6686 21.4215 16.4262Z" fill="white"/>
<path d="M16.432 21.9607C16.4048 21.996 16.3733 22.0123 16.3275 22.0147C16.1974 22.0199 16.106 21.9879 16.0455 21.915C15.9171 21.7588 15.9345 21.4449 15.9644 21.2615L16.4906 21.1212C16.5318 21.3997 16.5512 21.8055 16.432 21.9607Z" fill="white"/>
<path d="M16.4565 20.3157C16.4561 20.2254 16.4657 20.139 16.4745 20.0623C16.4799 20.0209 16.4854 19.9686 16.4868 19.9335C16.3965 19.9198 16.2545 19.9498 16.1457 19.9732C16.0914 19.9857 16.0408 19.9966 15.9912 20.0037C15.9667 20.0519 15.9677 20.2132 15.9684 20.3148L15.9684 20.3197L15.9685 20.3626C15.9687 20.3912 15.9688 20.4202 15.9684 20.4492C15.9682 20.4723 15.9673 20.4962 15.9663 20.5203C15.9657 20.5371 15.9651 20.5541 15.9646 20.5711L15.9643 20.5791C15.9622 20.6325 15.9593 20.707 15.9619 20.7576C16.1464 20.7608 16.2867 20.7608 16.4511 20.701C16.4618 20.6451 16.4602 20.5289 16.459 20.4435L16.4586 20.4163C16.4578 20.3906 16.4573 20.3644 16.4569 20.3381L16.4565 20.3157Z" fill="white"/>
<path d="M15.501 21.7985C15.4755 22.0682 15.3922 22.4017 15.1392 22.4525C15.0254 22.4757 14.9704 22.4416 14.9357 22.4089C14.7648 22.2507 14.7376 21.7724 14.7615 21.4301C14.8753 21.4322 15.0244 21.4067 15.2011 21.3724C15.3088 21.3511 15.4161 21.3272 15.5014 21.3076C15.5112 21.4343 15.5183 21.615 15.501 21.7985Z" fill="white"/>
<path d="M14.8108 21.0307L15.3815 20.8305C15.3836 20.6042 15.3836 20.232 15.3684 20.0624L15.0076 20.082L14.9957 20.0804C14.9937 20.0804 14.992 20.0802 14.9903 20.08L14.9854 20.0797C14.9644 20.0797 14.9566 20.0866 14.9528 20.09C14.9416 20.0996 14.9018 20.1444 14.892 20.2901C14.8784 20.4974 14.8397 20.8092 14.8108 21.0307Z" fill="white"/>
<path d="M14.4592 20.653C14.427 20.7389 14.3889 20.9822 14.3651 21.1534L13.6501 21.1317C13.6904 20.9102 13.7463 20.685 13.8078 20.5053C13.8699 20.3269 13.9368 20.1931 13.9983 20.1555C14.07 20.1124 14.2279 20.1027 14.3247 20.1854C14.482 20.3194 14.5255 20.4729 14.4592 20.653Z" fill="white"/>
<path d="M13.9991 22.9638C14.0754 22.9557 14.1369 22.9172 14.1924 22.8414C14.4122 22.5421 14.4057 21.8366 14.3829 21.5632C14.231 21.572 13.9111 21.6295 13.6145 21.6971L13.6144 21.7033C13.6061 22.0322 13.5894 22.7039 13.8126 22.9098C13.8609 22.9551 13.9213 22.9725 13.9991 22.9638Z" fill="white"/>
<path d="M13.2592 21.1126L13.2457 21.1486C13.2157 21.2284 13.1873 21.3039 13.1651 21.3715C13.0819 21.3977 12.8278 21.3749 12.5682 21.3176L12.7466 20.1924C13.0398 20.1146 13.3799 20.0896 13.4621 20.1768C13.5704 20.2918 13.3529 20.8673 13.2592 21.1126Z" fill="white"/>
<path d="M12.2988 23.2612C12.5888 23.2642 12.7967 23.1843 12.9354 23.0134C13.1115 22.7947 13.1458 22.4542 13.1351 22.181C13.1313 22.0915 13.1232 22.0097 13.1134 21.942L12.1449 21.8839C11.987 22.2681 11.8293 22.8693 11.9903 23.1245C12.0263 23.1815 12.098 23.2577 12.2988 23.2612Z" fill="white"/>
<path d="M10.4708 13.8954L10.4748 13.8902C10.4689 13.8893 10.4628 13.8887 10.4571 13.8881L10.4554 13.8879L10.4407 13.8869C10.3786 13.8781 10.3215 13.8743 10.2709 13.8743C10.1431 13.8743 10.0538 13.8988 10.0223 13.9461C9.93568 14.0739 9.91119 14.2437 9.87481 14.5005L9.87304 14.5127C9.8489 14.6798 9.81907 14.8861 9.76333 15.1262C9.75247 15.173 9.74807 15.2019 9.74368 15.2389C9.72256 15.4087 9.6893 15.5566 9.41891 16.1802C9.31627 16.4164 9.33973 16.5219 9.37554 16.6828L9.37581 16.684C9.3823 16.7119 9.38837 16.7397 9.39381 16.7679C9.41597 16.8287 9.5749 16.9431 9.67885 16.9931C9.60377 16.4747 9.77128 16.0895 9.89969 15.7956C9.94047 15.7022 9.97582 15.621 9.99757 15.5503C10.0287 15.4446 10.0304 15.3539 10.0324 15.2408L10.0325 15.2358C10.0358 15.0156 10.04 14.7418 10.2577 14.2581C10.3375 14.0796 10.4047 13.9867 10.4634 13.9053L10.466 13.9017C10.4675 13.8996 10.4692 13.8975 10.4708 13.8954Z" fill="white"/>
<path d="M12.0987 8.89981C12.1612 8.74148 12.2193 8.59572 12.2679 8.47819C12.1602 8.49848 12.0573 8.5359 11.9728 8.59467C11.7839 8.7237 11.7279 8.87825 11.6093 9.24654L11.6076 9.25189C11.4977 9.59 11.3478 10.0514 10.9802 10.6705C10.9296 10.7558 10.8834 10.8326 10.8403 10.9033C10.6253 11.2569 10.5523 11.3853 10.5774 11.5029C10.6111 11.6606 10.9087 11.7858 11.0904 11.8059C11.0235 11.4496 11.0419 11.1218 11.1448 10.8286C11.2028 10.6632 11.2794 10.5439 11.3752 10.3947L11.3788 10.389L11.3854 10.3789C11.4696 10.2482 11.5743 10.0859 11.708 9.83231C11.7875 9.68174 11.9529 9.26641 12.0987 8.89981Z" fill="white"/>
<path fill-rule="evenodd" clip-rule="evenodd" d="M20.939 14.8469C20.0671 14.5999 20.1422 13.325 20.2147 12.0928C20.2404 11.6568 20.2647 11.2445 20.2448 10.9074C20.1779 9.75405 19.9841 8.498 19.0563 7.92938C18.0586 7.3192 16.4263 7.45828 15.4192 7.58644C15.4183 7.58654 15.4175 7.58713 15.4165 7.58722L15.4154 7.58742C15.0465 7.6992 14.7014 7.77169 14.4339 7.75747C13.8413 7.7268 13.3798 7.47791 12.9734 7.25875L12.9702 7.25701C12.6525 7.08489 12.3754 6.9362 12.1144 6.9362C12.1006 6.9362 12.0861 6.9362 12.0719 6.93684C11.2912 6.98745 10.9324 7.17816 10.6063 7.46908C10.5243 7.54164 10.4244 7.75181 10.0971 8.69501C9.93351 9.1669 9.90195 9.42722 9.8715 9.67835L9.87059 9.68587L9.87022 9.68898C9.84274 9.91951 9.8144 10.1572 9.69178 10.5109C9.60864 10.7486 9.54674 10.9546 9.48719 11.1528L9.48161 11.1714C9.32015 11.713 9.19258 12.1396 8.80924 12.647C8.76815 12.7018 8.71801 12.7802 8.66053 12.8701L8.64401 12.8959L8.6351 12.9099C8.54971 13.0444 8.44471 13.2098 8.30753 13.4001C8.20735 13.5389 7.9773 14.0586 7.98986 14.2169C8.00839 14.4652 8.08821 14.6207 8.18014 14.7998L8.18435 14.808L8.18569 14.8106C8.27865 14.99 8.38395 15.1933 8.40332 15.4734L8.40645 15.519C8.44074 15.9655 8.37695 16.1895 7.52767 16.9482C6.98467 17.4341 6.59889 17.9023 6.33871 18.2457C6.31574 18.276 6.34561 18.3211 6.38351 18.3181C6.39228 18.3168 6.40107 18.3162 6.40924 18.3162C6.42554 18.3149 6.44185 18.3143 6.45796 18.3143C6.47426 18.3143 6.49059 18.3149 6.50667 18.3155C6.523 18.3162 6.53867 18.3174 6.55478 18.3199C6.76017 18.3433 6.96038 18.4302 7.10492 18.5799C7.13004 18.6059 7.1691 18.613 7.20268 18.5996C7.34092 18.542 7.49295 18.5514 7.6381 18.565C7.81079 18.5811 7.9852 18.6315 8.10417 18.7386C8.14947 18.7794 8.21164 18.801 8.27135 18.7888C8.40654 18.7611 8.5474 18.7657 8.67832 18.8133C8.77541 18.8495 8.8587 18.9044 8.92692 18.9733C8.99122 19.0382 9.10007 19.0511 9.17948 19.0059C9.21122 18.9878 9.24542 18.9723 9.28251 18.9597C9.46696 18.8971 9.67087 18.9327 9.84989 18.9971L9.88866 19.0109C9.96479 19.0376 10.0421 19.0649 10.11 19.1102C10.2413 19.1976 10.3266 19.3214 10.3839 19.4609C10.4279 19.5679 10.5743 19.6045 10.6683 19.5369C10.7812 19.4556 10.8744 19.4452 10.9683 19.4869C11.0072 19.5044 11.0375 19.5267 11.0608 19.5535C11.1281 19.6311 11.2363 19.7085 11.3362 19.6848C11.6147 19.619 11.9519 19.6626 12.1993 19.7952C12.2906 19.8432 12.3805 19.9164 12.4461 20.0271L12.4545 19.978C12.4579 19.9557 12.4737 19.9373 12.4952 19.9306L12.5552 19.9121C12.6966 19.8671 13.4171 19.6594 13.6973 19.9545C13.7094 19.9666 13.7306 19.9678 13.7422 19.9552C13.7804 19.9134 13.8113 19.8904 13.8311 19.879C14.0137 19.7684 14.3266 19.7615 14.5349 19.9397C14.5768 19.9749 14.6447 19.9621 14.6763 19.9174C14.6958 19.8898 14.7178 19.8656 14.7425 19.8447C14.8157 19.7816 14.9084 19.7514 15.0109 19.7577L15.4067 19.7364C15.5063 19.7309 15.8156 19.7099 15.9131 19.6892C15.9205 19.6877 15.9281 19.6863 15.9359 19.6852C15.9709 19.6798 16.0116 19.6713 16.0545 19.6623L16.0772 19.6576C16.2692 19.6157 16.4869 19.5687 16.6657 19.6513C16.8376 19.7307 16.8159 19.9265 16.7952 20.099L16.7945 20.105C16.7865 20.1732 16.7783 20.2443 16.7789 20.3117C16.7801 20.3441 16.7808 20.3767 16.7814 20.41L16.7816 20.4209C16.784 20.5655 16.7863 20.6988 16.7576 20.8018L16.7576 20.803L16.7757 20.8847C16.7947 20.9651 16.8805 21.0104 16.9507 20.967C17.0844 20.8844 17.2221 20.7801 17.2661 20.7184C17.2701 20.7127 17.2732 20.7065 17.2756 20.6999C17.2818 20.6833 17.2925 20.649 17.3044 20.5796C17.3289 20.4326 17.3563 20.1337 17.3588 19.5268C17.3588 19.4948 17.3588 19.4718 17.3594 19.4612C17.3644 19.2359 17.3557 19.0552 17.3469 18.8957L17.3468 18.8937C17.3305 18.5656 17.3177 18.3073 17.4807 18.0443C17.639 17.7891 17.7926 17.6917 17.9403 17.5982L17.9423 17.5969C18.1148 17.4888 18.3095 17.3661 18.6372 16.9164C18.798 16.695 18.8179 16.6057 18.8336 16.5344C18.8692 16.3673 18.9244 16.2667 19.1726 16.0791L19.1736 16.0783C19.3767 15.9248 19.9909 15.4607 20.8189 15.6C21.0909 15.6461 21.5318 15.7912 21.967 15.9627L21.9681 15.9629C21.9838 15.9675 21.9999 15.9729 22.0147 15.9804C22.0214 15.9839 22.0284 15.9874 22.0356 15.9903C22.4117 16.1405 22.7779 16.3077 23.0202 16.4437C23.0892 16.4825 23.1769 16.4594 23.2272 16.3983C23.3021 16.3075 23.3833 16.2521 23.4704 16.1999L23.4769 16.1959C23.5086 16.1765 23.5338 16.1611 23.5579 16.1406C23.6395 16.0712 23.6386 15.9259 23.5435 15.8769C22.3854 15.282 21.2999 14.9495 20.939 14.8469ZM12.6305 15.1152C12.3609 16.2955 10.5325 17.5928 9.70141 17.5928H9.68508C9.67191 17.5921 9.65748 17.5909 9.642 17.5884C9.62633 17.5859 9.60939 17.5821 9.59139 17.5771L9.58025 17.5738C9.57485 17.5721 9.56931 17.5704 9.56378 17.5689C9.41299 17.5215 9.20408 17.4056 9.04597 17.25C8.93722 17.1431 8.85149 17.0172 8.8245 16.8815L8.80945 16.8102C8.76448 16.6094 8.70864 16.3587 8.88578 15.9484C8.90521 15.9047 8.92293 15.8632 8.93947 15.8245L8.95208 15.7951C8.95646 15.7841 8.96114 15.7732 8.9657 15.7625L8.97152 15.7489C8.99035 15.7045 9.00707 15.6637 9.02214 15.6269C9.04723 15.5644 9.06772 15.5113 9.08466 15.4661C9.09156 15.4485 9.09785 15.4316 9.10349 15.4161C9.1535 15.2758 9.16021 15.2223 9.16703 15.1679L9.16727 15.166L9.16996 15.1471C9.17554 15.1076 9.18231 15.0596 9.1974 14.9951C9.24925 14.7737 9.27622 14.5861 9.30008 14.419C9.34253 14.1187 9.37953 13.8591 9.54141 13.6209C9.56901 13.5804 9.59955 13.5433 9.63405 13.5109C9.64598 13.4996 9.65728 13.489 9.6696 13.4783C9.68081 13.4688 9.692 13.4603 9.70304 13.4519L9.70704 13.4488C9.74636 13.4212 9.78839 13.3969 9.83398 13.3762C9.84966 13.3693 9.86538 13.3624 9.88082 13.3568C9.91282 13.3449 9.9465 13.3348 9.98163 13.326C10.1305 13.2899 10.3062 13.2842 10.5082 13.3097C10.7291 13.3273 10.9336 13.3691 11.1149 13.4197C11.2663 13.4616 11.4014 13.5105 11.5158 13.5561C11.5278 13.5605 11.5391 13.5649 11.5503 13.5699C11.5723 13.5787 11.5934 13.5875 11.6141 13.5969C11.6407 13.6081 11.6654 13.6188 11.6887 13.6289L11.7011 13.6343C11.7264 13.6459 11.7503 13.6566 11.7723 13.6665L11.7982 13.678L11.8251 13.6906C11.9527 13.7487 12.0623 13.8125 12.156 13.8794C12.2022 13.9133 12.2455 13.9476 12.2842 13.9825C12.2974 13.9938 12.3099 14.0057 12.3216 14.0183C12.3342 14.0302 12.3461 14.0421 12.3572 14.054C12.7085 14.424 12.6912 14.8519 12.6305 15.1152ZM13.4779 10.6416L13.4424 10.8556C13.3604 11.3378 13.1722 11.9989 12.4779 12.1691C11.8099 12.3324 11.6516 12.3674 11.1762 12.3887C11.1655 12.39 11.1542 12.39 11.143 12.39C10.7958 12.39 10.1278 12.171 10.0095 11.6268C9.93402 11.2778 10.0872 11.0245 10.34 10.6063L10.3428 10.6017L10.3547 10.5822C10.3938 10.5183 10.4356 10.4501 10.4798 10.3745C10.8159 9.80847 10.9486 9.39845 11.055 9.06967L11.0553 9.06851C11.1591 8.74708 11.2454 8.48128 11.4675 8.26105C11.5188 8.20983 11.5769 8.1615 11.6445 8.11528C11.6875 8.08581 11.7327 8.05967 11.7802 8.0352C11.8433 8.00383 11.9096 7.97642 11.9791 7.95448C12.1336 7.90511 12.3005 7.88001 12.4676 7.88001C12.7915 7.88001 13.1151 7.97329 13.3457 8.15837C13.4495 8.24161 13.5971 8.40788 13.6829 8.89828C13.727 9.15091 13.6519 9.61519 13.4779 10.6416ZM18.4312 12.014L18.4257 12.0234C18.1902 12.4278 18.0599 12.6514 17.8551 12.8195C17.4454 13.156 16.9675 13.2411 16.5741 13.2411C16.2914 13.2411 16.0514 13.1974 15.91 13.1717L15.9077 13.1713C15.5007 13.0968 14.7461 12.9586 14.4945 12.3624C14.4452 12.2442 14.4445 12.1691 14.4445 12.074C14.4445 11.9801 14.4445 11.822 14.4008 11.4459L14.3983 11.4208C14.3782 11.2506 14.3559 11.058 14.4046 10.811L14.4102 10.7815C14.5529 10.0561 14.5916 9.94521 14.6236 9.88266C14.6974 9.74004 14.8724 9.68379 15.015 9.75699C15.1533 9.82892 15.2108 9.99645 15.1458 10.1372C15.1313 10.1784 15.0908 10.3329 14.9805 10.894L14.9749 10.9235C14.9435 11.0818 14.9573 11.2019 14.9755 11.3539L14.978 11.3797C15.0255 11.7881 15.0255 11.9732 15.0255 12.0733C15.0255 12.091 15.0255 12.1104 15.0261 12.1219C15.0263 12.1259 15.028 12.131 15.0294 12.135L15.0299 12.1365C15.0722 12.2368 15.162 12.3155 15.2735 12.3777C15.3694 12.4313 15.4726 12.3374 15.452 12.2295C15.3319 11.6004 15.3443 10.8784 15.5829 10.4283C15.6628 10.2752 15.8108 10.0249 15.9514 9.79121L15.9526 9.7893L15.9538 9.78738C15.968 9.76387 15.9823 9.74056 15.9963 9.71705L16.0312 9.6589C16.0931 9.55622 16.1513 9.4619 16.1977 9.38682C16.204 9.37615 16.2102 9.36548 16.2165 9.35545C16.2209 9.34792 16.2253 9.34102 16.2297 9.33475L16.2425 9.31361C16.2475 9.30533 16.2522 9.29755 16.2567 9.2904L16.2609 9.28349C16.2632 9.27984 16.2654 9.27634 16.2673 9.27284C16.2685 9.27126 16.2695 9.26968 16.2703 9.26825L16.2717 9.26593C16.2761 9.2584 16.2805 9.2515 16.2843 9.24586L16.2888 9.23879C16.2941 9.2304 16.2981 9.22398 16.3006 9.21952L16.3013 9.21817L16.304 9.21382L16.3052 9.21201C16.3398 9.16162 16.3741 9.11305 16.4078 9.06647C16.4839 8.96143 16.395 8.82721 16.2768 8.88052C16.0739 8.97206 15.9372 9.07631 15.9072 9.1001C15.7815 9.20028 15.5987 9.17958 15.4994 9.05389C15.3998 8.92819 15.4205 8.74499 15.5462 8.64481C15.6958 8.52728 16.4882 7.94923 17.4372 8.22069C18.1197 8.41486 18.4781 8.93581 18.6137 9.13296L18.6144 9.13397L18.6169 9.13754C18.7281 9.30066 19.0567 9.78266 19.0461 10.4538C19.0381 10.9693 18.8229 11.3403 18.4312 12.014Z" fill="white"/>
<path d="M11.9073 21.5312C11.7059 21.9426 11.4552 22.3223 11.2989 22.5106C11.1695 22.1607 10.9447 21.3593 11.0041 20.7145C11.0057 20.6959 11.0078 20.6775 11.0106 20.6595C11.0344 20.4604 11.0873 20.2776 11.1814 20.1312C11.2435 20.0351 11.4154 19.9763 11.6108 19.9763C11.7548 19.9763 11.9117 20.0079 12.0466 20.0802H12.0476C12.12 20.1189 12.2185 20.1971 12.2287 20.4247C12.2436 20.7319 12.0972 21.1449 11.9073 21.5312Z" fill="white"/>
<path d="M22.9594 16.9698C22.9684 16.9518 22.9586 16.9329 22.9429 16.9203C22.8639 16.8567 22.5021 16.6757 22.0743 16.4933C22.0082 16.465 21.9311 16.4833 21.8891 16.5418C21.7055 16.7973 21.4554 17.2615 21.274 17.5979L21.2469 17.6482C21.1494 17.8288 21.0578 17.9987 20.9776 18.1368C20.7394 18.5454 20.7197 18.8936 20.7024 19.2003C20.6823 19.5631 20.6615 19.9383 20.2529 20.2108C19.9798 20.3929 19.7334 20.4354 18.4711 20.628C18.3124 20.6527 18.2557 20.6772 18.185 20.7081C18.1008 20.7448 18.0085 20.7847 17.8022 20.825C17.7425 20.8367 17.6953 20.8798 17.6653 20.9327L17.6632 20.9363C17.5655 21.1051 17.2378 21.351 16.9601 21.472C16.8938 21.5009 16.8474 21.5644 16.8432 21.6366C16.8318 21.8327 16.7899 22.0256 16.6889 22.1573C16.6029 22.2683 16.4837 22.3303 16.3424 22.3368C16.3283 22.3375 16.3141 22.3375 16.3005 22.3375C16.0335 22.3375 15.88 22.2206 15.7967 22.1194C15.7899 22.1113 15.7751 22.1141 15.7725 22.1244C15.695 22.4311 15.5315 22.703 15.2032 22.769C15.1564 22.7787 15.1122 22.7831 15.0714 22.7831C14.9044 22.7831 14.7885 22.7124 14.7161 22.6455C14.6862 22.6181 14.6325 22.6296 14.6213 22.6688C14.5831 22.8016 14.5309 22.9244 14.4593 23.0243C14.3499 23.1771 14.2036 23.2668 14.0344 23.2849C14.0105 23.2875 13.9875 23.2886 13.9647 23.2886C13.8227 23.2886 13.6954 23.2402 13.5941 23.1466C13.5041 23.0639 13.2941 23.0683 13.2234 23.1678C13.2117 23.1843 13.1995 23.2004 13.1867 23.2163C12.9899 23.4605 12.6982 23.5842 12.3201 23.5842H12.2946C11.9654 23.5787 11.7994 23.4248 11.7178 23.2958C11.6821 23.2392 11.6558 23.1767 11.6372 23.1101C11.6008 22.9792 11.3895 22.935 11.2535 22.935C11.2443 22.935 11.2359 22.9339 11.2282 22.9328L11.2186 22.9316C11.1245 22.9165 11.0887 22.8387 11.0596 22.7755L11.0586 22.7733C11.0535 22.7615 11.0341 22.7666 11.0357 22.7792C11.0489 22.8858 11.0643 22.9934 11.0814 23.1018C11.0912 23.1623 11.0912 23.3119 10.8905 23.4092C10.7501 23.4777 10.5117 23.5126 10.2457 23.5126C9.75823 23.5126 9.17766 23.395 8.93884 23.1497C8.89051 23.1109 8.83565 23.0663 8.78565 23.0084C8.70064 22.9102 8.53213 22.8687 8.42026 22.9346C8.32957 22.9882 8.26318 22.9995 8.21796 22.9995C8.19726 22.9995 8.18094 22.9975 8.1684 22.9958C7.9365 22.9636 7.78202 22.7448 7.65746 22.4426C7.62982 22.3756 7.55604 22.3403 7.4839 22.3479C7.34776 22.3643 7.21014 22.3719 7.07358 22.3741C6.94099 22.3752 6.80548 22.3704 6.68627 22.3081C6.56726 22.245 6.49639 22.1357 6.45183 22.0127C6.44682 22.0005 6.43202 21.9955 6.42015 22.0014C6.41817 22.0023 6.41619 22.0033 6.41419 22.004C6.40374 22.0086 6.39285 22.0112 6.38092 22.0134C6.31296 22.0249 6.24605 22.0242 6.18185 22.0134C6.14963 22.0079 6.11763 21.9996 6.08711 21.9888C6.0505 21.9766 6.0158 21.9596 5.98254 21.9389C5.9639 21.9278 5.93972 21.947 5.94838 21.9668L5.95199 21.9753C6.65323 23.5705 7.07713 24.5335 8.08097 25.069C8.50587 25.2959 9.14528 25.369 10.4177 25.5144L10.4239 25.5151C11.3543 25.6211 12.0589 25.6204 13.2261 25.6183C14.3491 25.6167 14.6787 25.5682 14.8991 25.5236C15.2663 25.4482 15.4592 25.3702 15.6616 25.2884L15.672 25.2842C15.8965 25.1935 16.1297 25.0992 16.5732 25.0133C16.9986 24.9314 17.4956 24.9135 18.4843 24.8777L18.4916 24.8775C19.0351 24.8572 19.3223 24.8568 19.4948 24.8568C19.6931 24.8561 19.6956 24.8561 19.7663 24.8344C20.5269 24.608 20.9862 23.8985 21.4301 23.2119C21.785 22.6629 22.0652 22.2291 22.1849 21.5741C22.2441 21.2506 22.2301 21.0501 22.207 20.7195L22.2067 20.7156C22.1821 20.3708 22.1497 19.8979 22.1806 19.0562C22.2067 18.3397 22.2565 18.0599 22.4122 17.7531C22.5203 17.5393 22.6363 17.4012 22.7381 17.28L22.742 17.2754L22.7427 17.2746C22.8275 17.175 22.8995 17.0904 22.9594 16.9698Z" fill="white"/>
<path d="M10.6839 20.6748C10.6339 21.1113 10.6034 21.6943 10.6741 22.454C10.6941 22.6682 10.7219 22.8909 10.7567 23.116C10.6968 23.1486 10.5183 23.1945 10.2006 23.1893C9.74405 23.1802 9.29964 23.0655 9.1662 22.9211L9.1455 22.9024C9.03446 22.8132 8.96168 22.7544 8.95121 22.595C8.94788 22.5413 8.97087 22.4879 9.02024 22.4126C9.04695 22.3709 9.08211 22.3231 9.12556 22.2641L9.12793 22.2609C9.20469 22.1579 9.29984 22.0295 9.3973 21.8643C9.68297 21.3815 9.79131 21.2324 9.92891 21.0441C9.9398 21.0289 9.95129 21.0136 9.96322 20.9979C10.0444 20.8869 10.1395 20.7541 10.2826 20.536C10.3892 20.3739 10.4779 20.2469 10.5509 20.1474C10.6728 19.9816 10.7527 19.8916 10.8039 19.8427C10.7964 19.9177 10.7795 20.0234 10.7632 20.1208L10.7587 20.1481C10.7352 20.2927 10.7069 20.4672 10.6839 20.6748Z" fill="white"/>
<path d="M10.1181 20.0415C10.1034 19.892 10.0773 19.7422 10.0229 19.6013C10.0205 19.5968 10.0132 19.581 10.0073 19.5681L9.99948 19.5513C9.99348 19.5403 9.98692 19.5297 9.98034 19.5191C9.97616 19.5123 9.97196 19.5055 9.96789 19.4986C9.96729 19.498 9.96685 19.498 9.96685 19.4976C9.96622 19.4965 9.9658 19.4965 9.9658 19.4959L9.95823 19.4875C9.95498 19.4839 9.95178 19.4803 9.94845 19.4769C9.93966 19.4681 9.93004 19.4595 9.92063 19.4518C9.91896 19.4497 9.91728 19.448 9.91582 19.4474C9.91143 19.4436 9.90496 19.4386 9.89784 19.4344L9.88204 19.4257C9.8761 19.4224 9.87019 19.4191 9.86417 19.416C9.86081 19.4139 9.85267 19.4105 9.84514 19.4078L9.84236 19.4065L9.8397 19.4055C9.83802 19.4045 9.83698 19.4039 9.83593 19.4034L9.83436 19.4029C9.83351 19.4026 9.83284 19.4024 9.83217 19.4024C9.83191 19.4022 9.83112 19.4018 9.83112 19.4018L9.82792 19.4004L9.82559 19.3996L9.82403 19.3991L9.79865 19.3897C9.71985 19.3605 9.63979 19.3308 9.55633 19.3185L9.5552 19.3183L9.55413 19.318L9.55298 19.3179H9.55089C9.54312 19.3179 9.52898 19.3167 9.52214 19.3161L9.51826 19.3158C9.50531 19.3152 9.49275 19.3152 9.48021 19.3158C9.47414 19.3158 9.46828 19.3158 9.46284 19.3164H9.45803L9.45475 19.3167C9.4534 19.3169 9.45195 19.3171 9.45052 19.3171C9.44947 19.3181 9.4478 19.3181 9.44717 19.3181H9.44612C9.43758 19.3206 9.42885 19.323 9.42009 19.3254C9.40763 19.3289 9.39511 19.3323 9.38295 19.3361L9.377 19.339C9.36995 19.3425 9.36261 19.3461 9.35578 19.3503L9.3472 19.3556C9.34244 19.3586 9.33766 19.3616 9.33297 19.3639C9.33233 19.3645 9.33129 19.3656 9.33025 19.3656L9.32859 19.3673C9.32378 19.3721 9.31886 19.3767 9.31395 19.3814C9.30882 19.3862 9.30369 19.3911 9.29868 19.3961C9.29533 19.3995 9.28612 19.4108 9.27965 19.4189C9.27798 19.42 9.27693 19.421 9.27693 19.4221L9.27589 19.4231L9.27506 19.4241L9.27421 19.4248C9.2739 19.4252 9.27349 19.4258 9.27317 19.4258L9.26925 19.4324L9.26668 19.4367C9.23176 19.4911 9.19641 19.545 9.16001 19.5988C9.07616 19.7272 8.9902 19.855 8.90321 19.9819C8.82373 20.0967 8.74428 20.2115 8.66543 20.3264C8.6213 20.3905 8.57779 20.4541 8.53429 20.5183C8.52711 20.5287 8.52032 20.5391 8.51352 20.5495L8.51255 20.551L8.58065 20.5641C8.60969 20.5697 8.63882 20.5753 8.66815 20.5809C8.78505 20.6022 8.90153 20.6227 9.02011 20.639C9.26437 20.6723 9.51262 20.6875 9.76002 20.6787C9.77195 20.6781 9.78386 20.6787 9.79494 20.6808C9.85435 20.5959 9.9244 20.4947 10.0137 20.3592C10.0633 20.2835 10.1105 20.2134 10.1551 20.1486C10.135 20.1176 10.1225 20.0806 10.1181 20.0415Z" fill="white"/>
<path d="M8.68799 22.1908C9.01674 21.7266 9.22733 21.2391 9.24846 21.0509C9.21149 21.0478 9.17482 21.0439 9.13795 21.0399L9.11335 21.0373H9.11126C8.42676 21.0346 7.93927 20.9932 7.66177 20.8393C7.6492 21.0482 7.66218 21.3807 7.73349 21.6287L7.73506 21.6342C7.76632 21.7435 7.80341 21.8732 7.84454 22.0031C7.94848 22.329 8.07962 22.6577 8.2124 22.676C8.24567 22.6727 8.41276 22.5787 8.68799 22.1908Z" fill="white"/>
<path d="M8.76134 19.5012V19.5022C8.75945 19.5047 8.75776 19.5073 8.75609 19.5099L8.75213 19.5158C8.64366 19.6754 8.53429 19.8344 8.42485 19.9934L8.39745 20.0332C8.33596 20.1219 8.27511 20.2106 8.21466 20.2998C8.1994 20.3221 8.18176 20.3454 8.16339 20.3696C8.14175 20.3982 8.1191 20.4281 8.09818 20.4592L8.07841 20.4546C7.98757 20.4334 7.89696 20.4122 7.80707 20.3869C7.72822 20.3641 7.65042 20.3396 7.5741 20.3091C7.55882 20.3036 7.54419 20.2976 7.52997 20.2907C7.51741 20.2651 7.49943 20.2421 7.47768 20.2248L7.47835 20.2232L7.47873 20.222L7.56258 20.0518C7.61528 19.9479 7.6682 19.8446 7.72696 19.7444C7.83153 19.5637 7.95764 19.3799 8.13458 19.2628C8.14335 19.2563 8.15297 19.2502 8.16237 19.2443C8.23097 19.2013 8.29958 19.1709 8.38385 19.1605C8.39369 19.1594 8.45288 19.1599 8.48068 19.1622C8.48342 19.1622 8.4859 19.1624 8.48802 19.1626L8.49219 19.1628C8.4943 19.1634 8.49888 19.1645 8.50473 19.1666C8.51374 19.1694 8.52274 19.1718 8.53175 19.1742C8.54344 19.1774 8.55514 19.1805 8.56684 19.1845C8.57396 19.1879 8.58044 19.191 8.58754 19.1948L8.59914 19.2017C8.61336 19.2101 8.62756 19.2184 8.64087 19.2291C8.61368 19.2084 8.67851 19.2753 8.67851 19.2705C8.7308 19.3429 8.74669 19.4033 8.76134 19.5012Z" fill="white"/>
<path d="M7.32208 19.6748C7.45426 19.4268 7.61256 19.1884 7.83027 19.0094C7.81773 19.0008 7.80079 18.9903 7.7851 18.9837C7.71667 18.9562 7.6398 18.9517 7.56647 18.9475L7.54188 18.946L7.52177 18.9448C7.45181 18.9404 7.37985 18.9359 7.31936 18.9715C7.25745 19.0075 7.21003 19.0661 7.16563 19.1211L7.15938 19.1288C7.03641 19.279 6.92325 19.439 6.8187 19.6017L6.79811 19.6337C6.7304 19.7388 6.66084 19.8469 6.60162 19.9591C6.63153 19.9747 6.66142 19.9894 6.69133 20.0036C6.75659 20.0339 6.82455 20.059 6.89315 20.0808C6.95734 20.1013 7.02324 20.1203 7.08911 20.1345C7.09725 20.1205 7.10437 20.1069 7.11149 20.0927C7.12937 20.0568 7.14708 20.0208 7.16477 19.9849C7.21594 19.8809 7.26708 19.7771 7.32208 19.6748Z" fill="white"/>
<path d="M7.48461 21.9307C7.47372 21.9398 7.46452 21.9498 7.45637 21.9611C7.44899 21.9633 7.4414 21.965 7.43657 21.9661C7.3843 21.9715 7.33068 21.9755 7.27798 21.9788C7.17675 21.9853 7.07385 21.9896 6.97158 21.9859C6.91451 21.9838 6.86285 21.9751 6.83943 21.9387C6.80774 21.8905 6.79472 21.8124 6.78328 21.7437C6.78113 21.7308 6.77904 21.7182 6.77689 21.7063C6.70997 21.3346 6.7012 20.9473 6.74865 20.5713C6.94294 20.6409 7.14267 20.6949 7.34762 20.7286C7.30349 21.0676 7.37857 21.5653 7.4227 21.7178C7.44318 21.7887 7.46388 21.8603 7.48461 21.9307Z" fill="white"/>
<path d="M6.39061 19.5549C6.53115 19.3221 6.68779 19.0973 6.8597 18.8863C6.77709 18.7901 6.67754 18.7324 6.55017 18.7077C6.50731 18.7002 6.43704 18.693 6.38371 18.7083C6.3359 18.7225 6.30326 18.7657 6.27232 18.8066C6.2655 18.8156 6.25876 18.8245 6.25196 18.833C6.15074 18.9603 6.06144 19.0986 5.98155 19.2399C5.93952 19.3154 5.89935 19.3928 5.86339 19.4716C5.85863 19.4816 5.8527 19.493 5.84631 19.5054C5.83138 19.5342 5.81393 19.5678 5.80294 19.599C5.80708 19.6012 5.8108 19.6042 5.81467 19.6073L5.81718 19.6093L5.84886 19.6345C5.86251 19.6453 5.87541 19.6555 5.882 19.6609C5.92926 19.6969 5.97779 19.7312 6.02777 19.7621C6.09301 19.8025 6.1545 19.8297 6.22247 19.8487C6.25892 19.7706 6.30546 19.6946 6.35084 19.6204C6.36429 19.5984 6.37765 19.5765 6.39061 19.5549Z" fill="white"/>
<path d="M5.53389 19.8062C5.5367 19.7952 5.5508 19.7938 5.55742 19.803C5.60239 19.8656 5.66415 19.9203 5.73031 19.9718L5.73697 19.9769C5.76437 19.9977 5.79168 20.0185 5.81939 20.0381C5.82404 20.0414 5.82624 20.0472 5.82491 20.0527C5.75567 20.34 5.70784 20.6445 5.70625 20.945C5.70617 20.9617 5.68111 20.9652 5.67724 20.9491C5.59149 20.5903 5.48008 20.0169 5.53389 19.8062Z" fill="white"/>
<path d="M6.33659 21.2167C6.32529 20.9578 6.34203 20.7004 6.37695 20.4435C6.33499 20.4241 6.29248 20.4052 6.25024 20.3871C6.23056 20.3786 6.21099 20.3702 6.19166 20.3618C6.13018 20.3352 6.09315 20.3193 6.0507 20.302C6.00114 20.5625 5.97834 20.8281 5.9886 21.0942C5.99404 21.2297 6.0093 21.375 6.07831 21.4946C6.10445 21.5392 6.14357 21.5829 6.18058 21.6067C6.1837 21.6087 6.18652 21.6105 6.18911 21.6122C6.21011 21.6256 6.21611 21.6295 6.24812 21.6373C6.24952 21.6377 6.25269 21.638 6.25603 21.6383C6.2582 21.6385 6.26045 21.6387 6.26234 21.6389H6.26445C6.26614 21.6389 6.26838 21.6389 6.27073 21.6388C6.27821 21.6386 6.28674 21.6384 6.2818 21.64C6.31443 21.6352 6.34641 21.6362 6.37695 21.6433C6.37632 21.6427 6.37632 21.641 6.37632 21.64C6.35729 21.4997 6.34203 21.3587 6.33659 21.2167Z" fill="white"/>
<defs>
<radialGradient id="paint0_radial_686_4155" cx="0" cy="0" r="1" gradientUnits="userSpaceOnUse" gradientTransform="translate(16 17.6767) rotate(90) scale(17.9756)">
<stop offset="0.166667" stop-color="#073183"/>
<stop offset="1" stop-color="#0054F9"/>
</radialGradient>
</defs>
</svg>
