<svg width="32" height="32" viewBox="0 0 32 32" fill="none" xmlns="http://www.w3.org/2000/svg">
<g clip-path="url(#clip0_494_23)">
<mask id="mask0_494_23" style="mask-type:alpha" maskUnits="userSpaceOnUse" x="0" y="0" width="32" height="32">
<path d="M16 32C24.8366 32 32 24.8366 32 16C32 7.16344 24.8366 0 16 0C7.16344 0 0 7.16344 0 16C0 24.8366 7.16344 32 16 32Z" fill="black"/>
</mask>
<g mask="url(#mask0_494_23)">
<path d="M16 32C24.8366 32 32 24.8366 32 16C32 7.16344 24.8366 0 16 0C7.16344 0 0 7.16344 0 16C0 24.8366 7.16344 32 16 32Z" fill="black"/>
<path d="M8.98278 7H18.2753L19.0719 9.92052H8.18628L8.98278 7Z" fill="white"/>
<path d="M22.2575 7L25.178 15.7616L22.523 17.6201L19.0714 7L22.2575 7Z" fill="white"/>
<path d="M26.172 19.6355L18.8062 24.9214L16.1512 23.0628L25.311 16.4253L26.172 19.6355Z" fill="white"/>
<path d="M7.92053 10.717L5 19.4786L7.65502 21.3371L11.1066 10.717L7.92053 10.717Z" fill="white"/>
<path d="M8.31874 21.7354L15.7529 27.1782L18.2751 25.3197L9.23556 18.6821L8.31874 21.7354Z" fill="white"/>
<path d="M15.4871 10.7171L11.7993 10.7171L10.8408 13.6376L16.4166 13.6376L15.4871 10.7171Z" fill="white"/>
<path d="M13.7615 14.4341L10.5755 14.4343L9.51354 17.8858L12.0358 19.8771L13.7615 14.4341Z" fill="white"/>
<path d="M18.0095 16.0272L20.6646 14.1687L19.4696 10.7172L16.2836 10.7172L18.0095 16.0272Z" fill="white"/>
<path d="M16.2837 18.2839L18.9388 20.1425L21.8593 18.0185L20.93 14.9652L16.2837 18.2839Z" fill="white"/>
<path d="M13.4964 17.3547L12.6996 20.2752L15.6201 22.5319L18.1423 20.6734L13.4964 17.3547Z" fill="white"/>
</g>
</g>
<defs>
<clipPath id="clip0_494_23">
<rect width="32" height="32" fill="white"/>
</clipPath>
</defs>
</svg>
