<svg width="32" height="32" viewBox="0 0 32 32" fill="none" xmlns="http://www.w3.org/2000/svg">
<path d="M16 32C24.8366 32 32 24.8366 32 16C32 7.16344 24.8366 0 16 0C7.16344 0 0 7.16344 0 16C0 24.8366 7.16344 32 16 32Z" fill="#2E3148"/>
<path d="M16 25.2839C21.1274 25.2839 25.2839 21.1274 25.2839 16C25.2839 10.8726 21.1274 6.71606 16 6.71606C10.8726 6.71606 6.71606 10.8726 6.71606 16C6.71606 21.1274 10.8726 25.2839 16 25.2839Z" fill="#1B1E36"/>
<path fill-rule="evenodd" clip-rule="evenodd" d="M13.1167 10.9675C8.36938 8.742 4.59265 7.86948 3.92703 9.02055C3.26136 10.1717 5.89629 13.009 10.1889 16.02C5.88095 19.0144 3.23531 21.8432 3.89618 22.9953C4.55786 24.1489 8.34542 23.2861 13.1145 21.0725C13.5667 26.3098 14.703 30.0249 16.033 30.0249C17.361 30.0249 18.4959 26.321 18.9495 21.0961C23.6986 23.3232 27.473 24.1967 28.1388 23.0451C28.8052 21.8958 26.1692 19.0569 21.8773 16.0449C26.1848 13.0507 28.8302 10.222 28.1694 9.06997C27.5072 7.91599 23.7201 8.77889 18.9514 10.9926C18.4992 5.75577 17.3629 2.04126 16.033 2.04126C14.7052 2.04126 13.5704 5.74394 13.1167 10.9675ZM13.0606 11.6689C13.0002 12.4926 12.9564 13.3501 12.9311 14.2333C12.168 14.7005 11.4373 15.1708 10.7451 15.6388C8.91709 14.3284 7.6381 13.255 7.6381 13.255C4.72126 10.7991 4.50213 9.60141 4.50213 9.60141L4.50123 9.59808C4.37323 9.2946 4.64344 9.22151 4.64344 9.22151C5.83972 8.99559 7.52009 9.5104 7.52009 9.5104C9.1006 9.87032 11.1091 10.7161 13.0606 11.6689ZM13.6556 11.9634C13.6369 12.1635 13.6186 12.368 13.6008 12.5768C13.6008 12.5768 13.5843 13.0539 13.5742 13.845C13.8696 13.6691 14.1694 13.4938 14.4733 13.3196C14.7618 13.1542 15.0491 12.9924 15.335 12.8343C14.793 12.5446 14.229 12.251 13.6556 11.9634ZM16.0436 12.4485C15.2546 12.0208 14.4789 11.6229 13.7247 11.2574C14.3953 4.73238 15.4684 3.1179 15.8487 2.7418C15.89 2.70095 15.9444 2.67599 16.0024 2.67131C16.0603 2.66662 16.118 2.68252 16.1654 2.7162C16.7526 3.13233 17.2452 4.87262 17.2452 4.87262C17.8689 7.18815 18.201 9.44313 18.3768 11.2636C17.6183 11.627 16.8378 12.0228 16.0436 12.4485ZM16.0115 13.1998C15.3197 13.5926 14.4765 14.0824 13.5673 14.635C13.5636 15.4497 13.5692 16.4536 13.5979 17.5485C14.1749 17.9051 14.7664 18.251 15.3589 18.5706C15.3589 18.5706 15.5944 18.7152 16.0242 18.9555C16.6566 18.6187 17.2879 18.2617 17.8945 17.889C17.8945 17.889 18.138 17.7576 18.5616 17.5059C18.5845 16.7862 18.5893 16.057 18.5679 15.3417C18.5679 15.3417 18.5744 15.0938 18.5687 14.6492C17.8671 14.2374 16.9871 13.7327 16.0115 13.1998ZM18.5502 13.8833C18.2397 13.696 17.9244 13.5094 17.6045 13.324C17.3027 13.149 17.002 12.978 16.7028 12.8111C17.3965 12.4249 17.8202 12.2009 17.8202 12.2009C18.0294 12.1035 18.2344 12.0092 18.435 11.9178C18.4972 12.6798 18.5315 13.346 18.5502 13.8833ZM19.1521 14.9944C19.1577 15.3374 19.1606 15.6837 19.1606 16.0331C19.1606 16.4082 19.1573 16.78 19.1508 17.1477C19.611 16.8619 20.1768 16.4971 20.8125 16.0595C20.6278 15.9279 20.4381 15.7939 20.2432 15.6576C20.2432 15.6576 19.8358 15.4024 19.1521 14.9944ZM21.3528 15.6816C20.6514 15.2021 19.91 14.7197 19.1351 14.2405C19.1097 13.352 19.0657 12.4896 19.0048 11.6613C25.0147 8.98608 26.9542 9.11512 27.469 9.25685C27.5251 9.27253 27.5739 9.30758 27.6067 9.35579C27.6395 9.40401 27.6542 9.46228 27.6481 9.52028C27.5824 10.2371 26.3148 11.5299 26.3148 11.5299C24.6241 13.2177 22.8408 14.6242 21.3528 15.6816ZM21.3218 16.4256C20.6294 16.8937 19.8984 17.3643 19.135 17.8317C19.109 18.7366 19.0637 19.6144 19.001 20.4567C20.6619 21.2149 22.7731 22.0541 25.082 22.6732C25.082 22.6732 26.8348 23.1196 27.4892 22.82C27.5422 22.796 27.5851 22.754 27.6101 22.7014C27.6352 22.6489 27.6409 22.5892 27.6262 22.5329C27.4907 22.0169 26.6325 20.2776 21.3218 16.4256ZM18.4005 20.1771C18.4549 19.5457 18.5018 18.878 18.5342 18.1947C18.2249 18.3793 17.9108 18.5631 17.5922 18.7457C17.2701 18.9305 16.9493 19.1107 16.6303 19.2863C17.1073 19.5408 17.705 19.8469 18.4005 20.1771ZM15.4081 19.2773C15.0954 19.1032 14.7809 18.9246 14.4652 18.7417C14.1794 18.5761 13.8972 18.4096 13.6188 18.2425C13.6397 18.8494 13.668 19.4766 13.706 20.109C14.2553 19.8525 14.8289 19.5741 15.4081 19.2773ZM12.9147 17.1172C12.9086 16.7594 12.9055 16.3979 12.9055 16.0331C12.9055 15.698 12.9081 15.3657 12.9133 15.0366C12.3932 15.3592 11.8589 15.6986 11.325 16.0491C11.8272 16.3998 12.3614 16.7608 12.9147 17.1172ZM10.767 16.4198C11.4525 16.887 12.1758 17.3567 12.9308 17.8234C12.9562 18.7128 13.0003 19.576 13.0612 20.4051C11.0013 21.3362 9.42182 21.9094 9.42182 21.9094C5.83667 23.2013 4.68966 22.7898 4.68966 22.7898C4.36044 22.7483 4.43468 22.4777 4.43468 22.4777C4.83852 21.3294 6.12364 20.1324 6.12364 20.1324C7.22712 18.9451 8.96504 17.6311 10.767 16.4198ZM16.024 19.6157C16.8131 20.0433 17.5888 20.4412 18.3429 20.8068C18.1258 23.0463 17.8391 24.6915 17.8391 24.6915C17.1767 28.4445 16.2489 29.2352 16.2489 29.2352C16.0514 29.4987 15.8539 29.301 15.8539 29.301C15.0585 28.3794 14.6608 26.6673 14.6608 26.6673C14.1785 25.1149 13.9032 22.9451 13.7493 20.7726C14.4894 20.4169 15.2502 20.0305 16.024 19.6157Z" fill="#6F7390"/>
<path d="M23.7038 9.67905C23.7038 10.2245 23.2764 10.6667 22.7491 10.6667C22.2218 10.6667 21.7943 10.2245 21.7943 9.67905C21.7943 9.13359 22.2218 8.69141 22.7491 8.69141C23.2764 8.69141 23.7038 9.13359 23.7038 9.67905Z" fill="#B7B9C8"/>
<path d="M17.6462 16.0001C17.6462 16.9092 16.9093 17.6461 16.0001 17.6461C15.091 17.6461 14.3541 16.9092 14.3541 16.0001C14.3541 15.091 15.091 14.354 16.0001 14.354C16.9093 14.354 17.6462 15.091 17.6462 16.0001Z" fill="#B7B9C8"/>
<path d="M7.07829 14.0248C7.60558 14.0248 8.03304 13.5826 8.03304 13.0371C8.03304 12.4917 7.60558 12.0495 7.07829 12.0495C6.55099 12.0495 6.12354 12.4917 6.12354 13.0371C6.12354 13.5826 6.55099 14.0248 7.07829 14.0248Z" fill="#B7B9C8"/>
<path d="M15.0125 25.1523C15.0125 25.6978 14.585 26.14 14.0577 26.14C13.5304 26.14 13.1029 25.6978 13.1029 25.1523C13.1029 24.6069 13.5304 24.1647 14.0577 24.1647C14.585 24.1647 15.0125 24.6069 15.0125 25.1523Z" fill="#B7B9C8"/>
</svg>
