<svg width="32" height="32" viewBox="0 0 32 32" fill="none" xmlns="http://www.w3.org/2000/svg">
<path fill-rule="evenodd" clip-rule="evenodd" d="M16 0C24.8352 0 32 7.1648 32 16C32 24.8352 24.8352 32 16 32C7.1648 32 0 24.8352 0 16C0 7.1648 7.1648 0 16 0Z" fill="#0055D5"/>
<path fill-rule="evenodd" clip-rule="evenodd" d="M8.70406 10.5856C8.70406 10.5856 6.98247 9.20956 6.86407 12.6079C6.74567 15.2415 6.74887 20.3551 7.96806 22.7711C8.48326 23.6799 9.17126 23.4015 10.4513 22.4959C11.5649 21.6735 15.5937 17.9615 17.2992 16.3327C19.0048 14.7039 22.464 10.032 23.184 13.2063C23.4688 14.5407 23.8208 15.6735 23.552 18.6335C23.4688 19.5455 23.0784 20.2367 21.2992 19.0015C19.9552 18.1375 18.6784 17.2095 18.6784 17.2095C18.6784 17.2095 18.432 16.7679 17.8496 17.4847C17.392 18.0575 17.1616 18.1983 17.8944 18.6335C18.6304 19.0687 22.352 21.6351 23.7792 22.0351C24.9568 22.3775 25.6288 22.3711 25.664 20.0575C25.6576 18.2207 25.552 12.9631 24.8832 10.7232C24.3776 9.32796 23.6352 8.69436 22.032 10.2624C20.4288 11.8304 15.3729 16.7327 12.6081 18.9535C10.7745 20.3295 9.99046 21.5711 9.29926 19.2767C8.81286 17.5391 8.18246 12.1311 10.1729 13.1615C11.4177 13.7567 12.0385 13.7535 11.5521 14.1279C11.0657 14.4991 9.66726 15.7823 9.66726 15.7823C9.66726 15.7823 9.23526 16.1311 9.43686 16.8863C9.63846 17.4143 9.63846 17.6767 10.7233 16.6559C11.8081 15.6351 12.6081 14.8639 12.6081 14.8639C12.6081 14.8639 12.7809 14.5919 13.2961 15.0943C13.8113 15.5967 13.8945 15.7375 13.8945 15.7375C13.8945 15.7375 14.0321 16.1119 14.5825 15.4623C15.1361 14.8127 15.4913 14.4159 14.4449 13.8079C13.4017 13.1935 8.70406 10.5856 8.70406 10.5856Z" fill="white"/>
</svg>
