<svg width="32" height="32" viewBox="0 0 32 32" fill="none" xmlns="http://www.w3.org/2000/svg">
<g clip-path="url(#clip0_1_19771)">
<circle cx="16" cy="16" r="16" fill="#1A110D"/>
<path d="M22.6792 15.847C22.8807 15.7943 23.0854 15.9214 23.135 16.1262L23.4637 17.4842C23.5133 17.6858 23.3893 17.8935 23.1877 17.9431C22.9862 17.9958 22.7815 17.8687 22.7319 17.6641L22.4032 16.306C22.3536 16.1044 22.4776 15.8966 22.6792 15.847ZM12.4934 5.91551C12.3787 5.73567 12.4314 5.50312 12.5988 5.3884L13.7585 4.62252C13.9352 4.5078 14.1678 4.56051 14.2825 4.73105C14.3972 4.91089 14.3445 5.14344 14.1771 5.25817L13.0174 6.02404C12.8438 6.14187 12.6112 6.08916 12.4934 5.91551Z" fill="white"/>
<path fill-rule="evenodd" clip-rule="evenodd" d="M18.4842 10.6634C17.1421 10.361 15.7018 10.6096 14.5215 11.41C16.2982 10.8146 18.3416 11.2271 19.7554 12.6565C21.7461 14.6689 21.7461 17.9463 19.7554 19.9586C19.5167 20.2005 19.2562 20.4145 18.9802 20.5974C19.709 20.3462 20.3973 19.937 20.9771 19.3509C22.3848 17.9279 22.797 15.8722 22.2138 14.0787C20.5899 13.4382 19.2604 12.2134 18.4842 10.6634Z" fill="#FFAE54"/>
<path d="M26.8588 22.2092L26.8587 22.2094C23.632 28.1735 16.2298 30.3522 10.3362 27.0981C4.44034 23.8428 2.26684 16.3639 5.49553 10.3963C7.6199 6.46986 11.5538 4.18141 15.6762 4.00535C16.2232 3.98199 16.647 4.27019 16.9416 4.78131C17.2432 5.3048 17.3776 6.02356 17.3057 6.7034C17.2778 6.96672 17.2636 7.23395 17.2636 7.50433C17.2636 8.77336 17.5771 9.96914 18.1308 11.0186C15.5677 10.0507 12.6183 11.1123 11.2716 13.5986C9.79624 16.3227 10.789 19.7549 13.4941 21.2499C16.2025 22.7466 19.606 21.7334 21.0826 19.0072L21.0828 19.0067C21.9091 17.4778 21.9598 15.7253 21.3666 14.2177C22.3975 14.7467 23.5661 15.0452 24.8045 15.0452C25.4987 15.0452 26.1718 14.9513 26.8114 14.7752C27.1768 14.6745 27.5685 14.7176 27.8612 14.8675C28.1442 15.0124 28.3126 15.2402 28.3311 15.534C28.4724 17.7788 28.007 20.0891 26.8588 22.2092Z" fill="url(#paint0_radial_1_19771)" stroke="#AC562A" stroke-width="1.0716"/>
<path d="M23.7366 19.7539L24.186 19.596C24.186 19.5961 24.186 19.5961 24.186 19.5962C24.5031 20.499 24.0924 21.2852 23.7901 21.8639C23.7808 21.8818 23.7715 21.8994 23.7625 21.9169C23.5792 22.2686 23.433 22.5549 23.3665 22.8409C23.2621 23.2927 23.2778 23.7132 23.4061 24.0303C23.5261 24.3271 23.7533 24.5616 24.1616 24.6699C24.4334 24.7405 24.8505 24.6369 25.3994 24.298C27.5128 21.7958 28.4765 18.6442 28.2895 15.5494C28.2717 15.2558 28.1044 15.0278 27.8225 14.882C27.5311 14.7311 27.1404 14.6863 26.7751 14.7849C26.1465 14.9547 25.4857 15.0452 24.8045 15.0452C23.5489 15.0452 22.3648 14.7382 21.3234 14.1953C21.9329 15.7046 21.8703 17.4224 21.1224 18.8837C21.0009 19.1213 20.8611 19.352 20.7033 19.5741C21.0182 19.4766 21.4146 19.2917 21.9041 18.9849C22.639 18.526 23.4669 18.9818 23.7366 19.7539ZM23.7366 19.7539C23.9846 20.4598 23.6625 21.0781 23.3401 21.6968C23.1626 22.0374 22.9851 22.3781 22.9025 22.7336L23.7366 19.7539ZM15.1606 10.758L15.1409 10.7615L15.1216 10.7667C13.9249 11.0846 12.9632 10.9319 12.227 10.5398C11.4836 10.144 10.9333 9.48411 10.6054 8.73106C10.2763 7.97528 10.1833 7.15252 10.3254 6.45853C10.4659 5.77231 10.8263 5.24209 11.3874 4.9728C12.8743 4.33725 14.46 4.01283 16.0472 4.00004C16.4982 3.9964 16.8557 4.24536 17.0997 4.68299C17.3493 5.13066 17.4496 5.73636 17.3599 6.29915C17.2968 6.69393 17.2636 7.0981 17.2636 7.50425C17.2636 8.78501 17.5829 9.99122 18.1462 11.0476C17.1925 10.6776 16.1585 10.581 15.1606 10.758Z" fill="#AC562A" stroke="#AC562A" stroke-width="1.0716"/>
<path d="M6.94484 14.0927C7.29555 14.0927 7.57986 13.8084 7.57986 13.4577C7.57986 13.1069 7.29555 12.8226 6.94484 12.8226C6.59412 12.8226 6.30981 13.1069 6.30981 13.4577C6.30981 13.8084 6.59412 14.0927 6.94484 14.0927Z" fill="#AC562A"/>
<path d="M16.1524 25.2057C16.5031 25.2057 16.7874 24.9214 16.7874 24.5707C16.7874 24.22 16.5031 23.9357 16.1524 23.9357C15.8016 23.9357 15.5173 24.22 15.5173 24.5707C15.5173 24.9214 15.8016 25.2057 16.1524 25.2057Z" fill="#AC562A"/>
<path d="M12.2626 26.1582C12.8325 26.1582 13.2945 25.6962 13.2945 25.1263C13.2945 24.5564 12.8325 24.0944 12.2626 24.0944C11.6927 24.0944 11.2307 24.5564 11.2307 25.1263C11.2307 25.6962 11.6927 26.1582 12.2626 26.1582Z" fill="#AC562A"/>
</g>
<defs>
<radialGradient id="paint0_radial_1_19771" cx="0" cy="0" r="1" gradientUnits="userSpaceOnUse" gradientTransform="translate(16.1778 16.301) rotate(90) scale(12.7829 12.6541)">
<stop offset="0.333505" stop-color="#F7B450"/>
<stop offset="0.64773" stop-color="#FFC977"/>
<stop offset="1" stop-color="#FF9900"/>
</radialGradient>
<clipPath id="clip0_1_19771">
<rect width="32" height="32" fill="white"/>
</clipPath>
</defs>
</svg>
