<svg width="32" height="32" viewBox="0 0 32 32" fill="none" xmlns="http://www.w3.org/2000/svg">
<circle cx="16" cy="16" r="16" fill="#30BF8F"/>
<path fill-rule="evenodd" clip-rule="evenodd" d="M22.943 16.6163C22.9317 16.5905 22.9268 16.5749 22.9226 16.5615L22.919 16.5502C22.7396 15.9573 22.3952 15.4405 21.9248 15.0567C21.9103 15.0449 21.8954 15.0327 21.8816 15.0223L21.8425 14.9924L21.804 14.9636L21.7616 14.9336L21.7225 14.9003L21.6766 14.8692L21.6377 14.8424L21.5374 14.7777L21.4834 14.7475L21.4267 14.7156L21.3693 14.6823L21.3291 14.6595C21.3035 14.6449 21.289 14.6373 21.2796 14.6323C21.2725 14.6285 21.2682 14.6262 21.2639 14.6236C20.8407 14.4055 20.3837 14.2607 19.9123 14.1954C20.0445 14.053 20.1655 13.9005 20.2744 13.7394L20.3116 13.6831L20.3761 13.5825L20.4057 13.5335L20.4329 13.4859L20.4576 13.4396L20.4874 13.3872L20.5201 13.3304L20.5443 13.283L20.5701 13.2294L20.5981 13.1681C20.821 12.6214 20.8686 12.0705 20.7546 11.5418C20.7481 11.5235 20.7447 11.5107 20.7417 11.4999L20.7379 11.4863C20.731 11.4644 20.7266 11.4482 20.7228 11.4343C20.7201 11.4243 20.7177 11.4154 20.7149 11.4066C20.7112 11.3895 20.7061 11.3721 20.7012 11.3553L20.6981 11.3445C20.6853 11.3149 20.6809 11.3007 20.6767 11.287L20.6762 11.2854C20.517 10.7581 20.2106 10.2983 19.7919 9.95703C19.7843 9.95014 19.7764 9.944 19.7687 9.93801C19.7637 9.93411 19.7587 9.93026 19.754 9.92633L19.707 9.89018L19.6652 9.8582L19.6267 9.82949L19.5856 9.80193L19.5433 9.77509L19.4997 9.74895L19.4556 9.72126L19.4093 9.69322L19.3683 9.66912L19.3189 9.63811L19.2649 9.6079L19.2239 9.58707C18.3872 9.14987 17.3601 9.02303 16.3268 9.2888L16.058 9.35799L15.3769 6.70605L13.8015 7.11096L14.4775 9.75489L13.2172 10.079L12.539 7.44371L10.9636 7.84853L11.6412 10.4922L8.39209 11.3306L8.82439 13.0151L10.1336 12.678C10.3416 12.6243 10.5625 12.6555 10.7476 12.765C10.9327 12.8745 11.0668 13.0532 11.1204 13.2618L12.9381 20.3519C13.0122 20.6418 12.8383 20.9371 12.5493 21.012L11.4021 21.3078L11.4695 23.3113L14.7145 22.4751L15.4011 25.114L16.9758 24.7078L16.2975 22.0628L17.5578 21.7387L18.2361 24.3835L19.8108 23.9773L19.1303 21.322C19.3972 21.2522 19.6267 21.1926 19.7855 21.1514C20.95 20.8511 21.8917 20.1665 22.4615 19.3132L22.4913 19.2707L22.5222 19.2211L22.5567 19.1628L22.5886 19.106L22.6179 19.0505L22.6487 18.9976L22.6769 18.9461L22.704 18.8953L22.7281 18.8478L22.7527 18.8015L22.7775 18.7552L22.8027 18.7039C22.8122 18.682 22.8192 18.6663 22.8246 18.6542C22.8329 18.6354 22.8373 18.6257 22.8409 18.6157C23.0695 18.0498 23.1231 17.4303 22.9954 16.8355L22.9785 16.7769C22.9664 16.7439 22.9604 16.7223 22.9555 16.7048C22.9532 16.6967 22.9512 16.6894 22.9489 16.6823L22.9472 16.6646C22.9458 16.6512 22.944 16.6343 22.943 16.6163ZM13.6863 11.8744C13.7884 11.8481 14.0121 11.7915 14.2705 11.726C14.692 11.6192 15.2056 11.4891 15.4329 11.4298C16.0155 11.2803 16.5894 11.3383 17.0379 11.5547L17.053 11.5614L17.0688 11.5693L17.096 11.584L17.1369 11.6061L17.1778 11.6281L17.1902 11.6362L17.2148 11.6523L17.2734 11.6867L17.284 11.6943L17.2966 11.7024L17.3138 11.7131L17.325 11.7218L17.3423 11.7324C17.3459 11.7346 17.3493 11.7373 17.3528 11.7399C17.3563 11.7426 17.3598 11.7453 17.3635 11.7475C17.593 11.9211 17.7616 12.1633 17.8451 12.4391C17.8493 12.45 17.8521 12.4583 17.8543 12.4655C17.862 12.4859 17.8656 12.4956 17.8686 12.5072C17.8718 12.519 17.8739 12.5311 17.8749 12.5434C17.8782 12.5528 17.8803 12.5593 17.882 12.5646C17.8826 12.5667 17.8832 12.5685 17.8838 12.5703C17.8844 12.572 17.8849 12.5737 17.8856 12.5753C17.9466 12.8611 17.9152 13.1547 17.7979 13.4178L17.7876 13.4415L17.7821 13.4528L17.7765 13.464L17.7678 13.4819L17.7622 13.493L17.7566 13.5042L17.751 13.5153L17.7454 13.5266L17.7397 13.5379L17.7259 13.5613L17.7191 13.5731L17.7111 13.5854L17.703 13.5979L17.6869 13.6226L17.6708 13.6474L17.6548 13.6721L17.6175 13.7244L17.6031 13.7436C17.3134 14.1507 16.8387 14.4794 16.256 14.6289C16.048 14.6823 15.6019 14.799 15.2055 14.9028C14.9024 14.9821 14.6283 15.0538 14.5119 15.0838L13.6863 11.8744ZM19.7307 18.2641C19.8749 17.9819 19.9195 17.659 19.8545 17.343C19.853 17.3339 19.8508 17.3267 19.8446 17.3089C19.8466 17.2913 19.8456 17.277 19.8391 17.2743C19.8386 17.2725 19.8381 17.2708 19.8376 17.2691C19.8346 17.2581 19.8315 17.247 19.8247 17.2293C19.8219 17.221 19.8197 17.2139 19.8142 17.2004C19.7186 16.8967 19.5232 16.6343 19.2597 16.4562C19.2559 16.4535 19.2517 16.451 19.2476 16.4484C19.2431 16.4457 19.2387 16.443 19.2346 16.4401L19.2161 16.427L19.1999 16.4176L19.1876 16.4096L19.1752 16.4015L19.1629 16.3935L19.1382 16.3773L19.1246 16.37L19.1109 16.3626L19.0836 16.3479L19.0428 16.3259L19.0155 16.3111L18.9998 16.3032L18.9841 16.2952L18.9684 16.2873L18.9513 16.2801L18.9342 16.2728L18.917 16.2656L18.896 16.2571L18.879 16.2497C18.3558 16.0258 17.6791 15.9757 16.9897 16.1529C16.7631 16.2116 16.2966 16.3299 15.8567 16.4414C15.4529 16.5437 15.0716 16.6404 14.919 16.6801L15.8132 20.1683C15.9938 20.1221 16.4919 19.992 16.9693 19.8673C17.3367 19.7713 17.692 19.6785 17.881 19.6296C18.5704 19.4522 19.1379 19.0817 19.4899 18.6312L19.5018 18.6166L19.5155 18.5992L19.5381 18.5674L19.5494 18.5515L19.5607 18.5356L19.5805 18.5051L19.5892 18.4908L19.5978 18.4764L19.6164 18.4502L19.6325 18.4255L19.6486 18.4007L19.6647 18.376L19.6727 18.3636L19.6888 18.3388L19.7025 18.3154L19.7098 18.3017L19.7166 18.2898L19.7307 18.2641Z" fill="white"/>
</svg>
