<svg width="32" height="32" viewBox="0 0 32 32" fill="none" xmlns="http://www.w3.org/2000/svg">
<circle cx="16" cy="16" r="16" fill="#F99400"/>
<path fill-rule="evenodd" clip-rule="evenodd" d="M22.7021 18.256C22.3938 17.5388 21.7981 16.9433 20.9151 16.4697C22.2758 16.1911 23.0761 15.3137 23.3164 13.8376C23.4077 13.3034 23.3818 12.8123 23.2387 12.3636C23.0954 11.9148 22.8461 11.518 22.4895 11.1728C22.1333 10.8274 21.7255 10.5279 21.2673 10.2739C20.809 10.02 20.269 9.78001 19.6476 9.55433L20.4474 6.56942L18.5874 6.07103L17.8098 8.973C17.4877 8.8867 16.9944 8.76297 16.3299 8.60186L17.1138 5.67619L15.2536 5.17773L14.4538 8.16264C14.1858 8.09934 13.7942 7.99873 13.2789 7.86064L10.7214 7.16255L10.2008 9.10514L11.5415 9.46437C12.1536 9.62837 12.44 9.99293 12.4008 10.5579L11.4899 13.9574C11.5705 13.979 11.6338 14.0003 11.68 14.0211L11.4867 13.9693L10.2108 18.7308C10.0386 19.1161 9.75112 19.2551 9.34843 19.1472L8.00782 18.788L7.05249 20.8553L9.46835 21.5026C9.62138 21.5436 9.84216 21.6049 10.1312 21.6862C10.42 21.7678 10.6368 21.8281 10.7818 21.8669L9.97249 24.8873L11.8331 25.3858L12.6329 22.401C12.9688 22.4996 13.459 22.6351 14.1032 22.8077L13.3066 25.7807L15.1667 26.2791L15.976 23.2587C16.6449 23.4041 17.2465 23.5022 17.781 23.552C18.3157 23.6018 18.8415 23.5969 19.3582 23.5364C19.8748 23.476 20.3272 23.3495 20.7153 23.1573C21.1034 22.9653 21.4571 22.6833 21.7771 22.3119C22.0964 21.9404 22.3597 21.482 22.5661 20.9362C22.9653 19.8671 23.0104 18.9735 22.7021 18.256ZM15.7949 10.7433L14.8207 14.3796C14.861 14.3905 14.9992 14.4297 15.2358 14.4973C15.4724 14.5649 15.6596 14.615 15.7976 14.6478C15.9355 14.6806 16.139 14.7265 16.408 14.7859C16.6769 14.8454 16.9042 14.8829 17.0898 14.8988C17.2753 14.9147 17.4943 14.9268 17.7466 14.9351C17.9988 14.9435 18.2139 14.9228 18.391 14.873C18.5684 14.8233 18.7462 14.7566 18.9239 14.673C19.1014 14.5894 19.2512 14.4665 19.3721 14.3043C19.4932 14.142 19.5833 13.9503 19.6425 13.7291C19.7124 13.4686 19.7239 13.2242 19.6771 12.9958C19.6305 12.7675 19.5522 12.5687 19.4421 12.3996C19.3322 12.2305 19.1687 12.0682 18.9512 11.9126C18.7342 11.7571 18.53 11.6326 18.3393 11.5392C18.1486 11.4459 17.9095 11.3479 17.6219 11.2455C17.3342 11.143 17.1033 11.0705 16.9291 11.028C16.7549 10.9856 16.5366 10.9313 16.2736 10.8652C16.011 10.7991 15.8514 10.7585 15.7949 10.7433ZM18.2901 20.5653C18.4468 20.4634 18.5876 20.3317 18.713 20.1706C18.8383 20.0093 18.9304 19.8185 18.9898 19.5972C19.066 19.3128 19.0733 19.0439 19.0115 18.7905C18.95 18.5369 18.8497 18.3157 18.7107 18.1258C18.5715 17.9362 18.3722 17.7538 18.1128 17.5785C17.8532 17.403 17.6092 17.2595 17.3804 17.1473C17.1513 17.0352 16.8628 16.9199 16.515 16.8015C16.167 16.6827 15.8922 16.5966 15.6909 16.5426C15.4895 16.4887 15.229 16.4228 14.9086 16.3455C14.5883 16.2683 14.396 16.2209 14.3317 16.2037L13.2589 20.2074C13.3234 20.2247 13.4717 20.2665 13.7043 20.3328C13.9369 20.3993 14.1296 20.4532 14.2826 20.4942C14.4356 20.5352 14.6507 20.5864 14.9275 20.6481C15.2046 20.7096 15.4443 20.7569 15.6468 20.79C15.8496 20.823 16.0879 20.8511 16.3626 20.8739C16.6368 20.8965 16.8751 20.9014 17.0774 20.8876C17.2794 20.874 17.493 20.8425 17.7177 20.7926C17.9424 20.7429 18.1333 20.6669 18.2901 20.5653Z" fill="white"/>
</svg>
