<svg width="32" height="32" viewBox="0 0 32 32" fill="none" xmlns="http://www.w3.org/2000/svg">
<g clip-path="url(#clip0_1_19459)">
<path d="M16 32C24.8366 32 32 24.8366 32 16C32 7.16344 24.8366 0 16 0C7.16344 0 0 7.16344 0 16C0 24.8366 7.16344 32 16 32Z" fill="#D9B432"/>
<path d="M21.2273 8.13434C21.7859 8.1286 22.3401 8.23309 22.8582 8.44183C23.3764 8.65058 23.8482 8.95947 24.2468 9.35084C24.6454 9.7422 24.9629 10.2083 25.1811 10.7226C25.3992 11.2368 25.5138 11.789 25.5183 12.3476C25.514 13.0502 25.3417 13.7415 25.0156 14.3639C24.4743 13.9491 23.8745 13.6169 23.2357 13.3781C23.4161 13.0647 23.5106 12.7092 23.5099 12.3476C23.4989 11.7615 23.2584 11.2032 22.8401 10.7926C22.4218 10.382 21.859 10.152 21.2729 10.152C20.6867 10.152 20.124 10.382 19.7056 10.7926C19.2873 11.2032 19.0468 11.7615 19.0359 12.3476C19.0347 12.7093 19.1293 13.0648 19.31 13.3781C18.6585 13.5889 18.0538 13.9236 17.5294 14.3639C17.1824 13.7494 17.0087 13.0523 17.0267 12.3468C17.0134 11.791 17.1128 11.2382 17.3191 10.7219C17.5253 10.2056 17.834 9.73644 18.2266 9.34275C18.6192 8.94906 19.0875 8.63901 19.6032 8.43132C20.119 8.22362 20.6714 8.1226 21.2273 8.13434Z" fill="white"/>
<path d="M10.7727 23.8657C10.2142 23.8714 9.66011 23.7668 9.14209 23.5581C8.62408 23.3494 8.15232 23.0406 7.75382 22.6493C7.35532 22.258 7.0379 21.792 6.81974 21.2779C6.60157 20.7638 6.48695 20.2117 6.48242 19.6532H8.53642C8.54737 20.2393 8.78786 20.7976 9.20619 21.2082C9.62451 21.6188 10.1873 21.8488 10.7734 21.8488C11.3596 21.8488 11.9223 21.6188 12.3407 21.2082C12.759 20.7976 12.9995 20.2393 13.0104 19.6532H15.0644C15.0599 20.2117 14.9452 20.7639 14.727 21.278C14.5088 21.7922 14.1913 22.2582 13.7927 22.6495C13.3941 23.0408 12.9223 23.3496 12.4042 23.5583C11.8861 23.767 11.3319 23.8714 10.7734 23.8657H10.7727Z" fill="white"/>
<path d="M21.2273 14.0505C20.5734 14.0355 19.9231 14.1513 19.3145 14.3912C18.706 14.6311 18.1515 14.9902 17.6837 15.4474C17.2159 15.9046 16.8442 16.4507 16.5904 17.0536C16.3367 17.6564 16.2059 18.304 16.2059 18.9581C16.2059 19.6122 16.3367 20.2597 16.5904 20.8626C16.8442 21.4655 17.2159 22.0115 17.6837 22.4687C18.1515 22.9259 18.706 23.285 19.3145 23.5249C19.9231 23.7648 20.5734 23.8807 21.2273 23.8657V23.8665C21.8775 23.8753 22.5229 23.7548 23.126 23.5121C23.7292 23.2694 24.2782 22.9093 24.741 22.4527C25.2039 21.9961 25.5714 21.452 25.8222 20.8522C26.0731 20.2523 26.2023 19.6086 26.2023 18.9585C26.2023 18.3083 26.0731 17.6646 25.8222 17.0647C25.5714 16.4649 25.2039 15.9209 24.741 15.4642C24.2782 15.0076 23.7292 14.6475 23.126 14.4048C22.5229 14.1621 21.8775 14.0417 21.2273 14.0505V14.0505ZM21.2273 21.8038C20.8413 21.8139 20.4572 21.7466 20.0976 21.6059C19.7381 21.4652 19.4103 21.2538 19.1337 20.9844C18.8571 20.7149 18.6373 20.3928 18.4872 20.037C18.3371 19.6813 18.2598 19.299 18.2598 18.9129C18.2598 18.5268 18.3371 18.1445 18.4872 17.7888C18.6373 17.433 18.8571 17.1109 19.1337 16.8414C19.4103 16.572 19.7381 16.3607 20.0976 16.2199C20.4572 16.0792 20.8413 16.0119 21.2273 16.022C22.003 16.0288 22.7457 16.3364 23.2991 16.88C23.8525 17.4236 24.1733 18.1607 24.1941 18.9361C24.1903 19.32 24.1103 19.6994 23.9587 20.0521C23.807 20.4048 23.5868 20.7239 23.3107 20.9907C23.0347 21.2576 22.7083 21.4669 22.3507 21.6064C21.993 21.746 21.6112 21.8131 21.2273 21.8038Z" fill="white"/>
<path d="M10.7735 8.13425C10.1234 8.1253 9.47796 8.24561 8.87472 8.4882C8.27147 8.73079 7.72244 9.09082 7.25951 9.54738C6.79659 10.0039 6.42899 10.5479 6.17806 11.1478C5.92714 11.7476 5.7979 12.3913 5.79785 13.0415C5.7978 13.6917 5.92694 14.3354 6.17776 14.9353C6.42858 15.5351 6.7961 16.0792 7.25895 16.5358C7.72181 16.9924 8.27078 17.3526 8.87398 17.5952C9.47719 17.8379 10.1226 17.9583 10.7727 17.9495H10.7735C12.0828 17.9523 13.3412 17.4427 14.2796 16.5297C15.218 15.6166 15.7619 14.3727 15.795 13.0639C15.7788 11.7456 15.2416 10.4872 14.3008 9.56359C13.36 8.63997 12.0919 8.12613 10.7735 8.13425ZM13.6947 13.0647L13.6946 13.0642C13.7053 13.6534 13.5404 14.2324 13.2208 14.7274C12.9013 15.2225 12.4416 15.6112 11.9003 15.8441C11.359 16.077 10.7607 16.1434 10.1815 16.035C9.60229 15.9266 9.0685 15.6482 8.64811 15.2353C8.22772 14.8224 7.93977 14.2937 7.82094 13.7166C7.70211 13.1394 7.75778 12.54 7.98087 11.9946C8.20395 11.4492 8.58435 10.9826 9.07358 10.6542C9.56282 10.3258 10.1387 10.1505 10.728 10.1505C11.1143 10.1463 11.4976 10.2184 11.856 10.3627C12.2144 10.507 12.5408 10.7206 12.8164 10.9913C13.092 11.262 13.3115 11.5845 13.4622 11.9402C13.6129 12.2959 13.6919 12.6779 13.6946 13.0642L13.6947 13.0639V13.0647Z" fill="white"/>
</g>
<defs>
<clipPath id="clip0_1_19459">
<rect width="32" height="32" fill="white"/>
</clipPath>
</defs>
</svg>
