<svg width="32" height="32" viewBox="0 0 32 32" fill="none" xmlns="http://www.w3.org/2000/svg">
<path d="M16 32C24.8366 32 32 24.8366 32 16C32 7.16344 24.8366 0 16 0C7.16344 0 0 7.16344 0 16C0 24.8366 7.16344 32 16 32Z" fill="#42D7E2"/>
<path d="M24.9436 19.8463C24.9436 22.9088 20.8811 25.4088 15.8811 25.4088C10.8811 25.4088 6.5686 22.9088 6.5686 19.8463L6.56862 18.1875H25.0061L25.0061 19.8463H24.9436Z" fill="#FEDC90"/>
<path fill-rule="evenodd" clip-rule="evenodd" d="M10.0061 8.81245C9.75611 7.68745 10.9436 6.49438 12.0686 6.49438C13.0686 6.49438 14.0686 7.49995 14.0686 8.49995V12.284C14.6936 12.2215 15.1311 12.284 15.8186 12.284C16.4436 12.284 16.8811 12.3465 17.5061 12.409V8.18745C17.5061 7.18745 18.5061 6.49438 19.5061 6.49438C20.6311 6.49438 21.6455 7.55689 21.458 8.68189L20.6311 13.1875C23.2561 14.1875 25.0061 16.1875 25.0061 18.1875C25.0061 21.25 20.8811 23.8125 15.8811 23.8125C10.8811 23.8125 6.5686 21.25 6.5686 18.1875C6.5686 16.1875 8.00611 14.1875 10.6311 13.1875L10.0061 8.81245Z" fill="#D1884F"/>
<path d="M13.3186 17.8125C13.3186 18.625 12.8811 19.3125 12.3186 19.3125C11.7561 19.3125 11.3186 18.625 11.3186 17.8125C11.3186 17 11.7561 16.3125 12.3186 16.3125C12.8811 16.3125 13.3186 17 13.3186 17.8125Z" fill="#633001"/>
<path d="M20.2561 17.8125C20.2561 18.625 19.8186 19.3125 19.2561 19.3125C18.6936 19.3125 18.2561 18.625 18.2561 17.8125C18.2561 17 18.6936 16.3125 19.2561 16.3125C19.8186 16.3125 20.2561 17 20.2561 17.8125Z" fill="#633001"/>
<path fill-rule="evenodd" clip-rule="evenodd" d="M12.0686 6C10.4436 6 9.19361 7.5 9.50611 9.125L10.1936 12.9375C7.75611 14 5.9436 15.875 5.9436 18.1875V19.625C5.9436 21.5625 7.19361 23.1875 8.94361 24.25C10.7561 25.375 13.1311 26 15.8186 26C18.5061 26 20.8811 25.375 22.6936 24.25C24.5061 23.1875 25.7561 21.5625 25.7561 19.625V18.1875C25.7561 15.875 23.8811 14 21.4436 12.9375L22.1311 9.125C22.3811 7.5 21.1311 6 19.5061 6C18.0686 6 16.8811 7.1875 16.8811 8.625V11.875C16.5061 11.8125 16.1936 11.8125 15.8186 11.8125C15.6311 11.8125 15.4436 11.8281 15.2561 11.8438C15.0686 11.8594 14.8811 11.875 14.6936 11.875V8.625C14.6936 7.1875 13.5061 6 12.0686 6ZM21.3186 8.9375L20.5061 13.4375C23.1936 14.4375 24.9436 16.1875 24.8811 18.25V19.6875C24.8811 22.75 20.8186 25.25 15.8186 25.25C10.8186 25.25 6.7561 22.75 6.7561 19.6875V18.25C6.7561 16.25 8.50611 14.5 11.1311 13.5L10.3186 9C10.0686 7.875 10.9436 6.8125 12.0686 6.8125C13.0686 6.8125 13.8811 7.625 13.8811 8.625V12.6875C14.0061 12.6875 14.1467 12.6719 14.2874 12.6563C14.428 12.6406 14.5686 12.625 14.6936 12.625C15.0686 12.5625 15.4436 12.5625 15.8186 12.5625C16.0061 12.5625 16.178 12.5781 16.3499 12.5938C16.5217 12.6094 16.6936 12.625 16.8811 12.625C17.1311 12.625 17.4436 12.625 17.6936 12.6875V8.5625C17.6936 7.5625 18.5061 6.75 19.5061 6.75C20.6936 6.75 21.5061 7.8125 21.3186 8.9375Z" fill="#633001"/>
</svg>
