<svg width="32" height="32" viewBox="0 0 32 32" fill="none" xmlns="http://www.w3.org/2000/svg">
<path d="M16 0C24.8374 0 32 7.16407 32 16C32 24.8374 24.8374 32 16 32C7.16407 32 0 24.8366 0 16C0 7.16407 7.16407 0 16 0Z" fill="#F5AC37"/>
<path d="M16.5846 17.122H22.6644C22.794 17.122 22.8552 17.122 22.8645 16.9521C22.9142 16.3336 22.9142 15.7115 22.8645 15.0923C22.8645 14.9721 22.8048 14.9224 22.6745 14.9224H10.5747C10.425 14.9224 10.3846 14.9721 10.3846 15.1125V16.8923C10.3846 17.122 10.3846 17.122 10.6244 17.122H16.5846ZM22.1856 12.8423C22.2028 12.7969 22.2028 12.7472 22.1856 12.7026C22.084 12.4816 21.9638 12.2706 21.8241 12.0726C21.6139 11.7342 21.3662 11.4224 21.084 11.1424C20.9508 10.9731 20.7967 10.8212 20.6239 10.6923C19.7584 9.95578 18.7295 9.43449 17.6236 9.17241C17.0656 9.04713 16.4953 8.98737 15.9237 8.99241H10.5539C10.4041 8.99241 10.3839 9.05217 10.3839 9.18249V12.7321C10.3839 12.8819 10.3839 12.9222 10.574 12.9222H22.1136C22.1136 12.9222 22.2136 12.902 22.2338 12.8423H22.1848H22.1856ZM22.1856 19.2021C22.0156 19.1834 21.8443 19.1834 21.6744 19.2021H10.5848C10.4351 19.2021 10.3846 19.2021 10.3846 19.4023V22.8727C10.3846 23.0325 10.3846 23.0729 10.5848 23.0729H15.7048C15.9496 23.0916 16.1944 23.0743 16.4342 23.0232C17.1772 22.9699 17.908 22.8086 18.605 22.5429C18.8584 22.4551 19.1032 22.3406 19.3343 22.2031H19.4042C20.6044 21.5789 21.5793 20.5982 22.1942 19.3944C22.1942 19.3944 22.264 19.2432 22.1856 19.2036V19.2021ZM8.37511 24.8722V24.8124V22.4825V21.6926V19.3425C8.37511 19.2122 8.37511 19.1928 8.21527 19.1928H6.04517C5.92492 19.1928 5.87524 19.1928 5.87524 19.0329V17.1328H8.19511C8.32471 17.1328 8.37511 17.1328 8.37511 16.9629V15.0829C8.37511 14.9627 8.37511 14.9332 8.21527 14.9332H6.04517C5.92492 14.9332 5.87524 14.9332 5.87524 14.7733V13.0136C5.87524 12.9035 5.87524 12.874 6.03509 12.874H8.18503C8.33479 12.874 8.37511 12.874 8.37511 12.6839V7.29391C8.37511 7.13407 8.37511 7.09375 8.57527 7.09375H16.0749C16.6192 7.11535 17.1599 7.17511 17.6949 7.27375C18.7972 7.47751 19.8563 7.87136 20.8248 8.43368C21.467 8.81169 22.0581 9.26817 22.5844 9.79378C22.9805 10.2049 23.3376 10.6499 23.6544 11.1236C23.969 11.6039 24.2304 12.1172 24.4356 12.6536C24.4608 12.7933 24.5947 12.8876 24.7344 12.8639H26.5243C26.754 12.8639 26.754 12.8639 26.7641 13.0842V14.7244C26.7641 14.8842 26.7043 14.9245 26.5438 14.9245H25.1635C25.0238 14.9245 24.9835 14.9245 24.9936 15.1046C25.0483 15.7137 25.0483 16.325 24.9936 16.9341C24.9936 17.104 24.9936 17.1242 25.1844 17.1242H26.7634C26.8332 17.2142 26.7634 17.3042 26.7634 17.3949C26.7735 17.5108 26.7735 17.6282 26.7634 17.7441V18.9544C26.7634 19.1243 26.7137 19.1748 26.5632 19.1748H24.6732C24.5414 19.1496 24.4133 19.2338 24.383 19.3648C23.933 20.5348 23.213 21.5839 22.2828 22.4249C21.9429 22.7309 21.5858 23.0189 21.2128 23.2846C20.8125 23.515 20.423 23.7547 20.0126 23.9448C19.2573 24.2846 18.4653 24.5352 17.6524 24.6943C16.8806 24.8326 16.0979 24.8952 15.3124 24.8844H8.37223V24.8743L8.37511 24.8722Z" fill="#FEFEFD"/>
</svg>
