<svg width="32" height="32" viewBox="0 0 32 32" fill="none" xmlns="http://www.w3.org/2000/svg">
<path d="M16 0C7.16336 0 0 7.16336 0 16C0 24.8366 7.16336 32 16 32C24.8366 32 32 24.8366 32 16C32 7.16336 24.8366 0 16 0Z" fill="#C2A633"/>
<path fill-rule="evenodd" clip-rule="evenodd" d="M16.6285 24.6416H10.8341V16.9382H8.7915V15.0512H10.8339V7.34732H15.807C15.8339 7.34732 15.8643 7.34719 15.898 7.34705C17.3359 7.341 24.776 7.30969 24.776 16.139C24.776 25.3244 16.6285 24.6416 16.6285 24.6416ZM14.0978 10.5439H16.3839C17.2389 10.5439 21.5407 10.8881 21.5475 16.2012C21.5543 21.4511 17.2172 21.4456 16.5195 21.4448C16.5111 21.4448 16.5032 21.4447 16.4959 21.4447H14.0978V16.938H17.6944V15.051H14.0978V10.5439Z" fill="white"/>
</svg>
