<svg width="32" height="32" viewBox="0 0 32 32" fill="none" xmlns="http://www.w3.org/2000/svg">
<path d="M16 0C7.16336 0 0 7.16336 0 16C0 24.8366 7.16336 32 16 32C24.8366 32 32 24.8366 32 16C32 7.16336 24.8366 0 16 0Z" fill="white"/>
<path d="M16.1341 3C10.5466 3.02181 6.02244 7.41886 6 12.8495C6 13.937 6.18062 15.0173 6.53439 16.0488C6.79838 16.751 7.58179 17.1291 8.31711 16.912C9.02784 16.6471 9.40512 15.892 9.17854 15.1856C8.87821 14.3816 8.74462 13.5288 8.78416 12.6749C8.906 8.75262 12.2759 5.66856 16.3115 5.78698C20.3472 5.90539 23.5204 9.18058 23.3986 13.1029C23.2842 16.7749 20.3088 19.7572 16.5349 19.9805C16.5349 19.9805 15.1124 20.0646 14.4049 20.1488C14.1441 20.1851 13.8854 20.235 13.63 20.2984C13.5937 20.3347 13.5349 20.3347 13.4975 20.2994L13.4964 20.2984C13.4707 20.2662 13.4707 20.2205 13.4964 20.1883L13.7166 19.0207L15.0525 13.1808C15.2128 12.4516 14.7351 11.7338 13.9848 11.578C13.2345 11.4222 12.496 11.8865 12.3357 12.6157C12.3357 12.6157 9.15823 26.91 9.15823 27.0399C8.97654 27.7348 9.40833 28.4411 10.1233 28.6177C10.1308 28.6198 10.1394 28.6219 10.1468 28.6229H10.2206C10.9345 28.8026 11.6634 28.3851 11.8473 27.6912C11.8505 27.6797 11.8537 27.6683 11.8558 27.6559C11.8537 27.634 11.8537 27.6122 11.8558 27.5914C11.8954 27.4232 12.2962 25.5212 12.2962 25.5212C12.5997 24.0857 13.7903 22.9856 15.2802 22.7633C15.5869 22.7176 16.8759 22.6335 16.8759 22.6335C22.442 22.0944 26.5045 17.2714 25.9487 11.8616C25.4421 6.92753 21.2365 3.12881 16.1341 3Z" fill="#1E1E1E"/>
<path d="M16.7486 25.7101C15.8348 25.5252 14.9413 26.0955 14.751 26.9826C14.7489 26.9909 14.7478 26.9992 14.7457 27.0075C14.548 27.8894 15.123 28.7609 16.0314 28.9531C16.0325 28.9531 16.0336 28.9531 16.0347 28.9541H16.0817C16.9709 29.1629 17.8655 28.6311 18.0792 27.7679C18.0814 27.7616 18.0824 27.7544 18.0846 27.7481V27.6578C18.2417 26.7665 17.656 25.9116 16.7486 25.7101Z" fill="#E6007A"/>
</svg>
