<svg width="32" height="32" viewBox="0 0 32 32" fill="none" xmlns="http://www.w3.org/2000/svg">
<g clip-path="url(#clip0_1_14350)">
<path d="M16 32C24.8366 32 32 24.8366 32 16C32 7.16344 24.8366 0 16 0C7.16344 0 0 7.16344 0 16C0 24.8366 7.16344 32 16 32Z" fill="url(#paint0_linear_1_14350)"/>
<path d="M16 0.34973C19.0953 0.34973 22.1212 1.2676 24.6948 2.98728C27.2685 4.70695 29.2744 7.15119 30.459 10.0109C31.6435 12.8706 31.9534 16.0174 31.3496 19.0532C30.7457 22.0891 29.2551 24.8777 27.0664 27.0664C24.8777 29.2551 22.0891 30.7457 19.0532 31.3496C16.0174 31.9534 12.8706 31.6435 10.0109 30.459C7.1512 29.2744 4.70696 27.2685 2.98728 24.6948C1.26761 22.1212 0.349737 19.0953 0.349737 16C0.35443 11.8507 2.0048 7.87275 4.93878 4.93877C7.87276 2.00479 11.8507 0.354423 16 0.34973ZM16 0C12.8355 0 9.74207 0.938384 7.11088 2.69649C4.4797 4.45459 2.42894 6.95345 1.21793 9.87706C0.0069325 12.8007 -0.309921 16.0177 0.307443 19.1214C0.924806 22.2251 2.44866 25.0761 4.6863 27.3137C6.92394 29.5513 9.77487 31.0752 12.8786 31.6926C15.9823 32.3099 19.1993 31.9931 22.1229 30.7821C25.0466 29.5711 27.5454 27.5203 29.3035 24.8891C31.0616 22.2579 32 19.1645 32 16C32 11.7565 30.3143 7.68687 27.3137 4.68629C24.3131 1.68571 20.2435 0 16 0V0Z" fill="#2D2D3D"/>
<path d="M20.1646 7.51913L7.8689 24.8292H11.6439L24.0034 7.51913H20.1646Z" fill="white"/>
<path d="M12.0372 7.51913L15.6549 12.6198L13.7674 15.402L8.18347 7.51913H12.0372Z" fill="url(#paint1_linear_1_14350)"/>
<path d="M20.5309 24.8306L16.52 19.189L18.4075 16.484L24.306 24.8306H20.5309Z" fill="url(#paint2_linear_1_14350)"/>
</g>
<defs>
<linearGradient id="paint0_linear_1_14350" x1="20.6401" y1="-3.29025" x2="13.6262" y2="25.8684" gradientUnits="userSpaceOnUse">
<stop stop-color="#2C2C3D"/>
<stop offset="1" stop-color="#1A1A27"/>
</linearGradient>
<linearGradient id="paint1_linear_1_14350" x1="10.8127" y1="8.89356" x2="15.8847" y2="15.1245" gradientUnits="userSpaceOnUse">
<stop stop-color="white"/>
<stop offset="1" stop-color="white" stop-opacity="0.55"/>
</linearGradient>
<linearGradient id="paint2_linear_1_14350" x1="21.499" y1="23.4419" x2="15.2788" y2="14.9084" gradientUnits="userSpaceOnUse">
<stop stop-color="#6966FF"/>
<stop offset="1" stop-color="#6966FF" stop-opacity="0.36"/>
</linearGradient>
<clipPath id="clip0_1_14350">
<rect width="32" height="32" fill="white"/>
</clipPath>
</defs>
</svg>
