<svg width="32" height="32" viewBox="0 0 32 32" fill="none" xmlns="http://www.w3.org/2000/svg">
<g clip-path="url(#clip0_528_49)">
<circle cx="16" cy="16" r="16" fill="#2775CA"/>
<circle cx="16" cy="16" r="12" stroke="white" stroke-width="2"/>
<rect x="14" y="1" width="4" height="30" fill="#2775CA"/>
<path d="M16.4022 20.7639C17.7758 20.7639 18.787 20.2454 19.4356 19.2083L21 20.6083C20.6312 21.3731 20.0461 21.963 19.2448 22.3778C18.4436 22.7926 17.5024 23 16.4213 23C14.9587 23 13.7122 22.6111 12.682 21.8333C11.6645 21.0426 10.9587 19.9472 10.5644 18.5472H9V16.8361H10.2782C10.2528 16.4731 10.2401 16.1944 10.2401 16C10.2401 15.6889 10.2464 15.462 10.2591 15.3194H9V13.6278H10.5262C10.8951 12.1759 11.5946 11.0417 12.6248 10.225C13.6677 9.40833 14.9396 9 16.4404 9C17.5087 9 18.4436 9.21389 19.2448 9.64167C20.0461 10.0565 20.6312 10.6398 21 11.3917L19.4356 12.7917C18.7615 11.7546 17.7758 11.2361 16.4785 11.2361C14.8633 11.2361 13.8076 12.0333 13.3116 13.6278H17.6804V15.3194H13.0064C12.9936 15.462 12.9873 15.6889 12.9873 16C12.9873 16.1944 13 16.4731 13.0254 16.8361H17.6804V18.5472H13.3498C13.6041 19.2731 13.9857 19.8241 14.4944 20.2C15.0159 20.5759 15.6518 20.7639 16.4022 20.7639Z" fill="white"/>
</g>
<defs>
<clipPath id="clip0_528_49">
<rect width="32" height="32" fill="white"/>
</clipPath>
</defs>
</svg>
