<svg width="32" height="32" viewBox="0 0 32 32" fill="none" xmlns="http://www.w3.org/2000/svg">
<circle cx="16" cy="16" r="16" fill="url(#paint0_linear_7773_55454)"/>
<path fill-rule="evenodd" clip-rule="evenodd" d="M14.2786 7.61914H12.3033V9.65088H14.2786V7.61914ZM9.42501 7.61914H7.39328V9.65088H9.42501V7.61914ZM9.31215 14.6174V12.5857H7.2804V14.6174H9.31215ZM7.95765 23.8167H8.74777V23.0266H7.95765V23.8167ZM7.39328 19.7532H9.42501V17.7779H7.39328V19.7532ZM12.9805 23.8167H13.7707V23.0266H12.9805V23.8167ZM12.9805 19.076H13.7707V18.2858H12.9805V19.076ZM12.3033 14.7303H14.335V12.6985H12.3033V14.7303ZM17.8906 23.8167H18.6807V23.0266H17.8906V23.8167ZM17.8906 19.076H18.6807V18.2858H17.8906V19.076ZM17.8906 14.053H18.6807V13.2629H17.8906V14.053ZM17.3827 9.70732H19.4144V7.67558H17.3827V9.70732ZM22.97 23.8167H23.7601V23.0266H22.97V23.8167ZM22.97 19.076H23.7601V18.2858H22.97V19.076ZM22.97 14.053H23.7601V13.2629H22.97V14.053ZM22.97 9.08651H23.7601V8.29639H22.97V9.08651Z" fill="white"/>
<defs>
<linearGradient id="paint0_linear_7773_55454" x1="3.5" y1="3.5" x2="29" y2="29" gradientUnits="userSpaceOnUse">
<stop stop-color="#25487A"/>
<stop offset="1" stop-color="#021425"/>
</linearGradient>
</defs>
</svg>
