<svg width="32" height="32" viewBox="0 0 32 32" fill="none" xmlns="http://www.w3.org/2000/svg">
<path fill-rule="evenodd" clip-rule="evenodd" d="M16 31.9999C7.2 31.9999 0 24.7999 0 15.9199C0.08 7.11993 7.2 -0.0800721 16.08 -7.21359e-05C24.88 0.0799279 32 7.19993 32 16.1599C31.92 24.8799 24.8 31.9999 16 31.9999Z" fill="#0090FF"/>
<path fill-rule="evenodd" clip-rule="evenodd" d="M17.5201 14.0799L17.0401 16.6399L21.6001 17.2799L21.2801 18.4799L16.8001 17.8399C16.4801 18.8799 16.3201 19.9999 15.9201 20.9599C15.5201 22.0799 15.1201 23.1999 14.6401 24.2399C14.0001 25.5999 12.8801 26.5599 11.3601 26.7999C10.4801 26.9599 9.52007 26.8799 8.80007 26.3199C8.56007 26.1599 8.32007 25.8399 8.32007 25.5999C8.32007 25.2799 8.48007 24.8799 8.72007 24.7199C8.88007 24.6399 9.28007 24.7199 9.52007 24.7999C9.76007 25.0399 10.0001 25.3599 10.1601 25.6799C10.6401 26.3199 11.2801 26.3999 11.9201 25.9199C12.6401 25.2799 13.0401 24.3999 13.2801 23.5199C13.7601 21.5999 14.2401 19.7599 14.6401 17.8399V17.5199L10.4001 16.8799L10.5601 15.6799L14.9601 16.3199L15.5201 13.8399L10.9601 13.1199L11.1201 11.8399L15.8401 12.4799C16.0001 11.9999 16.0801 11.5999 16.2401 11.1999C16.6401 9.75992 17.0401 8.31992 18.0001 7.03992C18.9601 5.75992 20.0801 4.95992 21.7601 5.03992C22.4801 5.03992 23.2001 5.27992 23.6801 5.83992C23.7601 5.91992 23.9201 6.07992 23.9201 6.23992C23.9201 6.55992 23.9201 6.95992 23.6801 7.19992C23.3601 7.43992 22.9601 7.35992 22.6401 7.03992C22.4001 6.79992 22.2401 6.55992 22.0001 6.31992C21.5201 5.67992 20.8001 5.59992 20.2401 6.15992C19.8401 6.55992 19.4401 7.11992 19.2001 7.67992C18.6401 9.35992 18.2401 11.1199 17.6801 12.8799L22.0801 13.5199L21.7601 14.7199L17.5201 14.0799Z" fill="white"/>
</svg>
