<svg width="32" height="32" viewBox="0 0 32 32" fill="none" xmlns="http://www.w3.org/2000/svg">
<circle cx="16" cy="16" r="16" fill="black"/>
<path d="M9.53518 19.1663C10.592 19.0652 11.6236 18.9641 12.651 18.8673C12.7646 19.2378 12.8489 19.5999 12.9794 19.941C13.4425 21.141 14.3478 21.7768 15.6067 21.8989C16.4531 21.9831 17.291 21.941 18.0783 21.562C18.9036 21.1663 19.3878 20.3705 19.312 19.5368C19.2657 19.0357 19.0004 18.6778 18.5836 18.4168C18.0446 18.0841 17.4341 17.941 16.832 17.7726C15.7457 17.4694 14.651 17.1957 13.5773 16.8547C12.5625 16.5305 11.6446 16.021 10.9836 15.1452C10.0489 13.9031 9.8636 12.5473 10.3731 11.0905C10.4236 10.9431 10.3941 10.8673 10.2931 10.7662C9.47202 9.95361 8.65518 9.13255 7.83412 8.31571C7.77518 8.25676 7.69939 8.21466 7.63623 8.16834C8.40255 7.40624 9.13097 6.68202 9.87202 5.94097C10.5036 6.57676 11.152 7.22518 11.8004 7.87781C12.0446 8.12203 12.2846 8.36624 12.5331 8.60203C12.5752 8.64413 12.6762 8.67782 12.7225 8.65676C13.8846 8.15992 15.1057 8.04624 16.352 8.08413C17.3625 8.1136 18.3478 8.25676 19.291 8.64413C19.3457 8.66939 19.4636 8.62729 19.5099 8.57676C20.3646 7.73466 21.211 6.88413 22.0573 6.03781C22.091 6.00413 22.1078 5.9536 22.1288 5.91992C22.8867 6.68202 23.611 7.41045 24.352 8.15571C23.792 8.7115 23.2067 9.29255 22.6173 9.87782C22.3352 10.1599 22.0573 10.4462 21.7667 10.7241C21.6615 10.8252 21.6362 10.9052 21.6994 11.0484C21.9604 11.6378 22.0783 12.261 22.0952 12.9347C21.0173 12.9768 19.9478 13.0147 18.8741 13.0568C18.8194 12.8547 18.7773 12.6652 18.7225 12.4799C18.4657 11.5915 17.8973 11.0315 16.9794 10.8505C16.1331 10.6862 15.2867 10.6862 14.4615 10.9599C14.2004 11.0441 13.9394 11.1747 13.7162 11.3347C13.0468 11.7978 12.9962 12.7157 13.6278 13.2252C13.9225 13.461 14.2762 13.6547 14.6383 13.7684C15.6531 14.0841 16.6889 14.341 17.712 14.6315C18.6173 14.8884 19.5225 15.1494 20.3394 15.6294C21.6825 16.421 22.4067 17.6041 22.5373 19.1536C22.6257 20.2105 22.4488 21.2084 21.8931 22.1431C22.3099 22.5557 22.7267 22.9641 23.1352 23.3768C23.5478 23.7894 23.9562 24.202 24.3604 24.6105C23.632 25.3389 22.9078 26.0673 22.1625 26.8126C21.6152 26.261 21.0678 25.7136 20.5204 25.162C20.2299 24.8673 19.931 24.581 19.6446 24.282C19.5478 24.181 19.4678 24.1726 19.3373 24.2147C17.312 24.8463 15.2825 24.8715 13.2446 24.2736C13.1857 24.2568 13.1183 24.2441 13.0678 24.2105C12.7478 23.9999 12.5331 24.0968 12.2762 24.3663C11.4973 25.2042 10.6762 25.9999 9.87623 26.8042C9.1436 26.0715 8.41518 25.3431 7.65728 24.581C7.92676 24.3241 8.21307 24.0547 8.49097 23.781C9.07202 23.2041 9.64886 22.6189 10.2341 22.042C10.331 21.9494 10.3436 21.882 10.2804 21.7599C9.87623 21.002 9.66149 20.1852 9.54781 19.3389C9.53518 19.2926 9.53939 19.242 9.53518 19.1663Z" fill="white"/>
</svg>
