<svg width="32" height="32" viewBox="0 0 32 32" fill="none" xmlns="http://www.w3.org/2000/svg">
<g clip-path="url(#clip0_497_136)">
<path d="M16 32C24.8366 32 32 24.8366 32 16C32 7.16344 24.8366 0 16 0C7.16344 0 0 7.16344 0 16C0 24.8366 7.16344 32 16 32Z" fill="black"/>
<path d="M16 32C24.8366 32 32 24.8366 32 16C32 7.16344 24.8366 0 16 0C7.16344 0 0 7.16344 0 16C0 24.8366 7.16344 32 16 32Z" fill="black"/>
<g clip-path="url(#clip1_497_136)">
<path fill-rule="evenodd" clip-rule="evenodd" d="M25.4942 9.35877C23.4864 7.35105 20.2195 7.35113 18.2117 9.35877L12.3588 15.2117C11.749 15.8215 10.948 16.1264 10.147 16.1264C9.42083 16.1264 8.69467 15.8758 8.11094 15.3745C7.55819 15.255 6.98151 15.0957 6.51405 14.8871C6.05934 14.6843 5.55915 14.3686 5.10728 14.0499C5.30371 15.0001 5.76989 15.9052 6.50583 16.6412C8.51368 18.6489 11.7805 18.6489 13.7883 16.6412L19.6412 10.7882C20.7514 9.67813 22.4953 9.57843 23.7192 10.4895C23.7502 10.4954 23.7814 10.5014 23.813 10.5076C24.5448 10.6513 25.4595 10.8765 26.1365 11.2009C26.3515 11.3039 26.5763 11.4331 26.8008 11.5762C26.5684 10.7637 26.1329 9.99751 25.4942 9.35877ZM26.9415 12.2227C26.6032 11.9846 26.2558 11.7663 25.9384 11.6142C25.4825 11.3958 24.8951 11.2211 24.3283 11.0874C25.2768 12.3132 25.189 14.0874 24.0647 15.2117C23.455 15.8214 22.6538 16.1263 21.853 16.1263C21.0519 16.1263 20.2511 15.8215 19.6412 15.2117L21.0417 13.9167L16.9117 15.3411L18.2117 16.6412C20.2196 18.6489 23.4864 18.6489 25.4942 16.6412C26.6959 15.4394 27.1784 13.7866 26.9415 12.2227ZM7.93528 10.7882C6.85392 11.8696 6.73139 13.5523 7.56769 14.7699C7.25578 14.6834 6.95803 14.5833 6.70077 14.4686C6.16556 14.2298 5.54233 13.81 5.01682 13.4177C4.8995 11.9636 5.39584 10.4687 6.50583 9.35873C8.51364 7.351 11.7805 7.35109 13.7883 9.35873L15.0883 10.6588L10.9583 12.0833L12.3588 10.7882C11.1393 9.56876 9.15491 9.56863 7.93528 10.7882Z" fill="url(#paint0_linear_497_136)"/>
<path d="M7 21.0251H7.87662V22.1941H8.92604V21.0251H9.80266V23.9623H8.92604V22.8687H7.87662V23.9623H7V21.0251Z" fill="url(#paint1_linear_497_136)"/>
<path d="M11.7422 21C12.6694 21 13.3521 21.6327 13.3521 22.4916C13.3521 23.3547 12.6694 24 11.7422 24C10.815 24 10.1322 23.3589 10.1322 22.4916C10.1322 21.6285 10.815 21 11.7422 21ZM11.7548 21.7291C11.3629 21.7291 11.0299 22.0517 11.0299 22.4958C11.0299 22.9399 11.3671 23.2709 11.7548 23.2709C12.1426 23.2709 12.4545 22.9399 12.4545 22.4958C12.4545 22.0517 12.1426 21.7291 11.7548 21.7291Z" fill="url(#paint2_linear_497_136)"/>
<path d="M15.0965 21C16.0237 21 16.7065 21.6327 16.7065 22.4916C16.7065 23.3547 16.0237 24 15.0965 24C14.1693 24 13.4866 23.3589 13.4866 22.4916C13.4866 21.6285 14.1693 21 15.0965 21ZM15.1092 21.7291C14.7172 21.7291 14.3843 22.0517 14.3843 22.4958C14.3843 22.9399 14.7214 23.2709 15.1092 23.2709C15.4969 23.2709 15.8088 22.9399 15.8088 22.4958C15.8088 22.0517 15.4969 21.7291 15.1092 21.7291Z" fill="url(#paint3_linear_497_136)"/>
<path d="M19.9801 23.9623H18.9307L18.2438 22.8897L17.9108 23.2584V23.9623H17.0342V21.0251H17.9108V22.1564L18.9012 21.0251H19.9127L18.8422 22.2193L19.9801 23.9623Z" fill="url(#paint4_linear_497_136)"/>
<path d="M20.2404 21.0251H22.6553V21.6955H21.117V22.1564H22.512V22.8268H21.117V23.2919H22.6974V23.9623H20.2404V21.0251Z" fill="url(#paint5_linear_497_136)"/>
<path d="M24.4111 21.0251C25.3678 21.0251 26 21.6075 26 22.4916C26 23.3757 25.3552 23.9623 24.3816 23.9623H23.1173V21.0251H24.4111ZM24.4364 23.2793C24.8368 23.2793 25.1065 22.9693 25.1065 22.5C25.1065 22.0265 24.8157 21.7123 24.3943 21.7123H23.9939V23.2793H24.4364Z" fill="url(#paint6_linear_497_136)"/>
</g>
</g>
<defs>
<linearGradient id="paint0_linear_497_136" x1="11.6458" y1="9.33335" x2="20.125" y2="17.5833" gradientUnits="userSpaceOnUse">
<stop stop-color="#A2F558"/>
<stop offset="0.505236" stop-color="#00ABDF"/>
<stop offset="1" stop-color="#299683"/>
</linearGradient>
<linearGradient id="paint1_linear_497_136" x1="7" y1="22.6364" x2="25.9998" y2="22.3501" gradientUnits="userSpaceOnUse">
<stop stop-color="#A2F558"/>
<stop offset="1" stop-color="#01ACDE"/>
</linearGradient>
<linearGradient id="paint2_linear_497_136" x1="7" y1="22.6364" x2="25.9998" y2="22.3501" gradientUnits="userSpaceOnUse">
<stop stop-color="#A2F558"/>
<stop offset="1" stop-color="#01ACDE"/>
</linearGradient>
<linearGradient id="paint3_linear_497_136" x1="7" y1="22.6364" x2="25.9998" y2="22.3501" gradientUnits="userSpaceOnUse">
<stop stop-color="#A2F558"/>
<stop offset="1" stop-color="#01ACDE"/>
</linearGradient>
<linearGradient id="paint4_linear_497_136" x1="7" y1="22.6364" x2="25.9998" y2="22.3501" gradientUnits="userSpaceOnUse">
<stop stop-color="#A2F558"/>
<stop offset="1" stop-color="#01ACDE"/>
</linearGradient>
<linearGradient id="paint5_linear_497_136" x1="7" y1="22.6364" x2="25.9998" y2="22.3501" gradientUnits="userSpaceOnUse">
<stop stop-color="#A2F558"/>
<stop offset="1" stop-color="#01ACDE"/>
</linearGradient>
<linearGradient id="paint6_linear_497_136" x1="7" y1="22.6364" x2="25.9998" y2="22.3501" gradientUnits="userSpaceOnUse">
<stop stop-color="#A2F558"/>
<stop offset="1" stop-color="#01ACDE"/>
</linearGradient>
<clipPath id="clip0_497_136">
<rect width="32" height="32" fill="white"/>
</clipPath>
<clipPath id="clip1_497_136">
<rect width="22" height="22" fill="white" transform="translate(5 2)"/>
</clipPath>
</defs>
</svg>
