<svg width="24" height="24" viewBox="0 0 24 24" fill="none" xmlns="http://www.w3.org/2000/svg"><path fill-rule="evenodd" clip-rule="evenodd" d="M16.2352 3.37473C17.5198 2.49941 19.0805 2 21 2C21.5523 2 22 2.44772 22 3C22 3.55228 21.5523 4 21 4C19.4511 4 18.2891 4.39537 17.3614 5.02749C16.4199 5.66903 15.6607 6.59508 14.9925 7.74318C14.9907 7.74627 14.9889 7.74934 14.9871 7.7524C15.3684 8.08979 15.6632 8.52271 15.8341 9.0137C15.8881 9.00469 15.9435 9 16 9H16.375C16.9273 9 17.375 9.44772 17.375 10C17.375 10.5523 16.9273 11 16.375 11H16C15.9435 11 15.8881 10.9953 15.8341 10.9863C15.4262 12.1586 14.3113 13 13 13C12.8947 13 12.7906 12.9946 12.6881 12.984C12.6823 13.0017 12.6759 13.0193 12.6691 13.0368C11.8395 15.1535 10.9092 17.39 9.46243 19.0847C7.96463 20.8392 5.92722 22 3 22C2.44772 22 2 21.5523 2 21C2 20.4477 2.44772 20 3 20C5.29881 20 6.79457 19.1294 7.94135 17.7861C9.13917 16.3831 9.96487 14.4556 10.807 12.307C10.8308 12.2463 10.8599 12.1892 10.8935 12.136C10.5699 11.8169 10.3185 11.4247 10.1659 10.9863C10.1119 10.9953 10.0565 11 10 11H9.5C8.94772 11 8.5 10.5523 8.5 10C8.5 9.44772 8.94772 9 9.5 9H10C10.0565 9 10.1119 9.00469 10.1659 9.0137C10.5738 7.84135 11.6887 7 13 7C13.0524 7 13.1045 7.00135 13.1563 7.004C13.1785 6.91252 13.2142 6.82268 13.264 6.73716C14.022 5.43466 14.9645 4.24062 16.2352 3.37473ZM13.6077 8.09399C13.416 8.03294 13.2119 8 13 8C11.8954 8 11 8.89543 11 10C11 10.7113 11.3714 11.3359 11.9308 11.6905C11.9886 11.7019 12.0462 11.7186 12.1029 11.7409C12.204 11.7805 12.295 11.8347 12.3744 11.9002C12.5712 11.965 12.7815 12 13 12C14.1046 12 15 11.1046 15 10C15 9.22001 14.5535 8.54431 13.9022 8.21455C13.8072 8.19248 13.7139 8.15605 13.6252 8.10445C13.6193 8.10101 13.6135 8.09752 13.6077 8.09399ZM2 9C1.44772 9 1 9.44772 1 10C1 10.5523 1.44772 11 2 11H2.5C3.05228 11 3.5 10.5523 3.5 10C3.5 9.44772 3.05228 9 2.5 9H2ZM5.5 9C4.94772 9 4.5 9.44772 4.5 10C4.5 10.5523 4.94772 11 5.5 11H6.5C7.05228 11 7.5 10.5523 7.5 10C7.5 9.44772 7.05228 9 6.5 9H5.5ZM18.625 9C18.0727 9 17.625 9.44772 17.625 10C17.625 10.5523 18.0727 11 18.625 11H19.375C19.9273 11 20.375 10.5523 20.375 10C20.375 9.44772 19.9273 9 19.375 9H18.625ZM21.625 9C21.0727 9 20.625 9.44772 20.625 10C20.625 10.5523 21.0727 11 21.625 11H22C22.5523 11 23 10.5523 23 10C23 9.44772 22.5523 9 22 9H21.625Z" fill="#05f283"></path></svg>
