<svg width="24" height="24" viewBox="0 0 24 24" fill="none" xmlns="http://www.w3.org/2000/svg"><path fill-rule="evenodd" clip-rule="evenodd" d="M3.79289 15.7929C4.18342 15.4024 4.81658 15.4024 5.20711 15.7929L7.5 18.0858L9.79289 15.7929C10.1834 15.4024 10.8166 15.4024 11.2071 15.7929C11.5976 16.1834 11.5976 16.8166 11.2071 17.2071L8.20711 20.2071C7.81658 20.5976 7.18342 20.5976 6.79289 20.2071L3.79289 17.2071C3.40237 16.8166 3.40237 16.1834 3.79289 15.7929Z" fill="#05f283"></path><path fill-rule="evenodd" clip-rule="evenodd" d="M7.5 3.5C8.05228 3.5 8.5 3.94772 8.5 4.5V19.5C8.5 20.0523 8.05228 20.5 7.5 20.5C6.94772 20.5 6.5 20.0523 6.5 19.5V4.5C6.5 3.94772 6.94772 3.5 7.5 3.5Z" fill="#05f283"></path><path fill-rule="evenodd" clip-rule="evenodd" d="M15.7929 3.79289C16.1834 3.40237 16.8166 3.40237 17.2071 3.79289L20.2071 6.79289C20.5976 7.18342 20.5976 7.81658 20.2071 8.20711C19.8166 8.59763 19.1834 8.59763 18.7929 8.20711L16.5 5.91421L14.2071 8.20711C13.8166 8.59763 13.1834 8.59763 12.7929 8.20711C12.4024 7.81658 12.4024 7.18342 12.7929 6.79289L15.7929 3.79289Z" fill="#05f283"></path><path fill-rule="evenodd" clip-rule="evenodd" d="M16.5 3.5C17.0523 3.5 17.5 3.94772 17.5 4.5V19.5C17.5 20.0523 17.0523 20.5 16.5 20.5C15.9477 20.5 15.5 20.0523 15.5 19.5V4.5C15.5 3.94772 15.9477 3.5 16.5 3.5Z" fill="#05f283"></path></svg>