<svg width="24" height="24" viewBox="0 0 281 280" fill="currentColor" xmlns="http://www.w3.org/2000/svg"><path fill-rule="evenodd" clip-rule="evenodd" d="M0.000244141 280L269.058 55.952C272.354 53.0785 275.024 49.5586 276.903 45.6105C278.782 41.6624 279.83 37.3703 279.982 33.0005C280.134 28.6306 279.386 24.2761 277.785 20.2072C276.184 16.1382 273.765 12.4415 270.676 9.34636C267.58 6.2514 263.881 3.8261 259.808 2.22153C255.734 0.616972 251.375 -0.132578 247 0.0191954C242.625 0.170969 238.327 1.22085 234.375 3.1038C230.423 4.98676 226.9 7.66241 224.026 10.9645L0.000244141 280ZM129.796 41.3583L16.5079 126.317L101.474 13.0388C103.211 10.7227 105.426 8.80675 107.968 7.42022C110.51 6.03368 113.321 5.20893 116.209 5.00182C119.098 4.79471 121.996 5.21001 124.71 6.21966C127.424 7.2293 129.889 8.80979 131.94 10.8542C133.994 12.9022 135.583 15.3677 136.6 18.0837C137.618 20.7998 138.038 23.7029 137.835 26.5961C137.632 29.4892 136.809 32.3047 135.422 34.8518C134.035 37.3989 132.116 39.6178 129.796 41.3583ZM266.958 178.534L153.67 263.492L238.636 150.214C240.374 147.898 242.589 145.982 245.131 144.595C247.673 143.209 250.482 142.384 253.371 142.177C256.259 141.97 259.158 142.385 261.872 143.395C264.586 144.404 267.052 145.985 269.102 148.029C271.156 150.077 272.746 152.543 273.763 155.259C274.78 157.975 275.201 160.878 274.997 163.771C274.794 166.664 273.97 169.48 272.583 172.027C271.196 174.574 269.278 176.793 266.958 178.534Z" fill="#05f283"></path></svg>