<svg width="32" height="32" viewBox="0 0 32 32" fill="none" xmlns="http://www.w3.org/2000/svg">
<g clip-path="url(#clip0_494_83)">
<path d="M16 32C24.8366 32 32 24.8366 32 16C32 7.16344 24.8366 0 16 0C7.16344 0 0 7.16344 0 16C0 24.8366 7.16344 32 16 32Z" fill="#1EEFA4"/>
<path fill-rule="evenodd" clip-rule="evenodd" d="M20.8571 8.28571H11.1429C9.5649 8.28571 8.28571 9.5649 8.28571 11.1429V20.8571C8.28571 22.4351 9.5649 23.7143 11.1429 23.7143H20.8571C22.4351 23.7143 23.7143 22.4351 23.7143 20.8571V11.1429C23.7143 9.5649 22.4351 8.28571 20.8571 8.28571ZM11.1429 6C8.30254 6 6 8.30254 6 11.1429V20.8571C6 23.6975 8.30254 26 11.1429 26H20.8571C23.6975 26 26 23.6975 26 20.8571V11.1429C26 8.30254 23.6975 6 20.8571 6H11.1429Z" fill="black"/>
<circle cx="20" cy="20" r="2" fill="black"/>
<circle cx="20" cy="15" r="2" fill="black"/>
</g>
<defs>
<clipPath id="clip0_494_83">
<rect width="32" height="32" fill="white"/>
</clipPath>
</defs>
</svg>
