<svg width="33" height="32" viewBox="0 0 33 32" fill="none" xmlns="http://www.w3.org/2000/svg">
<circle cx="16" cy="16" r="16" fill="white"/>
<path d="M3.88016 5.52829C4.07884 5.27936 4.28948 5.03759 4.50012 4.79823C4.5097 4.78626 4.53124 4.78387 4.54082 4.7719C4.55996 4.74797 4.59108 4.73361 4.61023 4.70966L4.62938 4.68573C4.77539 4.54929 4.93337 4.40328 5.1129 4.27402C5.74961 3.7905 6.41026 3.42188 7.10921 3.18012C9.34488 2.395 11.8343 2.87852 13.7875 4.72164C16.5139 7.27805 16.2697 11.3928 14.0939 14.1287C11.3436 18.2075 6.61851 23.8972 13.1603 28.9956C14.338 29.9124 15.2093 30.6688 18.9147 31.7388C16.4899 32.1864 14.2447 32.0476 11.7433 31.4085C9.97438 30.4104 7.19298 28.2728 6.2451 25.3837C4.81369 21.0033 8.76322 14.4566 10.671 11.9361C13.292 8.44616 9.05046 4.66897 5.92913 8.88659C4.29666 11.084 1.44342 17.3051 2.4344 21.9176C3.01367 24.5339 3.78681 26.4416 6.85308 29.0603C6.28579 28.7252 5.73285 28.3446 5.19667 27.9185C-1.92444 21.2833 -1.09624 11.0265 3.88016 5.52829Z" fill="url(#paint0_linear_6225_51938)"/>
<path d="M28.1228 26.4718C27.9241 26.7207 27.7135 26.9624 27.5029 27.2018C27.4933 27.2138 27.4717 27.2162 27.4622 27.2281C27.4431 27.252 27.4119 27.2664 27.3928 27.2904L27.3736 27.3143C27.2276 27.4508 27.0696 27.5968 26.8901 27.726C26.2534 28.2096 25.5903 28.5781 24.8938 28.8199C22.6581 29.605 20.1688 29.1215 18.2155 27.2784C15.4891 24.7219 15.7333 20.6073 17.9091 17.8713C20.6594 13.7926 25.3846 8.10285 18.8403 3.00436C17.665 2.0876 16.7913 1.3312 13.0859 0.261239C15.5107 -0.186374 17.7559 -0.0475425 20.2573 0.591563C22.0262 1.58972 24.8076 3.72964 25.7555 6.61639C27.1869 10.9968 23.2374 17.5434 21.3297 20.064C18.7086 23.5539 22.9502 27.3311 26.0715 23.1134C27.704 20.9161 30.5572 14.695 29.5662 10.0824C28.9869 7.46614 28.2138 5.55839 25.1475 2.93974C25.7148 3.27485 26.2678 3.65544 26.8039 4.08151C33.9251 10.7144 33.0993 20.9736 28.1228 26.4718Z" fill="url(#paint1_linear_6225_51938)"/>
<defs>
<linearGradient id="paint0_linear_6225_51938" x1="5.44713e-05" y1="17.4104" x2="32.0032" y2="17.4104" gradientUnits="userSpaceOnUse">
<stop stop-color="#0082FA"/>
<stop offset="1" stop-color="#00F2FE"/>
</linearGradient>
<linearGradient id="paint1_linear_6225_51938" x1="-0.000183555" y1="14.5921" x2="32.003" y2="14.5921" gradientUnits="userSpaceOnUse">
<stop stop-color="#0082FA"/>
<stop offset="1" stop-color="#00F2FE"/>
</linearGradient>
</defs>
</svg>
