<svg width="32" height="32" viewBox="0 0 32 32" fill="none" xmlns="http://www.w3.org/2000/svg">
<g clip-path="url(#clip0_1_13297)">
<path d="M16 32C24.8366 32 32 24.8366 32 16C32 7.16344 24.8366 0 16 0C7.16344 0 0 7.16344 0 16C0 24.8366 7.16344 32 16 32Z" fill="white"/>
<path d="M26.0194 19.5647C25.9086 19.7093 24.8224 21.1263 24.5895 21.4255C24.5288 21.3847 24.4682 21.3441 24.4076 21.3037C24.38 21.3403 23.2784 22.8755 23.2784 22.8755L22.9312 22.5742C22.8292 22.6514 21.7103 24.4219 21.5973 24.6154L21.5742 24.6439C21.4362 24.5926 21.299 24.5393 21.1628 24.484C20.848 24.366 20.5359 24.2424 20.2226 24.1212C20.2037 24.1575 20.1854 24.1944 20.1674 24.2313C20.1074 24.3525 20.0489 24.4744 19.9901 24.5962C19.9496 24.6781 19.9096 24.7604 19.8715 24.8438C19.5987 24.7871 19.3295 24.7144 19.0577 24.6535C18.949 24.6271 18.8404 24.6015 18.7318 24.5767C18.6742 24.6805 18.6202 24.7865 18.5653 24.8918L18.5259 24.9119L18.5119 24.9101C18.36 24.881 18.2064 24.8627 18.0536 24.8399C17.9108 24.8195 17.7673 24.803 17.6251 24.779C17.2887 24.7246 16.9505 24.6811 16.6135 24.6301C16.5604 24.622 16.5076 24.6127 16.4548 24.6055C16.3964 24.6097 16.3406 24.631 16.2942 24.6667C16.1082 24.7772 15.923 24.8891 15.7337 24.9938C15.6645 24.896 9.11493 20.9507 8.88095 20.8761C8.81463 20.8512 8.83624 20.7713 8.83114 20.7173C8.83445 20.5928 8.83535 20.4683 8.83475 20.344C8.83475 20.2894 8.83504 20.2348 8.83535 20.1808C8.74171 20.1256 5.58783 18.299 5.58783 18.299L5.59803 21.7397L5.17003 21.9933L5.16648 21.9913L5.16141 23.5654L6.18364 24.1552L6.17678 25.091L10.6325 27.2337C10.6964 27.1977 12.476 26.1521 12.476 26.1521L12.9918 26.5075L15.7841 28.1267L26.0275 22.209C26.0272 22.1706 26.0197 19.6592 26.0194 19.5647Z" fill="#C95064"/>
<path d="M8.56392 20.0276L5.1665 21.9912L5.16661 22.0924C6.55917 21.4033 7.84969 20.7727 8.83476 20.3171L8.83535 20.1807L8.56392 20.0276Z" fill="#DB5B54"/>
<path d="M8.56391 20.0276L5.58783 18.299L5.59543 20.8621V21.743C6.62485 21.1502 7.61821 20.5763 8.56391 20.0276" fill="#A24741"/>
<path d="M10.939 22.111L8.05499 23.477L9.51599 26.077L10.63 26.719L13.741 24.906L12.726 23.185L10.939 22.111Z" fill="#DB5B54"/>
<path d="M23.775 23.564L21.505 24.665L21.341 24.377L22.955 22.213L23.775 23.564Z" fill="#BB486E"/>
<path d="M6.39101 24.2749L5.16101 23.5649L5.16701 22.0919L6.79501 21.2939L8.05501 23.4769L6.39101 24.2749Z" fill="#BB486E"/>
<path d="M14.068 25.468L16.328 24.415L17.548 26.562L15.295 27.634L14.068 25.468Z" fill="#BB486E"/>
<path d="M21.8923 22.4049L21.5792 22.5825L22.9393 24.9798L23.2524 24.8021L21.8923 22.4049Z" fill="#B24A5B"/>
<path d="M6.39149 24.2748C6.68555 24.134 6.98028 23.9927 7.27566 23.8509C8.55951 23.2349 9.88709 22.5979 11.2318 21.9757L11.087 21.6626C9.73998 22.2858 8.41132 22.9233 7.12639 23.5399C6.75949 23.7159 6.39374 23.8913 6.02914 24.0659L6.39149 24.2748Z" fill="#AF3B55"/>
<path opacity="0.15" d="M16.7265 24.2292L12.7107 26.1016L12.8501 26.4007L16.866 24.5282L16.7265 24.2292Z" fill="black"/>
<path opacity="0.15" d="M14.3645 23.9128L9.27634 26.285L9.42212 26.5977L14.5103 24.2255L14.3645 23.9128Z" fill="white"/>
<path opacity="0.2" d="M5.58801 18.299L5.74101 18.388L5.58801 18.461V18.299Z" fill="white"/>
<path d="M11.4041 26.2676C10.1185 23.8749 8.22549 20.664 6.56922 18.0677L6.29102 18.2452C7.94023 20.8387 9.82618 24.0467 11.1187 26.4339L11.4041 26.2676Z" fill="#AA3C42"/>
<path d="M26.0236 20.9532C22.3734 22.7312 17.69 24.9649 13.4816 26.9348L13.6215 27.2337C17.7765 25.2887 22.3943 23.0868 26.0247 21.3197L26.0236 20.9532Z" fill="#BB524B"/>
<path opacity="0.15" d="M26.0202 19.8414C25.4703 20.1134 24.8744 20.4021 24.8674 20.4056L25.0047 20.689C25.0112 20.6859 25.5131 20.4427 26.0213 20.1922L26.0202 19.8414Z" fill="black"/>
<path opacity="0.15" d="M17.7656 24.3507L17.4665 24.5227L18.6643 26.6052L18.9633 26.4332L17.7656 24.3507Z" fill="white"/>
<path opacity="0.15" d="M18.1072 24.2502L17.8082 24.4222L19.0059 26.5047L19.305 26.3327L18.1072 24.2502Z" fill="black"/>
<path opacity="0.15" d="M19.7657 23.4467L19.4526 23.6244L20.8127 26.0217L21.1259 25.844L19.7657 23.4467Z" fill="white"/>
<path opacity="0.3" d="M21.045 23.1253L20.7319 23.303L22.092 25.7003L22.4052 25.5226L21.045 23.1253Z" fill="black"/>
<path opacity="0.15" d="M22.9554 22.2133L22.6605 22.3923L23.5091 23.7903L23.804 23.6113L22.9554 22.2133Z" fill="black"/>
<path opacity="0.15" d="M23.9803 21.4875L23.6889 21.6722L24.7321 23.3175L25.0235 23.1328L23.9803 21.4875Z" fill="white"/>
<path opacity="0.15" d="M25.023 23.133L25.315 22.948L24.273 21.302L23.986 21.496L25.023 23.133Z" fill="black"/>
<path opacity="0.15" d="M16.3798 24.519L16.0803 24.6903L17.5443 27.2499L17.8438 27.0786L16.3798 24.519Z" fill="black"/>
<path opacity="0.15" d="M14.8589 24.0194L14.5591 24.1901L16.5991 27.7747L16.899 27.6041L14.8589 24.0194Z" fill="black"/>
<path opacity="0.15" d="M15.6626 28.3204C15.1218 27.2795 13.9775 25.2819 12.6016 22.9767L12.8978 22.7999C14.277 25.1106 15.425 27.1148 15.9687 28.1613L15.6626 28.3204Z" fill="black"/>
<path opacity="0.6" d="M13.683 27.3297C12.7173 25.5941 11.6276 23.734 10.3515 21.643L10.646 21.4633C11.9245 23.5583 13.0165 25.4223 13.9845 27.162L13.683 27.3297Z" fill="#BD967F"/>
<path opacity="0.6" d="M7.7161 25.0388C9.25681 24.3035 10.8513 23.5542 12.4625 22.8087L12.3176 22.4956C10.6305 23.2762 8.96137 24.0611 7.35342 24.8296L7.7161 25.0388Z" fill="#BD967F"/>
<path opacity="0.6" d="M11.1142 26.4366C9.82846 24.0423 7.93097 20.8235 6.27133 18.2219L5.99313 18.3994C7.65105 20.9982 9.54667 24.2142 10.8289 26.6028L11.1142 26.4366Z" fill="#BD967F"/>
<path opacity="0.15" d="M25.3745 22.5853L26.0275 22.209L26.0271 22.0878C22.804 23.6921 18.4243 25.7825 14.5581 27.619L14.6997 27.9171C18.3247 26.1952 22.401 24.2501 25.554 22.6909L25.3745 22.5853Z" fill="black"/>
<path d="M9.84436 19.853C8.33903 20.5326 6.87307 21.2534 5.45536 21.9505L5.16605 22.0926L5.16498 22.4775L5.60758 22.2601C7.02277 21.5643 8.48615 20.8448 9.98632 20.1675L9.84436 19.853Z" fill="#AF3B55"/>
<path d="M5.27931 23.6335C5.4615 23.544 5.64381 23.4544 5.82624 23.3647C7.24168 22.6688 8.70533 21.9491 10.2058 21.2717L10.0638 20.9573C8.5582 21.637 7.092 22.3579 5.674 23.0551C5.50337 23.139 5.33293 23.2228 5.16269 23.3063L5.16196 23.5658L5.27931 23.6335Z" fill="#BB524B"/>
<path opacity="0.3" d="M6.02604 24.0642C5.84745 23.7379 5.54065 23.1817 5.16487 22.5178L5.16302 23.1871C5.27739 23.3914 5.38181 23.5791 5.47402 23.7458L6.02604 24.0642Z" fill="black"/>
<path opacity="0.15" d="M5.594 20.4775C6.3665 20.0942 7.1387 19.7242 7.89274 19.3767L7.74831 19.0634C7.04086 19.3895 6.31749 19.7351 5.59293 20.093L5.594 20.4775Z" fill="black"/>
<path opacity="0.6" d="M5.595 20.8625C6.41847 20.452 7.243 20.0562 8.04677 19.6856L7.90234 19.3723C7.14508 19.7214 6.36961 20.0929 5.59393 20.4777L5.595 20.8625Z" fill="#BD967F"/>
<path opacity="0.7" d="M8.95784 25.7549L9.51566 26.0766L9.4674 25.9902C8.33271 23.9595 6.92925 21.4478 5.5907 19.3026L5.59246 19.9326C6.75422 21.825 7.94846 23.9493 8.95784 25.7549Z" fill="#972C56"/>
<path opacity="0.15" d="M9.60801 26.13L14.364 23.913L14.219 23.6L9.24301 25.919L9.60801 26.13Z" fill="black"/>
<path opacity="0.15" d="M7.80658 25.091C7.11888 23.8637 6.36165 22.5247 5.59542 21.2281V21.743L5.53583 21.7775C6.12416 22.7814 6.70383 23.802 7.24704 24.7682L7.80658 25.091Z" fill="black"/>
<path opacity="0.15" d="M13.434 23.521L10.628 25.143L10.63 26.719L14.034 24.735L14.01 23.919L13.434 23.521Z" fill="black"/>
<path d="M10.377 25.772L10.676 25.632L10.843 25.935L10.543 26.075L10.377 25.772Z" fill="#BE9E81"/>
<path opacity="0.2" d="M5.16601 21.991L10.628 25.143L10.63 26.719L5.16101 23.565L5.16601 21.991Z" fill="black"/>
<path d="M9.319 23.896L9.618 23.755L9.791 24.056L9.491 24.197L9.319 23.896Z" fill="#DCA88B"/>
<path d="M11.5 22.875L11.678 23.172L11.364 23.319L11.184 23.022L11.5 22.875Z" fill="#DCA88B"/>
<path d="M6.89899 19.8419L7.19899 19.7L7.38199 19.996L7.08199 20.138L6.89899 19.8419Z" fill="#BE9E81"/>
<path d="M12.601 24.735L12.775 25.035L12.461 25.181L12.284 24.882L12.601 24.735Z" fill="#BE9E81"/>
<path opacity="0.15" d="M26.023 20.722L25.28 19.604L24.992 19.795L26.025 21.347L26.023 20.722Z" fill="white"/>
<path d="M26.1346 23.0322L26.1505 23.0214C26.1505 23.0214 26.155 24.8666 26.1601 25.7894C24.7611 26.5981 21.9613 28.2129 21.9613 28.2129L21.8387 28.1475V25.2725L26.0341 22.9731L26.1346 23.0322Z" fill="#3C1A26"/>
<path d="M21.189 25.002L21.924 25.422L21.961 28.213L21.281 27.85L20.556 25.368L21.189 25.002Z" fill="#29121A"/>
<path d="M25.374 22.585L26.135 23.032L21.925 25.466L21.155 25.022L25.374 22.585Z" fill="#421D2A"/>
<path d="M21.314 25.8102L21.3212 28.5573C21.3212 28.5573 19.028 29.8825 17.8831 30.5478C17.6158 30.696 17.0846 31 17.0846 31L17.059 30.985L17.05 28.1824L21.2504 25.7731L21.314 25.8102Z" fill="#3C1A26"/>
<path d="M11.1598 27.5497C11.7635 27.1977 12.9714 26.4946 12.9714 26.4946L15.7841 28.1266L16.4483 27.7358L17.0867 28.165C17.0867 28.165 17.097 30.084 17.0847 30.9999C15.1206 29.8476 13.1259 28.699 11.1598 27.5497Z" fill="#29121A"/>
<path d="M12.984 25.3409L12.989 26.4969L9.59401 28.4739L9.30801 28.3089L9.29501 25.9419L9.60301 26.1189L10.627 26.7079L12.984 25.3409Z" fill="#BD967F"/>
<path d="M6.18369 24.1458L9.60255 26.1191L9.59384 28.4736C9.59384 28.4736 7.315 27.1592 6.17679 26.5002C6.178 25.7152 6.18369 24.1458 6.18369 24.1458Z" fill="#886B59"/>
<path d="M5.53983 10.8213C5.53983 10.8213 5.54193 12.1803 5.54193 13.0637C5.54613 14.8027 5.55633 18.2807 5.55633 18.2807L15.7253 24.185V16.6081L5.53983 10.8213Z" fill="#886B59"/>
<path d="M25.963 10.524L15.46 16.464V22.813L15.723 22.818L15.728 22.829L25.982 16.912L25.963 10.524Z" fill="#BD967F"/>
<path d="M9.46252 13.8964C9.68852 13.7695 9.91114 13.6365 10.1359 13.5072C10.541 13.7434 10.95 13.9735 11.3534 14.2127C11.3441 14.4615 11.3519 14.7102 11.3435 14.959C11.3215 14.7153 11.3498 14.4702 11.3242 14.2265C11.0982 14.3378 10.8891 14.4798 10.6677 14.5995C10.2661 14.3645 9.85683 14.1425 9.46252 13.8964Z" fill="#DCDCDC"/>
<path d="M9.44873 17.0554C9.45503 16.0024 9.44692 14.9491 9.46253 13.8964C9.85684 14.1424 10.2661 14.3645 10.6677 14.5995C10.668 15.6591 10.6587 16.7184 10.6593 17.7777C10.6582 17.8107 10.6702 17.8428 10.6926 17.8671C12.1339 19.6361 13.5748 21.4055 15.0153 23.1753C15.0641 23.2276 15.1225 23.27 15.1873 23.3004C15.3715 23.4033 15.5531 23.5114 15.7367 23.6155C15.7373 24.0749 15.7346 24.5343 15.7337 24.9938C15.6341 24.9335 9.08058 20.9931 8.88103 20.876C8.81471 20.8511 8.83631 20.7713 8.83121 20.7173C8.83451 20.5927 8.83541 20.4682 8.83481 20.344C8.83481 20.2894 8.83511 20.2347 8.83541 20.1807C8.84352 19.9257 8.82041 19.6685 8.84982 19.4149C9.01726 18.7556 9.19461 18.099 9.36506 17.4404C9.40612 17.3152 9.43416 17.1862 9.44873 17.0554Z" fill="#898989"/>
<path d="M10.6677 14.5996C10.8891 14.4798 11.0983 14.3379 11.3242 14.2266C11.3497 14.4702 11.3215 14.7154 11.3434 14.9591C11.3416 15.7585 11.3392 16.5578 11.3362 17.3571C11.3333 17.3794 11.3354 17.4021 11.3426 17.4234C11.3498 17.4447 11.3618 17.4641 11.3777 17.4801C12.8262 19.2593 14.2746 21.0386 15.7229 22.818L15.7283 22.8294C19.1486 20.8608 26.0404 16.8772 26.0404 16.8772C26.0404 16.8772 26.4965 17.1401 26.7242 17.2718C24.9898 18.2666 23.2607 19.2716 21.5277 20.2694C19.5979 21.3857 17.6675 22.5011 15.7367 23.6156C15.553 23.5115 15.3715 23.4034 15.1872 23.3005C15.1224 23.2701 15.0641 23.2277 15.0152 23.1754C13.5748 21.4058 12.1339 19.6364 10.6925 17.8672C10.6701 17.8429 10.6582 17.8108 10.6592 17.7778C10.6586 16.7185 10.668 15.6592 10.6677 14.5996Z" fill="#FDFDFD"/>
<path d="M26.7243 17.2717C26.7225 17.7293 26.7264 18.187 26.7267 18.6443C26.4902 18.9507 24.8223 21.1263 24.5895 21.4255C24.5288 21.3847 24.4682 21.3441 24.4076 21.3037C24.38 21.3403 24.3527 21.3774 24.3257 21.415C24.2576 21.5107 23.3966 22.7155 23.3192 22.8212L23.2784 22.8755C23.1553 22.7839 23.0392 22.6832 22.9312 22.5742C22.8982 22.6141 22.8655 22.6543 22.8358 22.6966C22.6884 22.9229 21.7162 24.4242 21.5973 24.6154L21.5742 24.6439C21.4362 24.5926 21.299 24.5392 21.1628 24.4839C20.848 24.366 20.5359 24.2424 20.2226 24.1211C20.2037 24.1574 19.9096 24.7603 19.8715 24.8437C19.5988 24.787 18.8404 24.6016 18.7318 24.5767C18.6742 24.6805 18.6202 24.7864 18.5653 24.8918L18.526 24.9119L18.5119 24.9101C18.36 24.881 16.5076 24.6127 16.4548 24.6055C16.3964 24.6097 16.3406 24.631 16.2942 24.6667C16.1082 24.7771 15.923 24.8891 15.7337 24.9938C15.7346 24.5344 15.7373 24.0749 15.7367 23.6155L26.7243 17.2717Z" fill="#D6D6D6"/>
<path d="M23.5098 15.7596C23.9481 15.4703 24.4046 15.2096 24.8766 14.9794C24.8788 15.3962 24.8809 15.813 24.8791 16.2298C24.4232 16.4903 23.9692 16.7547 23.514 17.016C23.511 16.5971 23.5122 16.1785 23.5098 15.7596Z" fill="#493239"/>
<path d="M20.858 16.978L19.493 17.763V19.338L20.86 18.549L20.858 16.978Z" fill="#493239"/>
<path d="M22.1459 16.7547C22.582 16.3984 23.0373 16.0662 23.5098 15.7596C23.5122 16.1786 23.511 16.5972 23.514 17.0161C23.059 17.2793 22.6038 17.5419 22.1483 17.8041C22.1477 17.4542 22.1453 17.1046 22.1459 16.7547Z" fill="white"/>
<path d="M18.1187 16.9873C18.535 16.7451 18.9521 16.5042 19.3701 16.2646C19.8226 16.5275 20.2751 16.7904 20.7277 17.0533C20.3148 17.2879 19.9075 17.5316 19.4928 17.7627C19.4856 18.2878 19.4943 18.813 19.4931 19.3378C19.0388 19.6007 18.5843 19.8628 18.1296 20.124C18.1232 19.0785 18.1238 18.0327 18.1187 16.9873Z" fill="white"/>
<path d="M25.9608 6.91196L25.9701 6.90565C25.9701 6.90565 25.977 9.53109 25.9809 10.8436L25.9632 10.8535L15.7253 16.758L15.6018 16.6862V12.7626L25.8848 6.86768L25.9608 6.91196Z" fill="#DB5B54"/>
<path d="M26.8263 12.7099L26.8386 12.7048C26.8347 13.2291 26.8428 13.7536 26.8344 14.2778C26.5438 14.3466 26.2569 14.4305 25.9749 14.529C25.6 14.6566 25.2332 14.807 24.8766 14.9794C24.4046 15.2097 23.9481 15.4703 23.5098 15.7596C23.0373 16.0662 22.582 16.3984 22.1459 16.7547C21.8818 16.9702 21.6261 17.1955 21.3759 17.4266C21.3789 16.9051 21.369 16.3832 21.3735 15.8617C22.047 15.2308 22.7761 14.662 23.5518 14.1621C23.8945 13.9323 24.2534 13.7277 24.6258 13.5499C25.2295 13.2742 25.8487 13.0338 26.4803 12.8297C26.5981 12.7974 26.7137 12.7574 26.8263 12.7099Z" fill="#DB5B54"/>
<path d="M5.53983 6.91586L15.7895 1L25.9608 6.912L15.7238 12.8335C12.3283 10.8623 5.53983 6.91586 5.53983 6.91586Z" fill="#F2716A"/>
<path d="M23.3078 10.7323C23.3609 10.7149 23.4221 10.6879 23.4737 10.7257C23.9203 10.9894 24.3653 11.2556 24.8136 11.5164C25.1977 11.7466 25.5845 11.9728 25.9692 12.2018C26.2552 12.371 26.5418 12.5385 26.8262 12.7098C26.7137 12.7573 26.5981 12.7973 26.4802 12.8295C25.8487 13.0336 25.2295 13.2741 24.6257 13.5497C24.2534 13.7275 23.8944 13.9321 23.5517 14.1619C22.776 14.6618 22.0469 15.2307 21.3734 15.8616C20.2445 15.2044 19.115 14.5484 17.9849 13.8936C18.1836 13.6946 18.3928 13.5064 18.6117 13.3297C19.1221 12.9014 19.6604 12.5073 20.2229 12.1501C21.1909 11.556 22.2265 11.08 23.3078 10.7323Z" fill="#F2716A"/>
<path d="M5.53983 6.91589C8.93438 8.88864 15.7238 12.8335 15.7238 12.8335L15.7253 16.758L5.53983 10.8363C5.53983 10.8363 5.54373 8.08861 5.53983 6.91589Z" fill="#A24741"/>
<path d="M17.985 13.894L21.373 15.862L21.376 17.427L17.983 15.46L17.985 13.894Z" fill="#A24741"/>
<path d="M20.556 25.368L21.314 25.81L17.087 28.252L16.313 27.816L20.556 25.368Z" fill="#421D2A"/>
</g>
<defs>
<clipPath id="clip0_1_13297">
<rect width="32" height="32" fill="white"/>
</clipPath>
</defs>
</svg>
