<?xml version="1.0" encoding="utf-8"?>
<!-- Generator: Adobe Illustrator 23.0.1, SVG Export Plug-In . SVG Version: 6.00 Build 0)  -->
<svg version="1.1" id="Layer_1" xmlns="http://www.w3.org/2000/svg" xmlns:xlink="http://www.w3.org/1999/xlink" x="0px"
    y="0px" viewBox="0 0 82.7 82.7" style="enable-background:new 0 0 82.7 82.7;" xml:space="preserve">
    <style type="text/css">
        .st0 {
            fill: #FFFFFF;
        }

        .st1 {
            fill: #345D9D;
        }
    </style>
    <title>Coin Blue with White L</title>
    <metadata>
        <?xpacket begin="﻿" id="W5M0MpCehiHzreSzNTczkc9d"?>
        <x:xmpmeta xmlns:x="adobe:ns:meta/" x:xmptk="Adobe XMP Core 5.6-c145 79.163499, 2018/08/13-16:40:22        ">
            <rdf:RDF xmlns:rdf="http://www.w3.org/1999/02/22-rdf-syntax-ns#">
                <rdf:Description rdf:about="" xmlns:dc="http://purl.org/dc/elements/1.1/"
                    xmlns:xmp="http://ns.adobe.com/xap/1.0/" xmlns:xmpMM="http://ns.adobe.com/xap/1.0/mm/"
                    xmlns:stEvt="http://ns.adobe.com/xap/1.0/sType/ResourceEvent#">
                    <dc:title>
                        <rdf:Alt>
                            <rdf:li xml:lang="x-default">Coin Blue with White L</rdf:li>
                        </rdf:Alt>
                    </dc:title>
                    <xmp:MetadataDate>2019-01-30T09:41:25+11:00</xmp:MetadataDate>
                    <xmpMM:InstanceID>xmp.iid:00a80a11-3036-4082-8833-49634b904a9b</xmpMM:InstanceID>
                    <xmpMM:DocumentID>xmp.did:b7185a8d-add0-4ad4-bd1a-e36eb7ee671e</xmpMM:DocumentID>
                    <xmpMM:OriginalDocumentID>xmp.did:b7185a8d-add0-4ad4-bd1a-e36eb7ee671e</xmpMM:OriginalDocumentID>
                    <xmpMM:History>
                        <rdf:Seq>
                            <rdf:li>
                                <rdf:Description>
                                    <stEvt:action>saved</stEvt:action>
                                    <stEvt:instanceID>xmp.iid:b7185a8d-add0-4ad4-bd1a-e36eb7ee671e</stEvt:instanceID>
                                    <stEvt:when>2019-01-30T09:40:58+11:00</stEvt:when>
                                    <stEvt:softwareAgent>Adobe Bridge CC 2019 (Macintosh)</stEvt:softwareAgent>
                                    <stEvt:changed>/metadata</stEvt:changed>
                                </rdf:Description>
                            </rdf:li>
                            <rdf:li>
                                <rdf:Description>
                                    <stEvt:action>saved</stEvt:action>
                                    <stEvt:instanceID>xmp.iid:00a80a11-3036-4082-8833-49634b904a9b</stEvt:instanceID>
                                    <stEvt:when>2019-01-30T09:41:25+11:00</stEvt:when>
                                    <stEvt:softwareAgent>Adobe Bridge CC 2019 (Macintosh)</stEvt:softwareAgent>
                                    <stEvt:changed>/metadata</stEvt:changed>
                                </rdf:Description>
                            </rdf:li>
                        </rdf:Seq>
                    </xmpMM:History>
                </rdf:Description>
            </rdf:RDF>
        </x:xmpmeta>
        <?xpacket end="w"?>
    </metadata>
    <g>
        <path class="st0" d="M60.7,57.2h-23L42,42.7l6.6-1.9L50,36l-6.6,2l7-23.8c0-0.1,0-0.2,0-0.3c0-0.7-0.5-1.2-1.2-1.2h-8.9
		c-0.7,0-1.3,0.5-1.5,1.2L30.6,42L24,44l-1.5,4.7l6.6-2l-5.9,20.1h35.1c0.7,0,1.3-0.5,1.5-1.1l2-6.9c0-0.1,0-0.2,0-0.3
		C61.9,57.7,61.4,57.2,60.7,57.2z" />
        <path class="st1" d="M41.3,0C18.5,0,0,18.5,0,41.3c0,22.8,18.5,41.3,41.3,41.3c22.8,0,41.3-18.5,41.3-41.3C82.7,18.5,64.2,0,41.3,0
		z M61.8,58.7l-2,6.9c-0.2,0.7-0.8,1.1-1.5,1.1H23.2l5.9-20.1l-6.6,2L24,44l6.6-2l8.3-28.2c0.2-0.7,0.8-1.1,1.5-1.2h8.9
		c0.7,0,1.2,0.5,1.2,1.2c0,0.1,0,0.2,0,0.3l-7,23.8l6.6-2l-1.4,4.8L42,42.7l-4.3,14.5h23c0.7,0,1.2,0.5,1.2,1.2
		C61.9,58.5,61.9,58.6,61.8,58.7z" />
    </g>
</svg>