<svg width="32" height="32" viewBox="0 0 32 32" fill="none" xmlns="http://www.w3.org/2000/svg">
<path d="M16 32C24.8366 32 32 24.8366 32 16C32 7.16344 24.8366 0 16 0C7.16344 0 0 7.16344 0 16C0 24.8366 7.16344 32 16 32Z" fill="white"/>
<path d="M22.0266 7.02222L17.8535 13.2222C17.5649 13.6444 18.1199 14.1556 18.5194 13.8L22.626 10.2222C22.737 10.1333 22.8923 10.2 22.8923 10.3556V21.5333C22.8923 21.6889 22.6926 21.7556 22.6038 21.6444L10.1731 6.75556C9.77358 6.26667 9.19645 6 8.55272 6H8.10877C6.9545 6 6 6.95556 6 8.13333V23.8667C6 25.0444 6.9545 26 8.13097 26C8.86349 26 9.55161 25.6222 9.95117 24.9778L14.1243 18.7778C14.4129 18.3556 13.8579 17.8444 13.4584 18.2L9.35183 21.7556C9.24084 21.8444 9.08546 21.7778 9.08546 21.6222V10.4667C9.08546 10.3111 9.28524 10.2444 9.37403 10.3556L21.8047 25.2444C22.2042 25.7333 22.8036 26 23.4251 26H23.869C25.0455 26 26 25.0444 26 23.8667V8.13333C26 6.95556 25.0455 6 23.869 6C23.1143 6 22.4262 6.37778 22.0266 7.02222Z" fill="black"/>
</svg>
