<svg width="32" height="32" viewBox="0 0 32 32" fill="none" xmlns="http://www.w3.org/2000/svg">
<g clip-path="url(#clip0_410_652)">
<mask id="mask0_410_652" style="mask-type:alpha" maskUnits="userSpaceOnUse" x="0" y="-1" width="32" height="33">
<path d="M16 31.9995C24.8366 31.9995 32 24.8361 32 15.9995C32 7.16296 24.8366 -0.000488281 16 -0.000488281C7.16344 -0.000488281 0 7.16296 0 15.9995C0 24.8361 7.16344 31.9995 16 31.9995Z" fill="#76B05D"/>
</mask>
<g mask="url(#mask0_410_652)">
<path d="M16 31.9995C24.8366 31.9995 32 24.8361 32 15.9995C32 7.16296 24.8366 -0.000488281 16 -0.000488281C7.16344 -0.000488281 0 7.16296 0 15.9995C0 24.8361 7.16344 31.9995 16 31.9995Z" fill="#76B05D"/>
<path d="M16.2895 4.1702C16.8545 4.09245 17.4194 3.97987 17.9924 4.00309C18.4639 4.01673 18.9405 3.96523 19.407 4.05509C20.0366 4.11719 20.6288 4.35952 21.2088 4.59782C21.7379 4.90982 22.2186 5.3137 22.5891 5.80644C22.7057 5.97708 22.7976 6.16338 22.9178 6.3325C23.0824 6.55767 23.0965 6.84493 23.1384 7.11099C23.2035 7.63301 23.2863 8.15302 23.3484 8.67554C23.3706 9.21473 23.3782 9.75695 23.4625 10.2911C23.5231 10.6147 23.5029 10.9469 23.5721 11.269C23.7796 11.3432 23.9835 11.4265 24.1915 11.4997C25.0468 11.7703 25.7864 12.2928 26.5538 12.7401C26.7698 12.9219 27.043 13.0203 27.249 13.2142C27.4378 13.5146 27.6094 13.8953 27.463 14.2476C27.3646 14.5011 27.0359 14.4854 26.8173 14.4385C25.9828 14.0361 25.1245 13.6731 24.2264 13.4384C23.8664 13.2879 23.4696 13.349 23.0915 13.3142C23.0859 13.3334 23.0748 13.3722 23.0692 13.3914C22.9854 13.2803 22.8436 13.2798 22.7184 13.2692C22.469 12.9507 22.1373 12.7134 21.8036 12.4923C21.6354 12.3736 21.4199 12.4034 21.227 12.4059C20.2688 12.468 19.304 12.4226 18.3509 12.5559C18.002 12.5554 17.6597 12.6139 17.3245 12.7073C17.3255 12.721 17.3275 12.7482 17.3285 12.7619C17.2275 12.7709 17.1261 12.7694 17.0256 12.7619C16.6873 12.7634 16.3456 12.7826 16.0113 12.8315C15.6716 12.9502 15.3071 12.8623 14.9617 12.9481C14.6598 13.0208 14.3438 12.9774 14.0439 13.0592C13.4482 13.1597 12.8388 13.1703 12.2375 13.1238C11.8099 13.037 11.3611 13.0188 10.9638 12.8219C10.5109 12.675 10.0732 12.4847 9.65318 12.26C9.3533 12.0859 9.10188 11.8435 8.85753 11.6007C8.41174 11.5512 8.03057 11.2836 7.59034 11.2099C7.50047 11.3084 7.4101 11.4063 7.31721 11.5017C7.23138 11.5512 7.14354 11.5971 7.0562 11.6431C7.08245 11.5588 7.1087 11.475 7.13899 11.3922C7.21068 11.3048 7.2849 11.22 7.35962 11.1352C7.09406 10.9297 6.72602 10.7874 6.62 10.438C6.5675 9.95485 6.78762 9.50098 6.86536 9.03248C6.92191 8.64828 7.03348 8.27368 7.17282 7.9117C7.28288 7.60777 7.49492 7.35888 7.67869 7.09787C7.84377 6.8939 7.96292 6.64551 8.18556 6.49456C8.3663 6.37289 8.54502 6.2487 8.71263 6.10986C8.95042 5.91499 9.25384 5.84128 9.5411 5.75394C9.68398 5.71961 9.69307 5.54644 9.76021 5.43941C9.84705 5.21828 10.0515 5.07793 10.2605 4.98353C10.6003 4.83459 10.9098 4.6064 11.2818 4.54077C11.7079 4.46251 12.1613 4.3358 12.5864 4.48422C12.7535 4.5342 12.862 4.67809 13.0024 4.77149C13.1564 4.77199 13.3053 4.72605 13.4542 4.69071C13.9556 4.55591 14.4761 4.513 14.9794 4.38376C15.4085 4.26814 15.8548 4.25653 16.2895 4.1702ZM16.3799 4.36053C16.2077 4.36003 16.0401 4.3984 15.873 4.43071C15.5706 4.50139 15.2586 4.51754 14.9623 4.61347C14.4624 4.70333 13.9667 4.81541 13.4674 4.9078C13.2099 4.8043 12.9206 5.10116 12.696 4.89467L12.7989 4.8457C12.7222 4.76139 12.6278 4.69677 12.5238 4.65133C11.9099 4.65789 11.2596 4.66547 10.7068 4.96838C10.5614 5.04562 10.4069 5.10469 10.2656 5.189C10.0808 5.27382 9.9667 5.449 9.87734 5.62368C9.89854 5.62268 9.94196 5.62015 9.96367 5.61864C9.98184 5.64236 10.0187 5.68982 10.0374 5.71304C9.99598 5.75747 9.95155 5.79887 9.91015 5.84178C9.65672 5.916 9.41893 6.03464 9.16599 6.10986C8.88883 6.19821 8.71162 6.44357 8.45819 6.57282C8.32692 6.64854 8.19364 6.73386 8.11084 6.86513C7.88972 7.25084 7.53228 7.55123 7.37931 7.97733C7.26016 8.34133 7.14253 8.70684 7.07437 9.08448C6.98249 9.52976 6.78156 9.98262 6.87899 10.4425C7.03197 10.7126 7.32832 10.8691 7.60043 10.9959C8.08207 11.0655 8.50817 11.324 8.98425 11.4078C9.13722 11.5113 9.22102 11.6865 9.36541 11.8006C10.0162 12.3115 10.8204 12.5468 11.5949 12.7987C11.818 12.8522 12.0477 12.8775 12.2749 12.9098C12.3158 12.9648 12.3723 13.0052 12.444 12.9996C13.2377 13.0567 14.0303 12.9441 14.8148 12.8351C15.1798 12.7417 15.5605 12.7997 15.9285 12.728C16.2936 12.6528 16.6677 12.6498 17.0372 12.6074C17.4648 12.5937 17.8652 12.4009 18.2958 12.4085C19.0193 12.3519 19.7432 12.2959 20.4697 12.2939C21.0882 12.259 21.7228 12.2121 22.3266 12.3822C22.3473 12.4105 22.3892 12.466 22.4099 12.4943C22.3407 12.4933 22.2721 12.4928 22.2034 12.4923C22.2069 12.5099 22.214 12.5448 22.2176 12.5619C22.3216 12.6266 22.4205 12.6982 22.5159 12.7755C22.6285 12.8967 22.7391 13.0203 22.84 13.1516C23.308 13.0708 23.8038 13.0562 24.2582 13.2132C24.6888 13.3601 25.119 13.509 25.5521 13.6479C25.9636 13.8528 26.4109 13.9745 26.8138 14.1982C26.9511 14.2865 27.1172 14.2562 27.2601 14.1982C27.2697 13.9675 27.2974 13.7266 27.1924 13.5121C27.1788 13.505 27.152 13.4914 27.1384 13.4843C27.0753 13.3308 26.937 13.2359 26.7986 13.1567C26.4407 12.9047 26.0741 12.6377 25.646 12.521C25.5037 12.3676 25.2457 12.4186 25.1291 12.2323C25.1604 12.2373 25.224 12.2474 25.2553 12.253C25.2497 12.2292 25.2376 12.1818 25.2315 12.158C24.8211 11.9672 24.4076 11.7713 23.9618 11.6779C23.9593 11.6704 23.9548 11.6562 23.9522 11.6491C23.6044 11.5482 23.2904 11.3695 22.9627 11.22C23.0511 11.167 23.1389 11.1125 23.2263 11.0575C23.252 11.0676 23.304 11.0872 23.3297 11.0973C23.2707 10.4082 23.1737 9.72161 23.151 9.02995C23.1036 8.71694 23.1616 8.37919 23.0172 8.08739C22.9986 7.6527 22.942 7.21802 22.8668 6.78839C22.8294 6.56777 22.6982 6.38248 22.5866 6.19518C22.4457 5.94578 22.2519 5.73223 22.0575 5.52423C21.6824 5.16982 21.2745 4.81844 20.7716 4.66648C20.5061 4.53622 20.2143 4.48725 19.9406 4.37921C19.5994 4.30601 19.2515 4.24038 18.9011 4.25148C18.3302 4.25098 17.7592 4.23735 17.1887 4.25502C16.915 4.26209 16.654 4.36306 16.3799 4.36053Z" fill="#0C0500"/>
<path d="M16.3799 4.36053C16.654 4.36305 16.915 4.26208 17.1887 4.25501C17.7592 4.23734 18.3302 4.25097 18.9011 4.25148C19.2515 4.24037 19.5994 4.306 19.9406 4.37921C20.2143 4.48725 20.5061 4.53622 20.7716 4.66647C21.2745 4.81843 21.6824 5.16981 22.0575 5.52422C22.2519 5.73222 22.4457 5.94578 22.5866 6.19518C22.6982 6.38248 22.8294 6.56776 22.8668 6.78838C22.942 7.21802 22.9986 7.6527 23.0172 8.08738C22.942 8.47107 23.0778 8.84971 23.0738 9.23391C23.0773 9.78723 23.1778 10.3345 23.1859 10.8878C23.1374 10.9216 23.0889 10.9555 23.0405 10.9888L23.0097 10.9832C22.9753 10.9322 22.9415 10.8813 22.9082 10.8303C22.6083 10.7889 22.3059 10.7525 22.0171 10.6586C21.6324 10.5284 21.2245 10.49 20.8221 10.4592C19.8972 10.4461 18.9718 10.4597 18.0469 10.4572C17.4754 10.4844 16.9029 10.5223 16.338 10.6192C15.7589 10.6707 15.1894 10.7868 14.6134 10.8601C14.0419 11.0166 13.4603 11.1322 12.8787 11.2412C12.2396 11.475 11.5504 11.5194 10.8759 11.5138C10.5099 11.5123 10.1676 11.3523 9.80161 11.3523C9.87279 11.3856 9.94499 11.4194 10.0187 11.4492C9.97629 11.4396 9.89097 11.4204 9.84856 11.4109C9.82736 11.4492 9.78495 11.527 9.76374 11.5658C10.0535 11.8622 10.4428 12.0217 10.8189 12.1767C11.4202 12.3867 12.0558 12.4857 12.6919 12.4877C13.328 12.4291 13.9707 12.4271 14.5988 12.2964C14.9355 12.2181 15.2859 12.259 15.6226 12.1813C15.973 12.1076 16.3339 12.1045 16.6828 12.0232C16.9973 11.9526 17.3225 11.9521 17.639 11.8925C18.1216 11.7895 18.6184 11.8748 19.1051 11.8011C19.9967 11.7365 20.8908 11.8092 21.7824 11.8354C22.2983 11.9031 22.8203 11.9445 23.3267 12.0682C23.4348 12.2242 23.6276 12.2524 23.7967 12.3004C23.5297 12.2691 23.2616 12.2418 22.9925 12.2398C22.4851 12.2302 21.9873 12.1141 21.482 12.0899C21.0559 12.0919 20.6283 12.0742 20.2047 12.1267C19.6731 12.1853 19.1314 12.0823 18.6068 12.2045C18.3216 12.2615 18.0257 12.2247 17.744 12.3039C17.5456 12.3564 17.3427 12.3948 17.1367 12.3943C16.6727 12.4024 16.2209 12.516 15.764 12.5796C15.4807 12.6033 15.193 12.5796 14.9158 12.6528C14.6558 12.7205 14.3595 12.6472 14.1318 12.8179C13.8915 12.8921 13.638 12.886 13.3901 12.9113C13.0201 12.9542 12.645 12.9502 12.2749 12.9098C12.0477 12.8775 11.818 12.8522 11.5949 12.7987C10.8204 12.5468 10.0162 12.3115 9.36541 11.8006C9.22102 11.6865 9.13722 11.5113 8.98424 11.4078C8.50816 11.324 8.08207 11.0655 7.60043 10.9959C7.32831 10.8691 7.03196 10.7126 6.87899 10.4425C6.78155 9.98261 6.98249 9.52976 7.07437 9.08447C7.14253 8.70684 7.26016 8.34132 7.37931 7.97732C7.53228 7.55122 7.88971 7.25083 8.11084 6.86512C8.19364 6.73386 8.32692 6.64854 8.45818 6.57281C8.71162 6.44357 8.88883 6.19821 9.16599 6.10986C9.41893 6.03463 9.65671 5.91599 9.91015 5.84178C9.72703 5.28731 10.2353 5.06887 10.5 5C10.9417 4.88507 11.5596 4.61981 12 4.5C12.4785 4.36983 13 5 13.4674 4.90779C13.9667 4.8154 14.4624 4.70333 14.9623 4.61346C15.2586 4.51754 15.5706 4.50138 15.873 4.4307C16.0401 4.39839 16.2077 4.36002 16.3799 4.36053Z" fill="#B83732"/>
<path d="M23.0738 9.23391C23.0778 8.84971 22.942 8.47107 23.0173 8.08738C23.1616 8.37919 23.1036 8.71694 23.151 9.02995C23.1738 9.7216 23.2707 10.4082 23.3298 11.0973C23.304 11.0872 23.252 11.0675 23.2263 11.0575C23.1642 11.0337 23.1031 11.0095 23.0405 10.9888C23.0889 10.9555 23.1374 10.9216 23.1859 10.8878C23.1778 10.3345 23.0773 9.78723 23.0738 9.23391Z" fill="#B83732"/>
<path d="M16.338 10.6192C16.9029 10.5223 17.4754 10.4844 18.0469 10.4572C18.9718 10.4597 19.8972 10.4461 20.8221 10.4592C21.2245 10.49 21.6324 10.5284 22.0171 10.6586C22.3059 10.7525 22.6083 10.7889 22.9082 10.8303C22.9415 10.8813 22.9753 10.9322 23.0096 10.9832C22.527 10.9075 22.0514 10.7964 21.5779 10.6783C20.6651 10.4759 19.7296 10.6046 18.8052 10.5632C18.4503 10.5576 18.0959 10.5758 17.7415 10.5738C17.2654 10.5637 16.8055 10.7167 16.3309 10.7258C15.9023 10.7409 15.4908 10.8787 15.0642 10.908C14.8224 10.9252 14.5871 10.9842 14.3539 11.0463C13.7566 11.1973 13.1407 11.2675 12.551 11.4472C12.2698 11.526 11.9765 11.5371 11.6892 11.581C11.1319 11.6587 10.5533 11.636 10.0187 11.4492C9.94495 11.4194 9.87276 11.3856 9.80157 11.3523C10.1676 11.3523 10.5099 11.5123 10.8759 11.5138C11.5504 11.5194 12.2395 11.475 12.8787 11.2412C13.4603 11.1322 14.0419 11.0166 14.6134 10.8601C15.1894 10.7868 15.7589 10.6707 16.338 10.6192Z" fill="#B83732"/>
<path d="M17.7415 10.5738C18.0959 10.5758 18.4503 10.5576 18.8052 10.5632C19.7296 10.6046 20.6651 10.4759 21.5779 10.6783C22.0514 10.7964 22.527 10.9075 23.0097 10.9832L23.0405 10.9888C23.1031 11.0095 23.1641 11.0337 23.2262 11.0575C23.1389 11.1125 23.0511 11.167 22.9627 11.22C22.6886 11.1059 22.3877 11.0958 22.1019 11.0267C21.6142 10.907 21.1245 10.751 20.6171 10.7631C20.1815 10.7646 19.7463 10.7778 19.3106 10.7823C18.4175 10.7611 17.5183 10.75 16.6338 10.8934C16.1103 10.9479 15.5898 11.0196 15.0733 11.1206C14.5175 11.167 13.9964 11.3871 13.4441 11.4553C12.9186 11.5128 12.4319 11.7496 11.9028 11.7844C11.459 11.8617 11.0087 11.8228 10.5614 11.8329C10.6725 11.8879 10.783 11.9445 10.8992 11.9884C11.66 12.209 12.4576 12.3605 13.2518 12.2545C13.8465 12.2469 14.4231 12.0843 15.0137 12.0364C15.4868 12.0061 15.9548 11.9324 16.4248 11.8728C16.6803 11.8395 16.9246 11.7431 17.1836 11.7309C17.3866 11.7203 17.5885 11.6951 17.7899 11.6663C18.1686 11.6113 18.5538 11.6613 18.9329 11.6108C19.6933 11.5073 20.4596 11.5971 21.2235 11.5785C21.7818 11.6002 22.3331 11.6996 22.889 11.7476C23.1243 11.7789 23.3525 11.8476 23.5847 11.8945C24.1057 11.9808 24.606 12.156 25.129 12.2323C25.2457 12.4185 25.5036 12.3676 25.646 12.521C25.2209 12.3878 24.764 12.4165 24.3425 12.2676C24.0143 12.1545 23.668 12.1177 23.3267 12.0682C22.8203 11.9445 22.2983 11.9031 21.7824 11.8354C20.8908 11.8092 19.9967 11.7365 19.1051 11.8011C18.6184 11.8748 18.1216 11.7895 17.639 11.8925C17.3224 11.9521 16.9973 11.9526 16.6828 12.0232C16.3339 12.1045 15.973 12.1076 15.6226 12.1813C15.2859 12.259 14.9355 12.2181 14.5987 12.2964C13.9707 12.4271 13.328 12.4292 12.6919 12.4877C12.0558 12.4857 11.4202 12.3867 10.8189 12.1767C10.4428 12.0217 10.0535 11.8622 9.76373 11.5658C9.78494 11.527 9.82734 11.4492 9.84855 11.4109C9.89096 11.4204 9.97628 11.4396 10.0187 11.4492C10.5533 11.636 11.1319 11.6587 11.6893 11.581C11.9765 11.5371 12.2698 11.526 12.551 11.4472C13.1407 11.2675 13.7566 11.1973 14.3539 11.0463C14.5871 10.9843 14.8224 10.9252 15.0642 10.908C15.4908 10.8787 15.9023 10.7409 16.3309 10.7258C16.8055 10.7167 17.2654 10.5637 17.7415 10.5738Z" fill="#2C0000"/>
<path d="M19.4998 12.255C19.9739 12.2222 20.4495 12.2464 20.9225 12.1989C21.3284 12.1636 21.7343 12.203 22.1337 12.2777C23.2691 12.311 24.4076 12.5019 25.4693 12.9153C25.7692 12.986 25.9948 13.2087 26.2781 13.3167C26.3376 13.3849 26.4235 13.4525 26.4063 13.556C26.2387 13.5696 26.1084 13.4495 25.9701 13.3758C25.6864 13.1996 25.3582 13.1218 25.0548 12.9885C24.7231 12.8487 24.3722 12.7619 24.0188 12.7003C23.4973 12.5493 22.951 12.4998 22.4098 12.4943C22.3891 12.466 22.3472 12.4105 22.3265 12.3822C21.7227 12.2121 21.0881 12.259 20.4697 12.2939C19.7432 12.2959 19.0192 12.3519 18.2958 12.4085C17.8651 12.4009 17.4648 12.5937 17.0372 12.6074C16.6676 12.6498 16.2935 12.6528 15.9285 12.728C15.5604 12.7997 15.1798 12.7417 14.8148 12.8351C14.0302 12.9441 13.2376 13.0567 12.444 12.9997C12.3723 13.0052 12.3157 12.9648 12.2748 12.9098C12.6449 12.9502 13.02 12.9542 13.3901 12.9113C13.638 12.8861 13.8914 12.8921 14.1317 12.8179C14.4003 12.8038 14.6704 12.8023 14.9344 12.7477C15.2646 12.6806 15.6059 12.7129 15.9351 12.6397C16.4662 12.5216 17.02 12.573 17.5491 12.4398C17.909 12.3494 18.2826 12.3635 18.6466 12.2974C18.9283 12.2444 19.2156 12.2777 19.4998 12.255Z" fill="#2C0000"/>
<path d="M16.6338 10.8934C17.5183 10.75 18.4175 10.7611 19.3106 10.7823C19.7463 10.7778 20.1814 10.7646 20.6171 10.7631C21.1245 10.751 21.6142 10.907 22.1019 11.0267C22.3877 11.0958 22.6886 11.1059 22.9627 11.22C23.2904 11.3695 23.6044 11.5482 23.9522 11.6491C23.9547 11.6562 23.9593 11.6704 23.9618 11.6779C24.0037 11.8778 24.2662 11.8597 24.4182 11.9369C24.141 11.9107 23.8639 11.8688 23.5847 11.8945C23.3525 11.8476 23.1243 11.7789 22.889 11.7476C22.3331 11.6996 21.7818 11.6002 21.2235 11.5785C20.4596 11.5971 19.6932 11.5073 18.9329 11.6108C18.5538 11.6613 18.1686 11.6113 17.7899 11.6663C17.5885 11.6951 17.3866 11.7203 17.1836 11.7309C16.9246 11.7431 16.6803 11.8395 16.4248 11.8728C15.9548 11.9324 15.4868 12.0061 15.0137 12.0364C14.4231 12.0843 13.8465 12.2469 13.2518 12.2545C12.4576 12.3605 11.66 12.209 10.8992 11.9884C10.783 11.9445 10.6725 11.8879 10.5614 11.8329C11.0087 11.8228 11.459 11.8617 11.9028 11.7844C12.4319 11.7496 12.9186 11.5128 13.4441 11.4553C13.9964 11.3871 14.5175 11.167 15.0733 11.1206C15.5898 11.0196 16.1103 10.9479 16.6338 10.8934Z" fill="#B53932"/>
<path d="M7.31717 11.5017C7.41006 11.4063 7.50043 11.3084 7.5903 11.2099C8.03053 11.2836 8.4117 11.5512 8.85749 11.6007C9.10184 11.8435 9.35326 12.0858 9.65314 12.26C10.0732 12.4847 10.5109 12.675 10.9637 12.8219C11.3611 13.0188 11.8099 13.037 12.2375 13.1238C12.8388 13.1703 13.4481 13.1597 14.0439 13.0592C14.3438 12.9774 14.6598 13.0208 14.9617 12.9481C15.307 12.8623 15.6715 12.9502 16.0113 12.8315C16.3455 12.7825 16.6873 12.7634 17.0256 12.7618C17.2169 13.0966 17.4062 13.4328 17.5966 13.768C17.6859 13.9134 17.7218 14.0815 17.7283 14.2507C17.4608 14.0669 17.2644 13.7731 16.9392 13.6822C16.4929 13.557 16.0259 13.6156 15.5706 13.6322C15.1717 13.6161 14.7729 13.5949 14.3736 13.6166C14.3564 13.6055 14.321 13.5827 14.3034 13.5716C14.6366 13.4898 14.9809 13.5398 15.3191 13.503C15.6216 13.4717 15.9265 13.5141 16.2289 13.4767C16.5757 13.4333 16.9059 13.5848 17.2517 13.5742C17.1831 13.3561 17.0957 13.1339 16.9362 12.9658C16.6772 12.8704 16.3894 12.9229 16.1244 12.9673C15.8508 13.0229 15.5685 13.0208 15.2974 13.091C14.9895 13.1683 14.6679 13.094 14.3589 13.1657C13.9106 13.2637 13.4502 13.2223 12.9958 13.2314C12.4975 13.2182 11.9901 13.2662 11.5009 13.1455C11.298 13.0986 11.1127 13.0022 10.9193 12.9279C10.6719 12.8325 10.3928 12.8234 10.1671 12.673C9.84549 12.4599 9.45776 12.3615 9.16191 12.1065C9.01096 11.9924 8.91151 11.8228 8.75551 11.7163C8.58739 11.6385 8.39908 11.6244 8.22137 11.581C8.03255 11.5461 7.84979 11.4719 7.65694 11.4654C7.49892 11.5295 7.37321 11.6592 7.30051 11.8122C7.21367 11.9929 7.08544 12.1479 6.9774 12.3156C6.85371 12.5246 6.58361 12.5781 6.45134 12.78C6.34481 12.9436 6.23375 13.1036 6.10804 13.2531C5.87025 13.5328 5.75211 13.8892 5.52089 14.1734C5.34772 14.3723 5.29623 14.6424 5.13063 14.8454C5.01553 14.9827 4.96201 15.1549 4.88931 15.3149C4.80399 15.5047 4.62477 15.6426 4.5763 15.8501C4.53086 15.996 4.52481 16.1742 4.38345 16.2655C4.19362 16.3822 4.2229 16.621 4.16434 16.8068C4.12849 16.9804 3.98814 17.0991 3.88162 17.2308C3.78671 17.3389 3.75843 17.4838 3.70088 17.612C3.6408 17.7569 3.52065 17.8654 3.44896 18.0038C3.36717 18.1774 3.36464 18.3774 3.28134 18.5505C3.2248 18.6278 3.14453 18.6848 3.0895 18.7636C3.02488 18.9292 3.01226 19.1099 2.94814 19.276C2.86635 19.5294 2.65431 19.7218 2.60585 19.9884C2.5286 20.4044 2.30748 20.7754 2.22064 21.1889C2.13078 21.5893 2.03687 21.9942 2.04495 22.4076C2.04848 22.5859 2.03132 22.7656 1.97124 22.9347C1.86825 23.2386 1.82483 23.5582 1.79656 23.8763C1.77485 24.1514 1.63097 24.4028 1.63551 24.6815C1.62693 25.144 1.60471 25.6079 1.51283 26.0628C1.41337 26.5788 1.44821 27.1053 1.42044 27.6273C1.42701 27.9419 1.42701 28.2559 1.42953 28.5704C1.42549 28.8062 1.59361 28.9905 1.65974 29.207C1.73345 29.409 1.73295 29.6382 1.85109 29.8225C2.1025 30.1471 2.26557 30.5434 2.59121 30.8074C2.73357 30.9145 2.88554 31.0094 3.02185 31.125C3.22076 31.3037 3.52519 31.2941 3.70542 31.5021C3.83568 31.6495 4.02146 31.7137 4.19816 31.7854C4.60508 32.0388 5.08671 32.1231 5.52644 32.3023C5.77231 32.4078 6.0419 32.428 6.3019 32.4826C6.60229 32.5462 6.92086 32.5179 7.2066 32.6466C7.51709 32.7915 7.86544 32.7436 8.19663 32.7799C8.70098 32.8299 9.20836 32.8132 9.71423 32.8127C10.1868 32.8062 10.6623 32.9213 11.1319 32.8223C11.4459 32.7542 11.769 32.7385 12.0896 32.7486C12.1926 32.7476 12.287 32.7915 12.3829 32.8238C11.8457 32.8516 11.3126 32.9278 10.7785 32.9859C10.2049 32.9844 9.6284 33.0202 9.05691 32.9506C8.06537 32.9374 7.08089 32.7875 6.10703 32.6118C5.62186 32.4215 5.09933 32.3508 4.62022 32.1423C4.31681 32.0186 4.0361 31.8459 3.72966 31.7283C3.40453 31.6036 3.12585 31.3906 2.82849 31.2144C2.47509 31.0028 2.24689 30.6499 1.99598 30.3349C1.79908 30.0921 1.738 29.7775 1.60371 29.5019C1.42095 29.0435 1.30029 28.5608 1.24627 28.0701C1.16953 27.6647 1.26242 27.2568 1.31644 26.8549C1.47143 25.8104 1.4477 24.7441 1.68044 23.7112C1.72386 23.2306 1.84755 22.7626 1.90056 22.2829C1.9465 21.7261 2.06413 21.1753 2.23377 20.6432C2.41047 20.2226 2.47963 19.7662 2.67653 19.3533C2.82445 19.0453 2.93905 18.7227 3.08344 18.4127C3.45098 17.6978 3.85789 17.0021 4.18403 16.2661C4.33397 15.9288 4.56519 15.6365 4.71615 15.2998C4.84842 14.9994 5.04228 14.7323 5.18213 14.4359C5.28058 14.2259 5.40023 14.027 5.53402 13.8377C5.78392 13.4798 5.98485 13.087 6.26707 12.7523C6.49324 12.4736 6.77041 12.2398 6.9774 11.946C7.08443 11.7935 7.19297 11.6416 7.31717 11.5017Z" fill="#517E3A"/>
<path d="M6.45642 12.2328C6.73309 11.9935 6.87394 11.6431 7.13899 11.3922C7.1087 11.475 7.08245 11.5588 7.05619 11.6431C7.14353 11.5972 7.23138 11.5512 7.3172 11.5017C7.19301 11.6416 7.08447 11.7936 6.97744 11.946C6.77045 12.2398 6.49328 12.4736 6.2671 12.7523C5.98489 13.087 5.78396 13.4798 5.53405 13.8377C5.40026 14.027 5.28061 14.2259 5.18217 14.436C5.04232 14.7323 4.84846 14.9994 4.71618 15.2998C4.56523 15.6365 4.33401 15.9288 4.18406 16.2661C3.85793 17.0022 3.45101 17.6978 3.08348 18.4127C2.93909 18.7227 2.82449 19.0453 2.67656 19.3533C2.47967 19.7662 2.4105 20.2226 2.2338 20.6432C2.06417 21.1753 1.94654 21.7261 1.9006 22.283C1.84759 22.7626 1.7239 23.2306 1.68048 23.7112C1.44774 24.7441 1.47147 25.8104 1.31648 26.8549C1.26246 27.2568 1.16956 27.6647 1.2463 28.0701C1.30032 28.5609 1.42098 29.0435 1.60374 29.5019C1.73803 29.7776 1.79912 30.0921 1.99601 30.3349C2.24693 30.6499 2.47512 31.0028 2.82852 31.2144C3.12588 31.3906 3.40457 31.6036 3.72969 31.7283C4.03614 31.846 4.31684 32.0186 4.62026 32.1423C5.09937 32.3508 5.6219 32.4215 6.10706 32.6118C7.08093 32.7875 8.0654 32.9375 9.05694 32.9506C9.62844 33.0203 10.205 32.9844 10.7785 32.9859C11.3126 32.9279 11.8458 32.8516 12.3829 32.8239C13.0256 32.8239 13.6683 32.8304 14.3105 32.8213C14.7123 32.7724 15.1172 32.7764 15.5211 32.7835C16.0462 32.8006 16.5419 32.5987 17.0211 32.4084C17.1791 32.3432 17.3522 32.3044 17.4921 32.2019C17.6294 32.0676 17.7132 31.8899 17.8445 31.75C17.9101 31.6602 18.0272 31.5764 17.9964 31.4507C17.9576 31.179 18.0181 30.9079 18.0101 30.6363C18.005 30.3248 17.742 30.1148 17.6158 29.8508C17.4709 29.5559 17.1988 29.3626 16.9847 29.1233C16.7479 28.8441 16.5647 28.4412 16.753 28.0883C16.9938 27.798 17.3452 27.532 17.7445 27.5855C17.9757 27.6001 18.1635 27.7485 18.3195 27.9076C18.4705 27.7758 18.6341 27.6592 18.8103 27.5638C19.1909 27.3532 19.4731 27.014 19.8023 26.7373C20.0522 26.4935 20.3501 26.3097 20.6368 26.1138C21.0347 25.8886 21.4895 25.6731 21.9586 25.769C22.2796 25.8881 22.5008 26.1678 22.7552 26.3849C23.0915 26.0982 23.3959 25.7331 23.4878 25.2899C23.5181 25.0955 23.5393 24.8825 23.4433 24.7027C23.5075 24.6563 23.569 24.6073 23.6342 24.5619C23.8397 25.0481 23.6806 25.613 23.3686 26.0154C23.2374 26.2057 23.0566 26.3566 22.9299 26.5495C22.9289 26.5737 22.9274 26.6217 22.9264 26.6459C23.0904 27.0311 23.515 27.1649 23.8528 27.3532C24.3132 27.6173 24.7494 27.9298 25.1169 28.3145C25.3729 28.5528 25.5582 28.8522 25.7727 29.1258C26.0671 29.4317 26.3614 29.7584 26.5053 30.1658C26.5709 30.3516 26.679 30.5172 26.7961 30.6747C27.0642 31.0458 27.2151 31.4809 27.4014 31.8949C27.4716 32.0858 27.5665 32.2973 27.4938 32.5018C27.4241 32.7295 27.2545 32.9107 27.0556 33.0349C26.5199 33.3716 25.9404 33.6604 25.3143 33.7811C24.9968 33.8578 24.6888 33.9896 24.3576 33.9941C23.8699 34.0032 23.3797 34.0088 22.8941 33.9558C22.576 33.927 22.2544 33.9734 21.9384 33.9209C21.4936 33.8512 21.0342 33.8588 20.6015 33.7235C20.2011 33.5705 19.8397 33.3317 19.4918 33.0844C19.1223 32.8117 18.727 32.5755 18.3271 32.3508C18.2539 32.1549 18.1747 31.9595 18.052 31.7889C17.9177 31.9616 17.8106 32.1559 17.6597 32.315C17.4386 32.5401 17.1175 32.6017 16.8368 32.7189C16.5253 32.8567 16.1916 32.9375 15.8564 32.9895C15.409 33.0228 14.9582 32.9688 14.5129 33.0359C13.8733 33.0642 13.2321 33.0354 12.5925 33.044C12.0724 33.0869 11.5514 33.1192 11.0335 33.1808C10.5649 33.258 10.0884 33.2106 9.61632 33.2237C9.05896 33.1682 8.49907 33.1702 7.9407 33.1343C7.33336 33.0455 6.72804 32.947 6.12271 32.8521C5.62795 32.6835 5.113 32.579 4.62783 32.3821C4.30119 32.2599 4.00636 32.0706 3.68476 31.9383C3.44899 31.8449 3.2314 31.7152 3.01482 31.5849C2.82903 31.4713 2.62507 31.38 2.47008 31.223C2.16615 30.9342 1.90767 30.6 1.6825 30.2471C1.36949 29.6019 1.12413 28.9168 1.04184 28.2004C0.9237 27.6163 1.08828 27.0357 1.13675 26.4546C1.16603 26.2516 1.19026 26.0477 1.19481 25.8427C1.19834 25.5898 1.25993 25.3419 1.26751 25.0895C1.28013 24.6053 1.36797 24.1272 1.46592 23.6541C1.50227 23.3482 1.53559 23.0418 1.60021 22.7399C1.70522 22.2809 1.68553 21.8038 1.81326 21.349C1.9006 20.8078 2.14747 20.314 2.27823 19.7849C2.38274 19.4038 2.59124 19.064 2.72301 18.6934C3.08701 17.8417 3.59389 17.0607 3.97051 16.2146C4.10682 15.8804 4.33401 15.5946 4.48748 15.269C4.66519 14.8944 4.89238 14.5465 5.0711 14.1724C5.21044 13.8872 5.42147 13.6464 5.581 13.3732C5.82636 12.9608 6.09949 12.5579 6.45642 12.2328ZM21.1149 26.1714C20.4824 26.4223 19.9906 26.9059 19.4969 27.3573L19.5014 27.3684C19.4464 27.4345 19.2278 27.5158 19.3636 27.6047C19.5595 27.7203 19.7513 27.8667 19.8356 28.0863C19.8614 28.2024 19.8472 28.3327 19.7634 28.4235C19.6367 28.5886 19.4721 28.7976 19.2359 28.7446C19.1904 28.4644 19.5807 28.4139 19.5872 28.1595C19.4848 27.9454 19.25 27.8399 19.0516 27.7309C18.9057 27.8121 18.7472 27.8758 18.6179 27.9833C18.4463 28.1999 18.4407 28.5679 18.6886 28.731C18.9395 28.8643 19.2359 28.8698 19.513 28.8592C19.8245 28.8426 20.0795 28.6462 20.3142 28.4604C20.6272 28.262 20.8913 28.0005 21.1962 27.7904C21.6955 27.6678 22.2514 27.7985 22.6477 28.1272C22.6235 28.1807 22.6038 28.2377 22.5639 28.2822C22.4402 28.4245 22.3983 28.6159 22.2832 28.7653C22.3862 28.7572 22.4674 28.6936 22.5386 28.6255C22.7396 28.4331 22.9698 28.2756 23.1818 28.0969C23.25 28.0267 23.3525 28.0353 23.4413 28.0201C23.4787 28.1211 23.4751 28.2287 23.3727 28.2877C23.0561 28.5094 22.7628 28.7608 22.4634 29.0031C22.0908 29.2268 21.7203 29.458 21.3189 29.6276C20.9539 29.8397 20.7625 30.235 20.5445 30.5788C20.5843 30.9296 20.8499 31.1901 21.1013 31.4123C21.3618 31.6435 21.7324 31.7167 22.0681 31.639C22.1772 31.3987 22.2559 31.1387 22.4316 30.9357C22.5487 30.7959 22.6371 30.6353 22.7416 30.4859C22.9355 30.2516 23.1833 30.0663 23.4438 29.9108C23.5256 29.8588 23.6695 29.9275 23.6236 30.035C23.5504 30.185 23.3732 30.2385 23.253 30.3445C22.9496 30.5545 22.7961 30.8999 22.576 31.1836C22.473 31.3128 22.422 31.4719 22.3523 31.6193C22.2428 31.8141 22.2953 32.0711 22.4483 32.2276C22.7608 32.2806 23.0798 32.3291 23.3974 32.315C23.6468 32.2852 23.6887 31.9908 23.8654 31.8576C24.1855 31.59 24.4308 31.2492 24.7343 30.965C24.8408 30.8781 24.9079 30.6893 25.071 30.7232C25.1457 30.8181 25.1063 30.967 25.0114 31.0377C24.7544 31.2714 24.5576 31.5602 24.3031 31.796C24.1648 31.9484 23.9674 32.055 23.8831 32.2503C23.8851 32.3988 23.9548 32.5346 23.9946 32.6754C24.2011 32.7749 24.4465 32.8133 24.6646 32.7284C24.8362 32.6764 24.9291 32.5103 25.0579 32.3983C25.2654 32.2135 25.384 31.9545 25.5779 31.7571C25.7369 31.6006 25.853 31.3431 26.109 31.3456C26.1226 31.3865 26.1499 31.4678 26.1635 31.5087C25.9055 31.7495 25.6753 32.0191 25.4678 32.3044C25.3401 32.4785 25.1629 32.6078 25.0296 32.7779C24.7797 33.046 24.3733 33.0394 24.0411 32.9718C23.8321 32.9127 23.7367 32.7072 23.6847 32.5149C23.2959 32.63 22.8845 32.5755 22.4932 32.5048C22.2186 32.4392 22.0636 32.1792 22.0358 31.9131C21.7263 31.9303 21.3916 31.9227 21.124 31.746C20.8792 31.6152 20.7257 31.3739 20.5031 31.2149C20.1401 30.9387 19.771 30.6499 19.5262 30.2587C19.411 30.0689 19.4333 29.8407 19.4035 29.6291C19.3848 29.46 19.3308 29.2984 19.2793 29.1374C19.0132 29.1187 18.7411 29.0647 18.5195 28.9082C18.3539 28.7789 18.2504 28.5775 18.2388 28.368C18.2448 28.1923 18.1009 28.0777 18.0091 27.9475C17.8768 27.8899 17.7405 27.8228 17.592 27.8374C17.3346 27.8364 17.1599 28.054 16.966 28.1923C16.9615 28.315 16.9433 28.4392 16.965 28.5614C17.0741 28.8981 17.3406 29.144 17.591 29.3797C17.8041 29.5685 17.8702 29.8614 18.0661 30.0648C18.3867 30.4546 18.2272 30.9877 18.2655 31.4466C18.2519 31.744 18.4028 32.008 18.5392 32.2604C19.1596 32.5578 19.6705 33.0303 20.2718 33.3585C20.7757 33.6488 21.3754 33.6271 21.9343 33.7089C22.266 33.773 22.6048 33.7245 22.94 33.7457C23.3802 33.7402 23.8179 33.8316 24.2582 33.7841C24.4929 33.7533 24.7368 33.7594 24.9604 33.671C25.2381 33.566 25.537 33.5423 25.8187 33.4504C26.1817 33.3474 26.4977 33.1333 26.8244 32.9511C27.0288 32.8193 27.2843 32.6764 27.311 32.4063C27.2404 32.0969 27.1429 31.7929 27.0066 31.5057C26.9112 31.2179 26.7194 30.9751 26.6305 30.6848C26.6027 30.6767 26.5477 30.6611 26.5204 30.653C26.3523 30.3708 26.2635 30.0492 26.0757 29.7786C25.9565 29.5953 25.7924 29.4479 25.6541 29.2798C25.4294 29.0193 25.2437 28.7264 25.0039 28.4786C24.5793 28.0641 24.1017 27.6991 23.5721 27.429C23.3737 27.3149 23.1384 27.2518 22.9895 27.067C22.8108 26.9014 22.7426 26.6459 22.5356 26.5081C22.32 26.3582 22.1529 26.1396 21.9131 26.026C21.639 25.9613 21.3558 26.0351 21.1149 26.1714ZM20.7661 28.4604C20.3804 28.7098 20.0391 29.0586 19.5676 29.1384C19.6498 29.4272 19.6483 29.7296 19.7008 30.0239C20.0855 29.7574 20.4132 29.4211 20.7489 29.098C21.0897 28.7593 21.4562 28.4402 21.7208 28.0338C21.6869 28.0222 21.6183 27.9979 21.584 27.9863C21.2422 27.9858 21.0119 28.2655 20.7661 28.4604ZM21.9954 28.0615C21.8727 28.2307 21.7748 28.418 21.6344 28.574C21.2523 28.9824 20.8358 29.356 20.4425 29.7533C20.2496 29.9447 20.0194 30.0921 19.822 30.2784C19.9841 30.4238 20.131 30.5853 20.2855 30.7388C20.3041 30.5555 20.346 30.3733 20.4601 30.2239C20.6278 29.9179 20.8549 29.6458 21.1316 29.4322C21.3194 29.3247 21.5617 29.2863 21.69 29.094C21.8737 28.7931 22.217 28.5816 22.2559 28.2039C22.1999 28.1141 22.0848 28.1009 21.9954 28.0615Z" fill="#000E00"/>
<path d="M9.46379 20.262C9.74702 20.2469 10.0368 20.1843 10.315 20.2711C10.2958 20.3332 10.2761 20.3958 10.2574 20.4584C9.9742 20.4907 9.68744 20.4877 9.40523 20.5336C8.91855 20.5649 8.43035 20.8143 8.21427 21.2687C8.14511 21.2692 8.07594 21.2707 8.00677 21.2727C8.01485 21.1218 8.05524 20.9703 8.17287 20.8673C8.48891 20.4862 8.98064 20.2994 9.46379 20.262Z" fill="#000E00"/>
<path d="M7.30054 11.8122C7.37324 11.6593 7.49895 11.5295 7.65697 11.4654C7.84982 11.4719 8.03258 11.5462 8.2214 11.581C8.39911 11.6244 8.58742 11.6386 8.75554 11.7163C8.91154 11.8228 9.01099 11.9925 9.16194 12.1066C9.45779 12.3615 9.84552 12.46 10.1671 12.673C10.3928 12.8234 10.672 12.8325 10.9194 12.928C11.1127 13.0022 11.298 13.0986 11.5009 13.1455C11.9902 13.2662 12.4975 13.2182 12.9958 13.2314C13.4502 13.2223 13.9106 13.2637 14.3589 13.1657C14.6679 13.0941 14.9895 13.1683 15.2975 13.091C15.5686 13.0208 15.8508 13.0229 16.1244 12.9673C16.3895 12.9229 16.6772 12.8704 16.9362 12.9658C17.0958 13.1339 17.1831 13.3561 17.2518 13.5742C16.9059 13.5848 16.5758 13.4333 16.2289 13.4767C15.9265 13.5141 15.6216 13.4717 15.3192 13.503C14.9809 13.5398 14.6366 13.4899 14.3034 13.5716C14.3211 13.5828 14.3564 13.6055 14.3736 13.6166C13.9157 13.6332 13.4563 13.6272 12.9994 13.665C12.4329 13.7216 11.8503 13.559 11.2955 13.7292C10.9501 13.8296 10.5695 13.9003 10.3009 14.1588C9.96315 14.4789 9.63398 14.8091 9.33511 15.1665C9.18466 15.3392 9.1675 15.5865 9.20486 15.8036C9.16144 15.8657 9.11853 15.9273 9.07561 15.9894C9.18567 16.0434 9.29371 16.102 9.40731 16.15C9.57542 16.2206 9.76424 16.1898 9.93942 16.2317C10.0969 16.2878 10.1399 16.5185 10.3241 16.523C10.572 16.5513 10.8184 16.6053 11.039 16.728C10.99 16.8113 10.9411 16.8951 10.8926 16.9784C10.9537 16.9961 11.0158 17.0133 11.0769 17.0335C11.039 17.0456 10.9623 17.0693 10.9239 17.0809C10.9234 17.3041 11.1546 17.3747 11.2869 17.5121C11.4595 17.6751 11.6433 17.8266 11.8104 17.9957C12.1325 18.3461 12.603 18.5091 13.0524 18.6212C13.6405 18.6858 14.2236 18.8105 14.8179 18.806C14.989 18.8065 15.1576 18.8388 15.3257 18.8686C15.6983 18.9398 16.0795 18.8787 16.4546 18.9186C16.6464 18.9408 16.8388 18.9559 17.0322 18.965C16.7696 19.2281 16.5596 19.5456 16.2506 19.7587C16.0674 19.8985 15.8882 20.051 15.6711 20.1363C15.3005 20.2837 14.9047 20.362 14.5417 20.5311C14.2595 20.6619 13.9646 20.782 13.6481 20.7815C13.5189 20.7729 13.4775 20.9643 13.587 21.0218C13.9066 21.0688 14.2206 20.9612 14.5048 20.8249C14.8148 20.6735 15.1495 20.5871 15.4752 20.4776C15.5085 20.5154 15.5408 20.5533 15.5746 20.5922C15.7574 20.522 15.9457 20.464 16.1244 20.3832C16.2446 20.3286 16.3137 20.209 16.4162 20.1307C16.492 20.0924 16.5778 20.0793 16.6596 20.0565C16.7954 19.8697 16.908 19.6678 17.0367 19.4765C17.1392 19.3154 17.3795 19.3331 17.4719 19.1584C17.583 18.9731 17.794 18.9039 17.9767 18.8126C18.1752 18.7171 18.3261 18.5521 18.4806 18.4001C18.6164 18.2653 18.6295 18.0634 18.6896 17.8912C18.8279 17.9599 19.0021 18.0008 19.0889 18.1401C19.1253 18.3097 18.9587 18.5001 19.0723 18.6561C19.3141 18.8858 19.6322 19.009 19.9073 19.1922C20.0492 19.2907 20.1441 19.4386 20.2274 19.5865C20.393 19.6693 20.607 19.738 20.653 19.9429C20.7206 20.2034 20.9498 20.3584 21.1286 20.5397C21.2215 20.6194 21.2967 20.7411 21.4279 20.7588C21.5446 20.6018 21.6057 20.4003 21.6041 20.2055C21.4345 19.8606 21.1871 19.5577 20.9211 19.2816C21.1417 19.2791 21.3598 19.3174 21.5799 19.3245C21.6561 19.3331 21.7304 19.2851 21.7586 19.2149C21.7611 19.0539 21.7031 18.8989 21.7051 18.7378C21.743 18.6631 21.8465 18.7227 21.9131 18.7126C21.8783 18.7585 21.8465 18.807 21.8126 18.8524C21.9071 19.1024 21.7914 19.374 21.8889 19.6249C22.2059 19.6345 22.5235 19.6476 22.841 19.6325C23.0849 19.6365 23.2 19.382 23.357 19.2372C23.5529 19.2957 23.7604 19.377 23.879 19.5537C23.9235 19.7486 23.8775 19.9571 23.9517 20.1469C23.9855 20.258 24.0487 20.365 24.0456 20.4841C24.0335 20.5987 23.9038 20.6265 23.8225 20.6795C23.8689 20.8062 23.9209 20.9527 23.8245 21.0718C23.5483 21.4792 23.2742 21.9003 22.888 22.2143C21.7314 22.5647 20.496 22.5783 19.307 22.4082C18.9173 22.3339 18.5195 22.3663 18.1267 22.3309C17.7632 22.2986 17.3977 22.3228 17.0342 22.2996C16.6192 22.2814 16.2405 22.0623 15.822 22.0684C15.5494 22.0785 15.2823 22.028 15.0178 21.9689C14.5064 21.9215 14.0166 21.7579 13.5209 21.6357C13.0387 21.5822 12.5556 21.5186 12.0846 21.401C11.6514 21.2192 11.1834 21.1506 10.73 21.0385C10.5447 20.9946 10.4105 20.835 10.2206 20.8047C10.0747 20.7805 9.92983 20.7477 9.79504 20.6861C9.9374 20.682 10.0873 20.672 10.1863 20.5548C9.92731 20.524 9.66579 20.517 9.40529 20.5336C9.6875 20.4877 9.97426 20.4907 10.2575 20.4584C10.2762 20.3958 10.2959 20.3332 10.315 20.2711C10.0369 20.1843 9.74707 20.2469 9.46385 20.262C8.9807 20.2994 8.48897 20.4862 8.17293 20.8673C8.0553 20.9703 8.01491 21.1218 8.00683 21.2727C8.076 21.2707 8.14516 21.2692 8.21433 21.2687C8.29612 21.2778 8.41678 21.248 8.45817 21.3444C8.51977 21.561 8.44353 21.8049 8.55107 22.0103C8.6692 22.1638 8.80854 22.3021 8.89387 22.4793C9.04583 22.5111 9.21243 22.5273 9.33309 22.6363C9.58653 22.8297 9.8637 23.1023 10.211 23.0367C10.5104 23.1558 10.8007 23.2982 11.0678 23.48C11.6337 23.8101 12.2491 24.0429 12.8292 24.3463C13.1039 24.4725 13.373 24.6119 13.6501 24.7345C14.05 24.9082 14.4907 24.9244 14.9148 24.9981C15.2551 25.0571 15.608 25.0526 15.9351 25.1758C16.285 25.3197 16.6697 25.2495 17.0367 25.2641C17.5259 25.2429 18.0101 25.3409 18.4993 25.3247C19.3257 25.3373 20.1512 25.2975 20.9736 25.2227C21.4123 25.2409 21.852 25.2874 22.2918 25.2636C22.7224 25.1995 23.1222 24.9935 23.4433 24.7027C23.5393 24.8825 23.518 25.0955 23.4878 25.2899C23.3959 25.7331 23.0914 26.0982 22.7552 26.3849C22.5008 26.1678 22.2796 25.8881 21.9585 25.769C21.4895 25.6731 21.0347 25.8886 20.6368 26.1138C20.3501 26.3097 20.0522 26.4935 19.8023 26.7373C19.4731 27.014 19.1909 27.3532 18.8103 27.5638C18.6341 27.6592 18.4705 27.7758 18.3195 27.9076C18.1635 27.7485 17.9757 27.6001 17.7445 27.5855C17.3452 27.5319 16.9938 27.798 16.753 28.0883C16.5647 28.4412 16.7479 28.8441 16.9847 29.1233C17.1988 29.3626 17.4709 29.5559 17.6158 29.8508C17.742 30.1148 18.005 30.3248 18.0101 30.6363C18.0181 30.9079 17.9576 31.179 17.9964 31.4506C18.0272 31.5764 17.9101 31.6602 17.8445 31.75C17.7132 31.8899 17.6294 32.0676 17.4921 32.2019C17.3522 32.3044 17.1791 32.3432 17.021 32.4084C16.5419 32.5987 16.0462 32.8006 15.5211 32.7835C15.1172 32.7764 14.7123 32.7724 14.3105 32.8213C13.6683 32.8304 13.0256 32.8239 12.3829 32.8239C12.287 32.7915 12.1926 32.7476 12.0896 32.7486C11.769 32.7385 11.4459 32.7542 11.1319 32.8223C10.6624 32.9213 10.1868 32.8062 9.71426 32.8127C9.20839 32.8133 8.70101 32.8299 8.19666 32.7799C7.86547 32.7436 7.51712 32.7915 7.20663 32.6467C6.92088 32.5179 6.60232 32.5462 6.30193 32.4826C6.04193 32.428 5.77234 32.4079 5.52647 32.3023C5.08674 32.1231 4.60511 32.0388 4.19819 31.7854C4.02149 31.7137 3.83571 31.6496 3.70545 31.5021C3.52522 31.2941 3.22079 31.3037 3.02188 31.125C2.88557 31.0094 2.7336 30.9145 2.59123 30.8075C2.2656 30.5434 2.10253 30.1471 1.85111 29.8225C1.73298 29.6382 1.73348 29.409 1.65977 29.2071C1.59364 28.9905 1.42552 28.8062 1.42956 28.5704C1.42703 28.2559 1.42703 27.9419 1.42047 27.6274C1.44824 27.1053 1.4134 26.5788 1.51286 26.0628C1.60474 25.6079 1.62696 25.144 1.63554 24.6815C1.631 24.4028 1.77488 24.1514 1.79659 23.8763C1.82486 23.5582 1.86828 23.2386 1.97127 22.9347C2.03135 22.7656 2.04851 22.5859 2.04498 22.4076C2.0369 21.9942 2.1308 21.5893 2.22067 21.1889C2.3075 20.7754 2.52863 20.4044 2.60588 19.9884C2.65434 19.7218 2.86638 19.5295 2.94817 19.276C3.01228 19.1099 3.02491 18.9292 3.08953 18.7636C3.14456 18.6848 3.22483 18.6278 3.28137 18.5505C3.36467 18.3774 3.3672 18.1775 3.44899 18.0038C3.52067 17.8655 3.64083 17.7569 3.70091 17.612C3.75846 17.4838 3.78673 17.3389 3.88165 17.2309C3.98817 17.0991 4.12852 16.9804 4.16437 16.8068C4.22293 16.621 4.19365 16.3822 4.38348 16.2656C4.52484 16.1742 4.53089 15.996 4.57633 15.8501C4.6248 15.6426 4.80402 15.5047 4.88934 15.3149C4.96204 15.1549 5.01556 14.9827 5.13066 14.8454C5.29626 14.6424 5.34775 14.3724 5.52092 14.1734C5.75214 13.8892 5.87028 13.5328 6.10807 13.2531C6.23378 13.1036 6.34484 12.9436 6.45137 12.78C6.58364 12.5781 6.85374 12.5246 6.97743 12.3156C7.08547 12.148 7.2137 11.993 7.30054 11.8122ZM8.90598 19.4906C8.79996 19.5163 8.73332 19.6072 8.66517 19.6845C8.7 19.7294 8.73585 19.7738 8.77219 19.8182C8.85802 19.8182 8.93627 19.7794 9.01554 19.7506C9.29624 19.6345 9.60571 19.6335 9.90358 19.6067C9.90105 19.5219 9.89803 19.4376 9.8955 19.3533C9.5633 19.3674 9.22404 19.3861 8.90598 19.4906Z" fill="#4F7F3A"/>
<path d="M24.4183 11.9369C24.2663 11.8597 24.0038 11.8778 23.9619 11.6779C24.4077 11.7713 24.8212 11.9672 25.2316 12.158C25.2377 12.1818 25.2498 12.2292 25.2553 12.253C25.224 12.2474 25.1604 12.2373 25.1291 12.2323C24.6061 12.156 24.1058 11.9808 23.5848 11.8945C23.864 11.8688 24.1411 11.9107 24.4183 11.9369Z" fill="#B83732"/>
<path d="M20.2046 12.1267C20.6282 12.0742 21.0558 12.0919 21.4819 12.0899C21.9873 12.1141 22.4851 12.2302 22.9925 12.2398C23.2615 12.2418 23.5296 12.2691 23.7967 12.3004C23.6276 12.2524 23.4347 12.2242 23.3267 12.0682C23.668 12.1177 24.0143 12.1545 24.3424 12.2676C24.764 12.4165 25.2209 12.3878 25.646 12.521C26.0741 12.6377 26.4406 12.9047 26.7986 13.1566C26.9369 13.2359 27.0752 13.3308 27.1383 13.4843C26.64 13.1885 26.1847 12.7926 25.6187 12.626C25.544 12.6644 25.4789 12.7184 25.4122 12.7679C25.7671 12.8891 26.0877 13.086 26.3891 13.3066C26.3614 13.3091 26.3058 13.3142 26.2781 13.3167C25.9948 13.2086 25.7692 12.986 25.4693 12.9153C24.4076 12.5018 23.2691 12.311 22.1337 12.2777C21.7344 12.203 21.3284 12.1636 20.9225 12.1989C20.4495 12.2464 19.9739 12.2222 19.4999 12.255C19.2156 12.2777 18.9284 12.2444 18.6467 12.2974C18.2826 12.3635 17.9091 12.3494 17.5491 12.4398C17.02 12.573 16.4662 12.5215 15.9351 12.6397C15.6059 12.7129 15.2646 12.6806 14.9344 12.7477C14.6704 12.8022 14.4003 12.8038 14.1317 12.8179C14.3594 12.6472 14.6558 12.7205 14.9158 12.6528C15.1929 12.5796 15.4807 12.6033 15.7639 12.5796C16.2208 12.516 16.6727 12.4024 17.1366 12.3943C17.3426 12.3948 17.5456 12.3564 17.744 12.3039C18.0257 12.2247 18.3215 12.2615 18.6068 12.2045C19.1313 12.0823 19.673 12.1853 20.2046 12.1267Z" fill="#B83732"/>
<path d="M18.3508 12.5559C19.304 12.4226 20.2688 12.468 21.227 12.4059C21.4199 12.4034 21.6354 12.3736 21.8036 12.4923C22.1373 12.7134 22.469 12.9507 22.7184 13.2692C22.8562 13.4303 22.9774 13.6065 23.0556 13.8049C22.5058 13.7105 21.9469 13.7332 21.3946 13.7801C21.4633 13.7292 21.5244 13.6469 21.6193 13.6484C21.9777 13.6196 22.3407 13.6428 22.6956 13.5752C22.575 13.2723 22.3998 12.9577 22.0807 12.831C21.8672 12.7528 21.6991 12.5725 21.4729 12.5321C20.8045 12.4988 20.1355 12.5468 19.4686 12.5892C19.1425 12.6533 18.7987 12.617 18.4872 12.7482C18.2009 12.8795 17.8637 12.7487 17.589 12.9108C17.7334 13.189 17.9071 13.4525 18.0267 13.7433C18.1186 13.9568 18.1009 14.1946 18.1075 14.4218C18.3776 14.6546 18.5225 14.9857 18.7184 15.276C18.8284 15.4436 18.8113 15.6532 18.8123 15.8445C18.8088 16.2257 18.7053 16.5983 18.7113 16.9804C18.9698 16.9037 19.0521 16.6306 19.1839 16.4266C19.2904 16.2489 19.5176 16.1898 19.6201 16.0086C19.6917 15.897 19.7236 15.7673 19.7594 15.6416C19.6347 15.6304 19.5105 15.6168 19.3878 15.5936C19.5751 15.5689 19.6615 15.3831 19.7952 15.2745C20.2112 14.9141 20.7176 14.6121 21.2785 14.5723C21.8495 14.5233 22.423 14.5591 22.9925 14.6147C23.3787 14.6293 23.7998 14.7237 24.0764 15.0105C24.1739 15.3073 24.2047 15.6375 24.1209 15.9419C23.9643 15.7087 23.8195 15.4664 23.6407 15.2498C23.5165 15.0938 23.3217 15.0211 23.1354 14.9711C22.4937 14.8262 21.8258 14.8388 21.1785 14.9408C20.9463 14.9837 20.759 15.1377 20.5646 15.2609C20.2537 15.4532 19.9593 15.6865 19.7619 15.999C19.6185 16.2363 19.3787 16.3882 19.2142 16.6073C19.0122 16.8709 18.8017 17.1672 18.8204 17.5161C18.8047 17.6903 18.9592 17.8165 19.1112 17.8619C19.4353 17.9654 19.771 18.0497 20.1133 18.0522C20.7545 18.0654 21.3946 18.1229 22.0358 18.127C22.4639 18.0709 22.9178 18.0603 23.307 17.8533C23.6529 17.6807 23.879 17.3611 24.138 17.088C24.1405 17.25 24.1365 17.4192 24.0562 17.5651C23.8715 17.9912 23.5685 18.4253 23.0995 18.5571C22.8183 18.6106 22.5295 18.5621 22.2463 18.596C22.2478 18.647 22.2509 18.7494 22.2524 18.8004C22.5608 18.8353 22.8723 18.8529 23.1833 18.8353C22.9678 19.2376 22.4639 19.218 22.0721 19.1922C22.0605 19.2669 22.0535 19.3427 22.0464 19.4179C22.3251 19.4921 22.63 19.4674 22.9072 19.3926C23.1753 19.324 23.2964 19.0554 23.4893 18.8858C23.7518 19.1003 23.9613 19.379 24.1198 19.6779C24.2905 19.9904 24.2562 20.3716 24.1481 20.6992C24.0598 20.9375 23.9558 21.1707 23.829 21.3909C23.62 21.6761 23.4267 21.9846 23.1349 22.1941C23.0516 22.1991 22.9698 22.2047 22.888 22.2143C23.2742 21.9003 23.5483 21.4792 23.8245 21.0718C23.9209 20.9526 23.8689 20.8062 23.8225 20.6795C23.9038 20.6265 24.0335 20.5987 24.0456 20.4841C24.0487 20.365 23.9856 20.258 23.9517 20.1469C23.8775 19.9571 23.9235 19.7486 23.879 19.5537C23.7604 19.377 23.5529 19.2957 23.357 19.2371C23.2 19.382 23.0849 19.6365 22.841 19.6324C22.5235 19.6476 22.2059 19.6345 21.8889 19.6249C21.7914 19.374 21.9071 19.1023 21.8126 18.8524C21.8465 18.807 21.8783 18.7585 21.9131 18.7126C21.8465 18.7227 21.743 18.6631 21.7051 18.7378C21.7031 18.8989 21.7612 19.0539 21.7586 19.2149C21.7304 19.2851 21.6561 19.3331 21.5799 19.3245C21.3598 19.3174 21.1417 19.279 20.9211 19.2816C21.1871 19.5577 21.4345 19.8606 21.6041 20.2055C21.6057 20.4003 21.5446 20.6018 21.4279 20.7588C21.2967 20.7411 21.2215 20.6194 21.1286 20.5397C20.9498 20.3584 20.7206 20.2034 20.653 19.9429C20.6071 19.738 20.393 19.6693 20.2274 19.5865C20.1441 19.4386 20.0492 19.2907 19.9073 19.1922C19.6322 19.0089 19.3141 18.8858 19.0723 18.656C18.9587 18.5 19.1253 18.3097 19.0889 18.1401C19.0021 18.0007 18.8279 17.9599 18.6896 17.8912C18.6295 18.0633 18.6164 18.2653 18.4806 18.4001C18.3261 18.552 18.1752 18.7171 17.9767 18.8126C17.794 18.9039 17.583 18.9731 17.4719 19.1584C17.3795 19.3331 17.1392 19.3154 17.0367 19.4764C16.908 19.6678 16.7954 19.8697 16.6596 20.0565C16.5778 20.0792 16.492 20.0924 16.4162 20.1307C16.3137 20.209 16.2446 20.3286 16.1244 20.3832C15.9457 20.4639 15.7574 20.522 15.5746 20.5922C15.5408 20.5533 15.5085 20.5154 15.4752 20.4776C15.8321 20.3756 16.1527 20.1832 16.4359 19.947C16.7065 19.7617 16.8762 19.4749 17.1124 19.2533C17.2846 19.0857 17.4265 18.8752 17.6541 18.7762C17.9495 18.6419 18.2267 18.4597 18.4362 18.2087C18.4336 18.0709 18.4488 17.9301 18.416 17.7953C18.3307 17.6484 18.1514 17.5933 18.0535 17.4595C17.953 17.2586 17.894 17.041 17.8046 16.8355C17.6683 16.5155 17.5724 16.161 17.3214 15.9066C17.1826 15.7673 17.0367 15.6335 16.8696 15.529C16.4536 15.2836 15.972 15.1609 15.5787 14.8732C15.1097 14.5157 14.5563 14.2244 13.9546 14.2062C13.5173 14.1931 13.0771 14.1997 12.6445 14.2688C12.2199 14.334 11.7827 14.3557 11.3778 14.5107C11.036 14.6177 10.6851 14.7313 10.4084 14.9686C10.1646 15.1513 10.0147 15.4209 9.82483 15.6527C9.74354 15.7602 9.56987 15.8183 9.45325 15.7486C9.4275 15.5896 9.44921 15.4129 9.55978 15.2897C9.80564 14.9958 10.0813 14.7293 10.3484 14.4551C10.6018 14.1765 10.983 14.0795 11.3333 13.9831C11.8599 13.8286 12.4097 13.972 12.9469 13.9326C13.481 13.8836 14.0217 13.8579 14.5568 13.9038C14.9749 14.0194 15.3833 14.1744 15.7862 14.3375C16.1229 14.4708 16.4142 14.702 16.6414 14.9822C16.8767 15.2725 17.2195 15.4442 17.4689 15.7203C17.7107 15.9869 18.0166 16.2055 18.1772 16.5367C18.3105 16.7644 18.3201 17.035 18.3721 17.2879C18.4412 17.2864 18.5109 17.2854 18.5816 17.2838C18.5977 17.0203 18.5629 16.7543 18.4548 16.5119L18.4998 16.5155C18.5588 16.5054 18.6184 16.4948 18.6775 16.4826C18.6886 16.102 18.7194 15.7082 18.5957 15.3412C18.4816 14.9908 18.1762 14.7621 17.952 14.4849C17.9697 14.2623 18.0116 14.0245 17.9106 13.8145C17.7511 13.4454 17.5052 13.1223 17.3285 12.7618C17.3275 12.7482 17.3255 12.721 17.3245 12.7073C17.6597 12.6139 18.002 12.5554 18.3508 12.5559ZM19.1788 18.4627C19.1404 18.6268 19.3257 18.6843 19.4368 18.7515C19.8619 18.9282 20.2637 19.1892 20.5409 19.5633C20.7075 19.798 20.9509 19.9687 21.0988 20.2176C21.1609 20.3201 21.2235 20.423 21.2932 20.521C21.3487 20.518 21.4042 20.5149 21.4608 20.5124C21.4926 20.2792 21.3431 20.0818 21.1992 19.9167C20.9458 19.6274 20.6883 19.3411 20.4288 19.0574C20.8019 19.0347 21.1821 19.0968 21.5471 18.9872C21.5769 18.9105 21.5976 18.8307 21.6147 18.75C21.5345 18.7469 21.4537 18.7414 21.3749 18.758C20.6656 18.9115 19.9477 18.6712 19.301 18.3935C19.2702 18.4107 19.2091 18.4455 19.1788 18.4627Z" fill="#4F7F3A"/>
<path d="M22.2034 12.4923C22.2721 12.4928 22.3408 12.4933 22.4099 12.4943C22.9511 12.4998 23.4974 12.5493 24.0189 12.7003C23.5166 12.677 23.0188 12.5927 22.5154 12.5816C22.5149 12.6462 22.5154 12.7109 22.5159 12.7755C22.4205 12.6982 22.3216 12.6266 22.2176 12.5619C22.214 12.5448 22.207 12.5099 22.2034 12.4923Z" fill="#B83732"/>
<path d="M19.4686 12.5892C20.1355 12.5468 20.8044 12.4988 21.4729 12.5321C21.699 12.5725 21.8671 12.7528 22.0807 12.831C22.3998 12.9577 22.575 13.2723 22.6956 13.5752C22.3407 13.6428 21.9777 13.6196 21.6193 13.6484C21.5243 13.6469 21.4633 13.7292 21.3946 13.7801C21.1225 13.8155 20.8418 13.8337 20.5878 13.9447C20.4404 14.0088 20.2784 14.0699 20.1895 14.2133C20.2072 14.2502 20.243 14.3249 20.2607 14.3622C20.2354 14.4213 20.2072 14.4814 20.1587 14.5248C19.88 14.7692 19.5458 14.9499 19.2974 15.2281C19.2081 15.3159 19.2076 15.4421 19.2126 15.5583C19.2464 15.5653 19.3141 15.5795 19.3474 15.5865L19.3878 15.5936C19.5105 15.6168 19.6347 15.6304 19.7594 15.6416C19.7235 15.7673 19.6917 15.897 19.62 16.0086C19.5175 16.1898 19.2904 16.2489 19.1838 16.4266C19.0521 16.6306 18.9698 16.9037 18.7113 16.9804C18.7052 16.5983 18.8087 16.2257 18.8123 15.8445C18.8112 15.6532 18.8284 15.4436 18.7184 15.276C18.5225 14.9857 18.3776 14.6546 18.1075 14.4218C18.1009 14.1946 18.1186 13.9568 18.0267 13.7433C17.907 13.4525 17.7334 13.189 17.589 12.9108C17.8636 12.7487 18.2009 12.8795 18.4871 12.7482C18.7986 12.617 19.1424 12.6533 19.4686 12.5892Z" fill="#517E3A"/>
<path d="M22.5154 12.5816C23.0187 12.5927 23.5165 12.677 24.0189 12.7003C24.3723 12.7619 24.7231 12.8487 25.0548 12.9885C25.3583 13.1218 25.6864 13.1996 25.9701 13.3758C26.1085 13.4495 26.2387 13.5696 26.4063 13.556C26.4235 13.4525 26.3377 13.3849 26.2781 13.3167C26.3059 13.3142 26.3614 13.3091 26.3892 13.3066C26.0878 13.086 25.7672 12.8891 25.4123 12.7679C25.4789 12.7184 25.544 12.6644 25.6188 12.6261C26.1847 12.7927 26.6401 13.1885 27.1384 13.4843C27.152 13.4914 27.1788 13.505 27.1924 13.5121C27.2974 13.7266 27.2696 13.9675 27.2601 14.1982C27.1172 14.2562 26.9511 14.2865 26.8138 14.1982C26.4109 13.9745 25.9636 13.8529 25.5521 13.6479C25.119 13.509 24.6888 13.3601 24.2582 13.2132C23.8038 13.0562 23.308 13.0708 22.84 13.1516C22.7391 13.0203 22.6285 12.8967 22.5159 12.7755C22.5154 12.7109 22.5149 12.6462 22.5154 12.5816Z" fill="#B83732"/>
<path d="M17.0256 12.7619C17.1261 12.7694 17.2276 12.7709 17.3285 12.7619C17.5052 13.1223 17.7511 13.4454 17.9106 13.8145C18.0116 14.0245 17.9697 14.2623 17.952 14.4849C18.1762 14.7621 18.4816 14.9908 18.5957 15.3412C18.7194 15.7082 18.6886 16.102 18.6775 16.4827C18.6184 16.4948 18.5589 16.5054 18.4998 16.5155C18.4821 16.4907 18.4473 16.4407 18.4296 16.4155C18.4241 15.9955 18.4836 15.53 18.2196 15.1695C18.0116 14.9398 17.8117 14.7005 17.5734 14.5011C17.3507 14.3037 17.1781 14.028 16.8797 13.9356C16.5576 13.8412 16.2168 13.872 15.8862 13.866C15.71 13.8629 15.5333 13.8624 15.3576 13.8771C15.5545 14.0099 15.7877 14.0644 16.0043 14.1558C16.5485 14.3617 16.8353 14.9024 17.2937 15.2266C17.534 15.4078 17.7248 15.6426 17.945 15.846C18.1585 16.0313 18.3317 16.257 18.4549 16.5119C18.5629 16.7543 18.5977 17.0203 18.5816 17.2839C18.5109 17.2854 18.4412 17.2864 18.3721 17.2879C18.3201 17.035 18.3105 16.7644 18.1772 16.5367C18.0167 16.2055 17.7107 15.9869 17.4689 15.7203C17.2195 15.4442 16.8767 15.2725 16.6414 14.9822C16.4142 14.702 16.1229 14.4708 15.7862 14.3375C15.3833 14.1744 14.9749 14.0195 14.5569 13.9038C14.0217 13.8579 13.481 13.8836 12.9469 13.9326C12.4097 13.972 11.8599 13.8286 11.3334 13.9831C10.983 14.0795 10.6018 14.1765 10.3484 14.4551C10.0813 14.7293 9.80566 14.9958 9.5598 15.2897C9.44923 15.4129 9.42752 15.5896 9.45327 15.7486C9.56989 15.8183 9.74356 15.7602 9.82485 15.6527C10.0147 15.4209 10.1646 15.1513 10.4085 14.9686C10.6851 14.7313 11.036 14.6177 11.3778 14.5107C11.7827 14.3557 12.2199 14.334 12.6445 14.2689C13.0771 14.1997 13.5174 14.1931 13.9546 14.2063C14.5564 14.2244 15.1097 14.5157 15.5787 14.8732C15.972 15.1609 16.4536 15.2836 16.8696 15.529C16.6015 15.5557 16.3981 15.3548 16.1583 15.2745C15.9518 15.2044 15.7458 15.0398 15.5206 15.1433C15.0966 14.8409 14.6376 14.5435 14.1091 14.4774C13.6542 14.435 13.1943 14.4562 12.7439 14.5283C12.3214 14.5692 11.8948 14.6127 11.4904 14.748C11.2223 14.8388 10.9386 14.9055 10.7038 15.0711C10.4463 15.2538 10.2509 15.5068 10.0672 15.7597C10.1555 15.8188 10.2454 15.8763 10.3373 15.9303C10.3105 15.9359 10.2565 15.9475 10.2297 15.9531C10.259 15.9697 10.2888 15.9869 10.3186 16.0046C10.3267 16.0661 10.3342 16.1272 10.3428 16.1893C10.1853 16.1227 10.0308 16.049 9.87836 15.9727C9.70873 16.0182 9.53304 16.0313 9.35836 16.0217C9.30636 15.949 9.25436 15.8773 9.20488 15.8036C9.16752 15.5865 9.18469 15.3391 9.33513 15.1665C9.63401 14.8091 9.96318 14.4789 10.3009 14.1588C10.5695 13.9003 10.9502 13.8296 11.2955 13.7292C11.8503 13.559 12.4329 13.7216 12.9994 13.665C13.4563 13.6272 13.9157 13.6332 14.3736 13.6166C14.7729 13.5949 15.1718 13.6161 15.5706 13.6322C16.026 13.6156 16.493 13.557 16.9393 13.6822C17.2644 13.7731 17.4608 14.0669 17.7284 14.2507C17.7218 14.0816 17.686 13.9134 17.5966 13.768C17.4063 13.4328 17.217 13.0966 17.0256 12.7619Z" fill="#000C00"/>
<path d="M10.9238 17.0809C10.9622 17.0693 11.0389 17.0456 11.0768 17.0335C11.4676 17.2798 11.7786 17.6282 12.1178 17.9366C12.4217 18.1638 12.7888 18.2921 13.1533 18.3845C13.6889 18.4531 14.2246 18.5293 14.7648 18.5516C14.9672 18.5571 15.1687 18.5813 15.3686 18.6162C15.7684 18.6869 16.1764 18.6227 16.5787 18.6687C16.8201 18.6919 17.0745 18.7379 17.3088 18.646C17.6061 18.5288 17.911 18.391 18.1302 18.1492C18.1988 18.0795 18.1741 17.972 18.1887 17.8841C18.217 17.871 18.2745 17.8437 18.3028 17.8306C18.2937 17.9281 18.2846 18.0255 18.2761 18.1234C18.3291 18.1517 18.3826 18.18 18.4361 18.2088C18.2266 18.4597 17.9494 18.6419 17.6541 18.7762C17.4264 18.8752 17.2845 19.0857 17.1124 19.2533C16.8761 19.4749 16.7065 19.7617 16.4359 19.947C16.1526 20.1833 15.832 20.3756 15.4751 20.4776C15.1495 20.5871 14.8148 20.6735 14.5048 20.8249C14.2205 20.9612 13.9065 21.0688 13.5869 21.0218C13.4774 20.9643 13.5188 20.7729 13.648 20.7815C13.9646 20.782 14.2594 20.6619 14.5416 20.5311C14.9046 20.362 15.3004 20.2837 15.671 20.1363C15.8881 20.051 16.0673 19.8985 16.2506 19.7587C16.5595 19.5456 16.7696 19.2281 17.0321 18.965C16.8387 18.9559 16.6464 18.9408 16.4545 18.9186C16.0794 18.8787 15.6983 18.9398 15.3257 18.8686C15.1576 18.8388 14.9889 18.8065 14.8178 18.806C14.2236 18.8105 13.6405 18.6859 13.0523 18.6212C12.603 18.5092 12.1325 18.3461 11.8104 17.9957C11.6432 17.8266 11.4595 17.6751 11.2868 17.5121C11.1545 17.3747 10.9233 17.3041 10.9238 17.0809Z" fill="#000C00"/>
<path d="M22.7184 13.2692C22.8436 13.2798 22.9855 13.2803 23.0693 13.3914C23.2218 13.5782 23.2697 13.8655 23.51 13.9675C23.7292 14.077 23.9245 14.2264 24.13 14.3592C24.3072 14.4758 24.4789 14.6177 24.5783 14.809C24.6389 14.9166 24.5985 15.0393 24.5839 15.1523C24.5107 15.1741 24.4385 15.1963 24.3663 15.2185C24.3885 15.479 24.3794 15.7405 24.3426 15.999C24.2986 16.3206 24.4107 16.6361 24.3885 16.9582C24.386 17.5893 24.0275 18.1704 23.5494 18.5616C23.6029 18.759 23.7842 18.8716 23.9114 19.0185C24.126 19.2599 24.3077 19.535 24.4122 19.842C24.4859 20.0883 24.7419 20.212 24.8383 20.4468C24.9539 20.7093 25.1645 20.988 25.0605 21.2889C24.962 21.5519 24.801 21.7927 24.594 21.9836C24.393 22.1683 24.2254 22.3875 24.0795 22.6177C24.1578 22.8186 24.3441 22.9827 24.3315 23.2144C24.3532 23.437 24.2471 23.64 24.1174 23.8122L24.1275 23.7041C24.176 23.4739 24.2436 23.2301 24.1719 22.9968C24.1219 22.8862 24.0336 22.8004 23.9579 22.708C23.972 22.6055 23.9856 22.5026 24.0033 22.4006C24.2335 21.9593 24.7555 21.713 24.8686 21.201C24.8999 20.8598 24.6652 20.572 24.5011 20.2938C24.4556 20.6679 24.3123 21.0193 24.1376 21.35C24.0346 21.3636 23.9321 21.3772 23.8291 21.3909C23.9558 21.1707 24.0598 20.9375 24.1482 20.6992C24.2562 20.3716 24.2906 19.9904 24.1199 19.6779C23.9614 19.379 23.7519 19.1003 23.4894 18.8858C23.2965 19.0554 23.1753 19.324 22.9073 19.3926C22.6301 19.4674 22.3252 19.4921 22.0465 19.4179C22.0535 19.3427 22.0606 19.2669 22.0722 19.1922C22.464 19.218 22.9678 19.2377 23.1834 18.8353C22.8724 18.8529 22.5609 18.8353 22.2525 18.8004C22.2509 18.7495 22.2479 18.647 22.2464 18.596C22.5296 18.5622 22.8184 18.6106 23.0996 18.5571C23.5686 18.4253 23.8715 17.9912 24.0563 17.5651C24.1366 17.4192 24.1406 17.25 24.1381 17.088C23.8791 17.3611 23.6529 17.6807 23.3071 17.8533C23.2985 17.8235 23.2814 17.764 23.2728 17.7342C23.3268 17.718 23.3813 17.7024 23.4363 17.6867C23.4197 17.6196 23.4035 17.5524 23.3879 17.4853C23.6433 17.2773 23.8574 17.0173 24.0518 16.7527C23.7998 16.5846 23.5005 16.5129 23.2374 16.366C23.0814 16.2903 22.9335 16.1979 22.7891 16.102C22.6442 16.0419 22.4958 15.9879 22.3428 15.9536L22.3595 16.0687C22.3403 16.056 22.3019 16.0303 22.2827 16.0177C22.3085 15.9324 22.3433 15.8501 22.3746 15.7668C21.9733 15.7658 21.5764 15.683 21.1746 15.7031C21.0206 15.7148 20.8691 15.686 20.7313 15.6178C21.3023 15.6087 21.8748 15.6411 22.4418 15.7087C22.7982 15.7501 23.0764 15.9929 23.3889 16.1429C23.6443 16.259 23.8973 16.3867 24.1704 16.4569C24.0578 16.1782 23.8246 15.9788 23.6681 15.7274C23.5378 15.5502 23.448 15.3008 23.2011 15.2619C22.5463 15.0913 21.8521 15.0837 21.1897 15.2134C21.0161 15.2695 20.859 15.3669 20.7071 15.4664C20.6591 15.3977 20.6122 15.329 20.5647 15.2609C20.7591 15.1377 20.9464 14.9837 21.1786 14.9408C21.8258 14.8388 22.4938 14.8262 23.1354 14.9711C23.3217 15.0211 23.5166 15.0938 23.6408 15.2498C23.8195 15.4664 23.9644 15.7087 24.1209 15.9419C24.2047 15.6375 24.1739 15.3073 24.0765 15.0105C23.7998 14.7237 23.3788 14.6293 22.9926 14.6147C22.4231 14.5591 21.8496 14.5233 21.2786 14.5723C20.7177 14.6122 20.2113 14.9141 19.7953 15.2745C19.6615 15.3831 19.5752 15.5689 19.3879 15.5936L19.3475 15.5865C19.3389 15.5219 19.3303 15.4573 19.3223 15.3927C19.6969 14.9635 20.175 14.6233 20.7096 14.4254C21.2352 14.2547 21.7961 14.2956 22.3403 14.3032C22.6725 14.3244 23.0037 14.3607 23.3354 14.387C23.7256 14.4168 24.0639 14.6404 24.3421 14.9009C24.3385 14.8656 24.332 14.7949 24.3284 14.7596C24.1992 14.651 24.0659 14.5465 23.9205 14.4597C23.6454 14.2941 23.3793 14.079 23.0476 14.0482C22.6599 14.0114 22.2691 13.9649 21.8794 14.0023C21.5598 14.0285 21.2357 14.0316 20.9232 14.1088C20.6914 14.1638 20.4829 14.2815 20.2608 14.3622C20.2431 14.3249 20.2073 14.2502 20.1896 14.2133C20.2785 14.0699 20.4405 14.0088 20.5879 13.9447C20.8419 13.8337 21.1226 13.8155 21.3947 13.7801C21.947 13.7332 22.5059 13.7105 23.0557 13.8049C22.9774 13.6065 22.8563 13.4303 22.7184 13.2692Z" fill="#000B00"/>
<path d="M15.3575 13.8771C15.5332 13.8624 15.7099 13.8629 15.8861 13.866C15.9018 13.9705 15.9341 14.074 16.0043 14.1558C15.7877 14.0644 15.5544 14.0099 15.3575 13.8771Z" fill="#4F7F3A"/>
<path d="M15.8862 13.866C16.2169 13.872 16.5576 13.8412 16.8797 13.9356C17.1781 14.028 17.3508 14.3037 17.5734 14.5011C17.8117 14.7005 18.0116 14.9398 18.2196 15.1695C18.4837 15.53 18.4241 15.9955 18.4296 16.4155C18.4473 16.4407 18.4821 16.4907 18.4998 16.5155L18.4549 16.5119C18.3317 16.257 18.1585 16.0313 17.945 15.846C17.7249 15.6426 17.534 15.4078 17.2937 15.2266C16.8353 14.9024 16.5485 14.3617 16.0043 14.1558C15.9341 14.074 15.9018 13.9705 15.8862 13.866Z" fill="#547B40"/>
<path d="M20.9231 14.1088C21.2356 14.0316 21.5597 14.0285 21.8793 14.0023C22.269 13.9649 22.6598 14.0114 23.0475 14.0482C23.3792 14.079 23.6453 14.2941 23.9204 14.4597C24.0658 14.5465 24.1991 14.651 24.3284 14.7596C24.3319 14.7949 24.3385 14.8656 24.342 14.9009C24.0638 14.6404 23.7256 14.4168 23.3353 14.387C23.0036 14.3607 22.6724 14.3244 22.3402 14.3032C21.796 14.2956 21.2351 14.2547 20.7095 14.4254C20.1749 14.6233 19.6968 14.9635 19.3222 15.3927C19.3303 15.4573 19.3389 15.5219 19.3474 15.5865C19.3141 15.5795 19.2465 15.5653 19.2126 15.5582C19.2076 15.4421 19.2081 15.3159 19.2975 15.2281C19.5458 14.9499 19.8801 14.7692 20.1587 14.5248C20.2072 14.4814 20.2355 14.4213 20.2607 14.3622C20.4829 14.2815 20.6914 14.1638 20.9231 14.1088Z" fill="#547848"/>
<path d="M12.7439 14.5283C13.1942 14.4562 13.6541 14.4349 14.109 14.4774C14.6376 14.5435 15.0965 14.8409 15.5206 15.1433C15.7281 15.2851 15.9644 15.3745 16.1855 15.4921C14.9607 15.6567 13.7233 15.4881 12.494 15.5714C11.9745 15.6249 11.452 15.6582 10.9365 15.744C10.7295 15.7824 10.5437 15.8899 10.3372 15.9303C10.2454 15.8763 10.1555 15.8188 10.0671 15.7597C10.2509 15.5068 10.4463 15.2538 10.7038 15.0711C10.9385 14.9055 11.2223 14.8388 11.4903 14.748C11.8947 14.6127 12.3213 14.5692 12.7439 14.5283Z" fill="#587748"/>
<path d="M15.5206 15.1433C15.7458 15.0398 15.9518 15.2044 16.1583 15.2745C16.3981 15.3548 16.6015 15.5557 16.8696 15.529C17.0367 15.6335 17.1826 15.7673 17.3215 15.9066C17.5724 16.1611 17.6683 16.5155 17.8046 16.8355C17.894 17.041 17.953 17.2586 18.0535 17.4595C18.1514 17.5933 18.3307 17.6484 18.416 17.7953C18.4488 17.9301 18.4337 18.0709 18.4362 18.2088C18.3827 18.18 18.3292 18.1517 18.2761 18.1234C18.2847 18.0255 18.2938 17.9281 18.3029 17.8306C18.2746 17.8437 18.2171 17.871 18.1888 17.8841C18.1282 17.8422 18.0666 17.8034 18.0071 17.7615C17.9212 17.8432 17.8122 17.8917 17.6935 17.8983C17.3018 17.9366 16.9751 18.2057 16.5793 18.2254C15.8458 18.3203 15.1147 18.1679 14.3983 18.0255C14.05 17.9119 13.7062 17.7796 13.3482 17.6953C13.0973 17.6433 12.8691 17.5232 12.6308 17.4328C12.132 17.2702 11.8705 16.7336 11.3591 16.5902C11.0042 16.4988 10.6725 16.3458 10.3428 16.1893C10.3342 16.1272 10.3267 16.0661 10.3186 16.0046C10.2888 15.9869 10.259 15.9697 10.2297 15.9531C10.2565 15.9475 10.3105 15.9359 10.3373 15.9303C10.5438 15.8899 10.7295 15.7824 10.9365 15.744C11.452 15.6582 11.9745 15.6249 12.494 15.5714C13.7233 15.4881 14.9608 15.6567 16.1855 15.4921C15.9644 15.3745 15.7281 15.2851 15.5206 15.1433ZM15.3323 15.8132C15.354 15.8385 15.3974 15.8884 15.4192 15.9137L15.4525 15.9172L15.4505 15.9551C15.4656 15.9727 15.4959 16.0081 15.511 16.0258L15.5373 16.0288C15.5701 16.1171 15.6019 16.2065 15.6368 16.2948C15.664 16.6705 15.661 17.0536 15.5439 17.4151C15.4666 17.5641 15.4065 17.7236 15.2985 17.8538C15.294 17.8745 15.2849 17.9154 15.2803 17.9356C15.3939 17.9402 15.5115 17.9366 15.6211 17.974C15.921 17.9997 16.231 18.0169 16.5268 17.9594C16.6157 17.9568 16.7035 17.9382 16.7924 17.9336C16.8545 17.9048 16.9166 17.875 16.9812 17.8518C17.0665 17.814 17.1549 17.7822 17.2402 17.7423C17.2528 17.7423 17.278 17.7418 17.2907 17.7413C17.3558 17.713 17.4149 17.6716 17.4805 17.6413C17.5754 17.6332 17.6713 17.6362 17.7678 17.6322C17.7678 17.5489 17.7667 17.4656 17.7683 17.3828L17.7344 17.3858C17.7147 17.3288 17.6951 17.2717 17.6764 17.2147C17.6234 17.0743 17.5608 16.9385 17.4997 16.8017C17.4431 16.6291 17.3856 16.4564 17.3013 16.2953C17.1655 16.0939 16.9761 15.9389 16.7989 15.7759C16.4723 15.7562 16.1446 15.7617 15.8185 15.7834C15.658 15.8097 15.4949 15.8228 15.3323 15.8132ZM11.8125 15.8819L11.8084 15.9127C11.5363 15.9016 11.2748 15.9833 11.0037 15.9833L11.0052 16.0177C10.935 16.0222 10.8648 16.0268 10.7952 16.0318C10.7952 16.0571 10.7952 16.1075 10.7952 16.1323C10.8204 16.1303 10.8704 16.1267 10.8951 16.1247L10.9062 16.1833C10.9249 16.1807 10.9623 16.1752 10.981 16.1722C11.0057 16.1883 11.0562 16.2201 11.0814 16.2363C11.1622 16.2585 11.242 16.2878 11.3222 16.3145C11.5434 16.3761 11.7519 16.4756 11.9513 16.5887C11.9675 16.6129 11.9998 16.6609 12.0159 16.6846C12.0376 16.6871 12.081 16.6922 12.1028 16.6947C12.1164 16.6275 12.1356 16.5619 12.1593 16.4973C12.1618 16.4862 12.1674 16.464 12.1704 16.4529C12.185 16.4226 12.2148 16.362 12.23 16.3312L12.2673 16.3171C12.2653 16.2953 12.2618 16.2519 12.2598 16.2302L12.3244 16.2327L12.3113 16.1737L12.3466 16.1681C12.385 16.1136 12.4243 16.0596 12.4627 16.0046L12.4632 15.9682L12.5218 15.9748L12.5137 15.9127L12.5723 15.9268C12.5723 15.898 12.5728 15.841 12.5728 15.8122C12.5289 15.8238 12.4415 15.8475 12.3976 15.8592C12.2022 15.8592 12.0073 15.8758 11.8125 15.8819ZM12.9327 16.2469C12.9847 16.363 13.0706 16.4508 13.1983 16.4796C13.2957 16.417 13.4406 16.3494 13.4245 16.21C13.4265 16.0813 13.2882 16.0338 13.2033 15.9682C13.06 16.0005 12.9726 16.1116 12.9327 16.2469ZM14.4069 16.4276C14.3903 16.4271 14.3564 16.4271 14.3398 16.4266L14.3347 16.462C14.3176 16.4776 14.2832 16.5089 14.2661 16.5246L14.2343 16.521C14.1792 16.6265 14.1267 16.7381 14.1368 16.8608C14.16 16.9093 14.1838 16.9582 14.208 17.0072C14.3277 17.1854 14.5463 17.1309 14.7295 17.1329C14.8588 17.0779 14.9507 16.9739 15.0188 16.8542C15.0425 16.7164 15.0774 16.5538 14.9527 16.4544L14.939 16.4337C14.9113 16.4231 14.8562 16.4019 14.8285 16.3913C14.7714 16.3716 14.7149 16.3509 14.6599 16.3292C14.5745 16.3595 14.4897 16.3913 14.4069 16.4276ZM13.2887 16.7366C13.2422 16.7911 13.1609 16.7916 13.115 16.8467C13.117 16.9188 13.1175 16.9915 13.1261 17.0637C13.1534 17.0784 13.2079 17.1082 13.2346 17.1228C13.2816 17.1289 13.3291 17.1309 13.377 17.1304C13.4108 17.0971 13.4447 17.0637 13.4785 17.0299C13.4775 16.9532 13.476 16.8769 13.4734 16.8002C13.4462 16.7856 13.3917 16.7553 13.3644 16.7406C13.3457 16.7396 13.3073 16.7376 13.2887 16.7366Z" fill="#000302"/>
<path d="M21.1896 15.2134C21.852 15.0837 22.5462 15.0913 23.201 15.2619C23.4478 15.3008 23.5377 15.5502 23.668 15.7274C23.8245 15.9788 24.0577 16.1782 24.1703 16.4569C23.8972 16.3867 23.6442 16.259 23.3888 16.1429C23.0763 15.9929 22.7981 15.7501 22.4417 15.7087C21.8747 15.6411 21.3022 15.6087 20.7312 15.6178C20.6706 15.6077 20.61 15.5981 20.5505 15.5891C20.602 15.5472 20.6535 15.5058 20.707 15.4664C20.8589 15.3669 21.016 15.2695 21.1896 15.2134ZM21.5466 15.2599C21.3805 15.2811 21.2088 15.322 21.0897 15.4482C21.5284 15.5885 21.9964 15.4921 22.4417 15.5926C22.5734 15.6244 22.7178 15.6032 22.8456 15.6461C23.0324 15.8213 23.2838 16.0545 23.5518 15.8884C23.5251 15.5759 23.2661 15.2922 22.9435 15.2861C22.4785 15.2695 22.0105 15.2033 21.5466 15.2599Z" fill="#5A754D"/>
<path d="M21.5466 15.2599C22.0105 15.2033 22.4785 15.2695 22.9435 15.2861C23.2661 15.2922 23.5251 15.5759 23.5518 15.8884C23.2838 16.0545 23.0324 15.8213 22.8456 15.6461C22.7178 15.6032 22.5734 15.6244 22.4417 15.5926C21.9964 15.4921 21.5284 15.5886 21.0897 15.4482C21.2088 15.322 21.3805 15.2811 21.5466 15.2599Z" fill="#527D3A"/>
<path d="M19.7619 15.999C19.9593 15.6865 20.2537 15.4532 20.5647 15.2609C20.6121 15.329 20.6591 15.3977 20.707 15.4664C20.6535 15.5057 20.602 15.5471 20.5505 15.589C20.6101 15.5981 20.6707 15.6077 20.7313 15.6178C20.8691 15.686 21.0205 15.7148 21.1745 15.7031C21.5764 15.6829 21.9732 15.7657 22.3746 15.7668C22.3433 15.8501 22.3084 15.9323 22.2827 16.0177C22.3019 16.0303 22.3402 16.056 22.3594 16.0687L22.4114 16.0989C22.4124 16.1106 22.4155 16.1333 22.417 16.1449C22.5381 16.3115 22.5947 16.5104 22.6583 16.7033C22.6699 16.8734 22.6684 17.044 22.6633 17.2147C22.6164 17.2929 22.5967 17.3843 22.5487 17.4616C22.5316 17.512 22.5124 17.5615 22.4902 17.61C22.4407 17.6746 22.3912 17.7387 22.3417 17.8028C22.4907 17.7993 22.6396 17.7872 22.7885 17.772C22.8522 17.7387 22.9249 17.7281 22.9935 17.7064C23.1233 17.6337 23.2697 17.5822 23.3878 17.4853C23.4035 17.5524 23.4196 17.6196 23.4363 17.6867C23.3812 17.7024 23.3267 17.718 23.2727 17.7342C23.2813 17.764 23.2985 17.8235 23.307 17.8533C22.9178 18.0603 22.4639 18.0709 22.0358 18.127C21.3946 18.1229 20.7545 18.0654 20.1133 18.0522C19.771 18.0497 19.4353 17.9654 19.1112 17.8619C18.9592 17.8165 18.8047 17.6903 18.8204 17.5161C18.8017 17.1672 19.0122 16.8709 19.2142 16.6073C19.3787 16.3882 19.6185 16.2363 19.7619 15.999ZM20.392 16.3337C20.3925 16.4074 20.394 16.4816 20.3965 16.5558C20.4147 16.5841 20.4506 16.6407 20.4682 16.6689C20.6575 16.6967 20.7984 16.5321 20.7878 16.3509C20.708 16.2923 20.6358 16.1929 20.5243 16.212C20.4697 16.2398 20.4339 16.2913 20.392 16.3337ZM19.766 16.4089C19.6766 16.4877 19.5958 16.576 19.5095 16.6578C19.4726 16.7033 19.4343 16.7477 19.3939 16.7896C19.3363 16.885 19.2697 16.9769 19.2147 17.0758L19.1879 17.0885C19.1253 17.2414 18.9829 17.5019 19.1622 17.613C19.2364 17.6256 19.3091 17.6398 19.3843 17.6489L19.3868 17.6842C19.4519 17.6872 19.5176 17.6908 19.5832 17.6948L19.5837 17.7387L19.6973 17.7397C19.6902 17.6943 19.6761 17.6034 19.6695 17.5575C19.6079 17.3889 19.6403 17.2071 19.6428 17.0329L19.6776 17.0344C19.6801 16.9032 19.6912 16.7704 19.7554 16.6533C19.7766 16.5947 19.7932 16.5351 19.8053 16.4736L19.8462 16.473C19.8397 16.4493 19.8271 16.4019 19.8205 16.3781L19.8811 16.3791C19.8801 16.3468 19.8785 16.2822 19.878 16.2499C19.8462 16.307 19.8089 16.3605 19.766 16.4089ZM21.5622 16.6427C21.4239 16.78 21.4264 17.0334 21.5728 17.1647C21.6728 17.2849 21.8985 17.3303 22.0035 17.195C22.0111 17.1945 22.0267 17.1935 22.0348 17.193C22.0727 17.1354 22.1115 17.0784 22.1519 17.0223C22.1635 16.8668 22.161 16.7068 22.0419 16.5907C21.9318 16.5796 21.8228 16.5619 21.7167 16.5331C21.6637 16.568 21.6122 16.6048 21.5622 16.6427ZM20.4834 17.1228C20.4193 17.195 20.4379 17.297 20.4601 17.3823C20.5308 17.46 20.6348 17.4378 20.7282 17.4303C20.7474 17.407 20.7853 17.3601 20.8045 17.3364C20.7959 17.251 20.7782 17.1672 20.7434 17.089C20.6575 17.1011 20.5581 17.0693 20.4834 17.1228Z" fill="#010201"/>
<path d="M15.3323 15.8132C15.4949 15.8228 15.658 15.8097 15.8185 15.7834C16.1447 15.7617 16.4723 15.7562 16.7989 15.7759C16.9761 15.9389 17.1655 16.0939 17.3013 16.2954C17.3856 16.4564 17.4431 16.6291 17.4997 16.8017C17.5608 16.9385 17.6234 17.0743 17.6764 17.2147C17.6951 17.2717 17.717 17.2662 17.7367 17.3232L17.7683 17.3828C17.7668 17.4656 17.7678 17.5489 17.7678 17.6322C17.6713 17.6363 17.6231 17.6451 17.4997 17.6829C17.4341 17.7132 17.3558 17.713 17.2907 17.7413C17.2781 17.7418 17.2192 17.7776 17.2066 17.7776C17.1213 17.8175 17.0665 17.814 16.9812 17.8518C16.9166 17.8751 16.8545 17.9048 16.7924 17.9336C16.7035 17.9382 16.6157 17.9568 16.5268 17.9594C16.231 18.0169 15.921 17.9998 15.6211 17.974C15.5116 17.9366 15.3939 17.9402 15.2803 17.9356C15.2849 17.9154 15.294 17.8745 15.2985 17.8538C15.4066 17.7236 15.4666 17.5641 15.5439 17.4151C15.661 17.0536 15.664 16.6705 15.6368 16.2948C15.6019 16.2065 15.5734 16.1621 15.5406 16.0737L15.5111 16.0258C15.4959 16.0081 15.4656 15.9728 15.4505 15.9551L15.427 15.9223L15.4192 15.9137C15.3975 15.8884 15.354 15.8385 15.3323 15.8132Z" fill="#FCFFFE"/>
<path d="M9.07556 15.9894C9.11847 15.9273 9.16139 15.8657 9.2048 15.8036C9.25428 15.8773 9.30628 15.949 9.35828 16.0217C9.53296 16.0313 9.70865 16.0182 9.87828 15.9727C10.0308 16.049 10.1852 16.1227 10.3428 16.1893C10.6724 16.3458 11.0041 16.4988 11.359 16.5902C11.8704 16.7336 12.132 17.2702 12.6308 17.4328C12.8691 17.5232 13.0973 17.6433 13.3482 17.6953C13.7061 17.7796 14.0499 17.9119 14.3983 18.0255C15.1147 18.1679 15.8457 18.3203 16.5792 18.2254C16.9751 18.2057 17.3017 17.9366 17.6935 17.8983C17.8121 17.8917 17.9212 17.8432 18.007 17.7615C18.0666 17.8034 18.1281 17.8422 18.1887 17.8841C18.1741 17.972 18.1988 18.0795 18.1302 18.1492C17.9111 18.391 17.6061 18.5288 17.3088 18.646C17.0745 18.7378 16.8201 18.6919 16.5787 18.6687C16.1764 18.6227 15.7684 18.6869 15.3686 18.6162C15.1687 18.5813 14.9672 18.5571 14.7648 18.5516C14.2246 18.5293 13.6889 18.4531 13.1533 18.3844C12.7888 18.2921 12.4218 18.1638 12.1178 17.9366C11.7786 17.6282 11.4676 17.2798 11.0768 17.0335C11.0157 17.0133 10.9536 16.9961 10.8925 16.9784C10.941 16.8951 10.99 16.8113 11.039 16.728C10.8183 16.6053 10.572 16.5513 10.3241 16.523C10.1398 16.5185 10.0969 16.2878 9.93937 16.2317C9.76419 16.1898 9.57537 16.2206 9.40725 16.15C9.29366 16.102 9.18562 16.0434 9.07556 15.9894Z" fill="#527B40"/>
<path d="M11.8125 15.8819C12.0074 15.8758 12.1594 15.8655 12.36 15.8465C12.404 15.8349 12.5289 15.8238 12.5728 15.8122C12.5728 15.841 12.5723 15.898 12.5723 15.9268L12.5494 15.9412L12.5218 15.9748L12.4926 15.9833L12.4628 16.0045C12.4244 16.0596 12.385 16.1136 12.3467 16.1681L12.3411 16.2062L12.3244 16.2327L12.3032 16.263C12.3053 16.2847 12.2654 16.2953 12.2674 16.3171L12.23 16.3312C12.2149 16.362 12.1851 16.4226 12.1705 16.4529C12.1674 16.464 12.1619 16.4862 12.1594 16.4973C12.1356 16.5619 12.1164 16.6275 12.1028 16.6947C12.0811 16.6922 12.0377 16.6871 12.016 16.6846C11.9998 16.6609 11.9675 16.6129 11.9514 16.5887C11.7519 16.4756 11.5434 16.3761 11.3223 16.3145C11.242 16.2878 11.1623 16.2585 11.0815 16.2363C11.0562 16.2201 11.0058 16.1883 10.981 16.1722C10.9623 16.1752 10.9399 16.1469 10.9212 16.1494H10.8644C10.8455 16.1305 10.8205 16.1303 10.7952 16.1323C10.7952 16.1075 10.7952 16.0571 10.7952 16.0318C10.8649 16.0268 10.8455 16.0169 10.9063 16.0045L11.0037 15.9833C11.2748 15.9833 11.2998 15.9412 11.5649 15.9127L11.8125 15.8819Z" fill="#FCFCFE"/>
<path d="M22.3427 15.9536C22.4957 15.9879 22.6441 16.0419 22.789 16.102C22.9334 16.1979 23.0814 16.2903 23.2374 16.366C23.5004 16.5129 23.7998 16.5846 24.0517 16.7527C23.8573 17.0173 23.6433 17.2773 23.3878 17.4853C23.2697 17.5822 23.1233 17.6337 22.9935 17.7064C22.9248 17.7281 22.8521 17.7387 22.7885 17.772C22.6396 17.7872 22.4907 17.7993 22.3417 17.8028C22.3912 17.7387 22.4407 17.6746 22.4902 17.61C22.5124 17.5615 22.5316 17.512 22.5487 17.4616C22.5967 17.3843 22.6164 17.2929 22.6633 17.2147C22.6684 17.044 22.6699 16.8734 22.6583 16.7033C22.5947 16.5104 22.5381 16.3115 22.417 16.1449C22.4154 16.1333 22.3852 16.1136 22.3842 16.102L22.3594 16.0687L22.3427 15.9536Z" fill="#FDFEFE"/>
<path d="M12.963 16.2095C13.0302 16.0954 13.1801 15.9672 13.3013 16.0939C13.4765 16.1772 13.3305 16.414 13.173 16.3938C13.0504 16.4236 13.0115 16.2923 12.963 16.2095Z" fill="#F8FAFB"/>
<path d="M19.7659 16.4089C19.8089 16.3605 19.8462 16.307 19.878 16.2499C19.8785 16.2822 19.88 16.3468 19.8811 16.3792L19.8571 16.4145C19.8462 16.4361 19.8571 16.4145 19.8381 16.4524L19.8192 16.5092C19.7813 16.5659 19.7766 16.5947 19.7553 16.6533C19.6912 16.7704 19.7056 16.8121 19.6678 16.9446L19.6428 17.0329C19.6402 17.2071 19.6079 17.3889 19.6695 17.5575C19.6761 17.6034 19.6902 17.6943 19.6973 17.7397L19.5837 17.7387L19.4974 17.7208C19.4216 17.7019 19.4595 17.7019 19.3868 17.6842L19.308 17.664C19.2328 17.6549 19.2364 17.6256 19.1621 17.613C18.9829 17.502 19.1129 17.3058 19.1755 17.1528L19.2146 17.0759C19.2697 16.9769 19.3363 16.885 19.3939 16.7896C19.4343 16.7477 19.4726 16.7033 19.5095 16.6578C19.5958 16.576 19.6766 16.4877 19.7659 16.4089Z" fill="#FCFDFC"/>
<path d="M20.392 16.3337C20.4915 16.3166 20.6222 16.2085 20.6944 16.3292C20.7919 16.4428 20.6556 16.5609 20.5859 16.6442C20.5223 16.6144 20.4592 16.5851 20.3966 16.5559C20.394 16.4816 20.3925 16.4074 20.392 16.3337Z" fill="#FDFDFD"/>
<path d="M14.4069 16.4276C14.4897 16.3913 14.5646 16.3292 14.6598 16.3292C14.7329 16.3292 14.7714 16.3716 14.8285 16.3913C14.8562 16.4019 14.9112 16.4231 14.939 16.4337L14.9526 16.4544C15.0773 16.5538 15.0425 16.7164 15.0188 16.8542C14.9506 16.9739 14.8587 17.0779 14.7295 17.1329C14.5462 17.1309 14.3276 17.1854 14.208 17.0072C14.1837 16.9582 14.16 16.9093 14.1368 16.8608C14.1267 16.7381 14.1603 16.6904 14.2153 16.5849L14.266 16.5245C14.2832 16.5089 14.3175 16.4776 14.3347 16.4619L14.3668 16.4334C14.3834 16.4339 14.3902 16.4271 14.4069 16.4276Z" fill="#FBFDFD"/>
<path d="M21.5622 16.6427C21.6178 16.5849 21.6367 16.547 21.7167 16.5331C21.8639 16.5331 21.9318 16.5796 22.0418 16.5907C22.161 16.7068 22.1635 16.8668 22.1519 17.0223C22.1115 17.0784 22.0726 17.1354 22.0348 17.193C22.0267 17.1935 21.9093 17.2091 21.9017 17.2096C21.7594 17.2046 21.6551 17.2551 21.5738 17.0981C21.4693 16.9638 21.5299 16.7906 21.5622 16.6427Z" fill="#FCFBFC"/>
<path d="M13.2886 16.7366C13.3073 16.7376 13.3456 16.7396 13.3643 16.7406C13.3916 16.7553 13.4461 16.7856 13.4734 16.8002C13.4759 16.8769 13.4774 16.9532 13.4784 17.0299C13.4446 17.0637 13.4108 17.0971 13.3769 17.1304C13.329 17.1309 13.2815 17.1289 13.2346 17.1228C13.2078 17.1082 13.1533 17.0784 13.126 17.0637C13.1175 16.9915 13.1169 16.9188 13.1149 16.8467C13.1609 16.7916 13.2422 16.7911 13.2886 16.7366Z" fill="#FAFCFE"/>
<path d="M20.4833 17.1228C20.5581 17.0693 20.6575 17.1011 20.7433 17.089C20.7408 17.1874 20.7408 17.2859 20.7393 17.3848C20.6459 17.3853 20.5525 17.3848 20.4601 17.3823C20.4379 17.297 20.4192 17.195 20.4833 17.1228Z" fill="#F9F9F9"/>
<path d="M19.1788 18.4627C19.2091 18.4455 19.2702 18.4107 19.301 18.3935C19.9477 18.6712 20.6657 18.9115 21.375 18.758C21.4537 18.7414 21.5345 18.7469 21.6148 18.75C21.5976 18.8307 21.5769 18.9105 21.5471 18.9872C21.1821 19.0968 20.802 19.0347 20.4289 19.0574C20.6884 19.3411 20.9458 19.6274 21.1993 19.9167C21.3432 20.0818 21.4926 20.2792 21.4608 20.5124C21.4043 20.5149 21.3487 20.518 21.2932 20.521C21.2235 20.4231 21.1609 20.3201 21.0988 20.2176C20.9509 19.9687 20.7076 19.798 20.541 19.5633C20.2638 19.1892 19.8619 18.9282 19.4368 18.7515C19.3258 18.6843 19.1405 18.6268 19.1788 18.4627Z" fill="#000D00"/>
<path d="M8.90604 19.4906C9.2241 19.3861 9.56336 19.3674 9.89556 19.3533C9.89808 19.4376 9.90111 19.5219 9.90364 19.6067C9.60577 19.6335 9.29629 19.6345 9.01559 19.7506C8.93633 19.7794 8.85808 19.8182 8.77225 19.8182C8.7359 19.7738 8.70006 19.7294 8.66522 19.6844C8.73338 19.6072 8.80002 19.5163 8.90604 19.4906Z" fill="#000F00"/>
<path d="M24.5011 20.2938C24.6652 20.572 24.8999 20.8598 24.8686 21.201C24.7555 21.713 24.2335 21.9593 24.0033 22.4006C23.7317 22.7434 23.3379 22.9519 23.041 23.2684C22.7114 23.5744 22.2368 23.4749 21.8299 23.5113C20.9242 23.6168 20.0129 23.5007 19.1052 23.5426C18.6649 23.5663 18.2297 23.4815 17.7925 23.4527C17.1736 23.4254 16.5667 23.2836 15.97 23.1266C15.6262 23.0316 15.2667 23.0422 14.9149 23.0104C14.617 22.9857 14.3181 23.0584 14.0223 23.0024C13.7289 22.9509 13.4392 22.8787 13.1428 22.8418C12.8071 22.8055 12.5183 22.6156 12.1972 22.5283C11.9614 22.4596 11.7338 22.3673 11.5056 22.2789C11.2011 22.1643 10.871 22.134 10.5726 22.0038C10.3444 21.8765 10.1445 21.7064 9.92384 21.5671C9.8779 21.5706 9.78501 21.5777 9.73906 21.5807C9.81833 21.8356 10.0546 21.9851 10.2626 22.128C10.6806 22.3975 11.1971 22.4087 11.6429 22.6121C11.9428 22.7489 12.2689 22.813 12.5703 22.9473C12.8318 23.0675 13.1226 23.0776 13.3983 23.1457C13.5664 23.1861 13.7355 23.2235 13.9077 23.2457C14.5236 23.3416 15.1547 23.2154 15.7671 23.3477C16.3562 23.4694 16.9338 23.6693 17.5391 23.6955C18.0122 23.7157 18.4796 23.8117 18.9537 23.8031C19.5267 23.8021 20.1012 23.7733 20.6712 23.8445C21.2609 23.8283 21.8491 23.7753 22.4387 23.7531C22.7093 23.7389 22.9941 23.6678 23.198 23.4795C23.4459 23.2583 23.6867 23.0231 23.9745 22.8534C24.0467 22.9988 24.1356 23.1518 24.1164 23.3209C24.0932 23.5239 23.977 23.7016 23.8463 23.853C23.6302 24.0676 23.504 24.3604 23.2566 24.5447C23.0309 24.7285 22.7735 24.8774 22.4902 24.9506C22.0621 25.0839 21.6138 24.9663 21.1776 24.9597C20.8727 24.942 20.5728 25.0167 20.2684 25.0132C19.9301 25.0127 19.5954 25.0723 19.2571 25.0657C18.7492 25.0597 18.2388 25.0839 17.7325 25.0278C17.2816 24.9955 16.8288 25.0243 16.3774 25.0087C16.1684 25.0016 15.9766 24.9127 15.7777 24.8597C15.5394 24.787 15.2864 24.8168 15.0446 24.7643C14.6205 24.6689 14.1682 24.6921 13.7668 24.5053C13.471 24.3645 13.167 24.2393 12.8783 24.0843C12.485 23.8546 12.0442 23.7243 11.6479 23.5007C11.2627 23.3209 10.9235 23.0579 10.5322 22.8908C10.1621 22.7292 9.79813 22.5434 9.48108 22.291C9.31196 22.1613 9.11456 22.0659 8.97421 21.9018C8.98986 21.6564 8.90504 21.3717 9.08073 21.1657C9.12516 21.0975 9.21149 21.1203 9.27813 21.1258C9.52753 21.1632 9.77441 21.2162 10.0258 21.2389C9.98695 21.2121 9.94757 21.1864 9.90819 21.1617C10.3696 21.3096 10.8381 21.4358 11.2955 21.5973C11.911 21.7953 12.5592 21.8437 13.1862 21.9896C13.6542 22.1098 14.1313 22.1911 14.6008 22.3057C15.0678 22.4394 15.5591 22.4369 16.0351 22.5248C16.3653 22.5899 16.7046 22.5848 17.0347 22.6505C17.3685 22.7161 17.7102 22.6767 18.0475 22.7C18.7851 22.7701 19.5267 22.7979 20.2648 22.8671C20.7207 22.915 21.1741 22.8216 21.63 22.8322C22.0429 22.8428 22.4483 22.7434 22.8416 22.6257C23.4464 22.4304 23.8367 21.8775 24.1376 21.35C24.3123 21.0193 24.4556 20.6679 24.5011 20.2938Z" fill="#8B4228"/>
<path d="M8.21429 21.2687C8.43037 20.8143 8.91857 20.5649 9.40525 20.5336C9.66576 20.517 9.92727 20.524 10.1863 20.5548C10.0873 20.6719 9.93737 20.682 9.795 20.6861C9.9298 20.7477 10.0747 20.7805 10.2206 20.8047C10.4104 20.835 10.5447 20.9945 10.73 21.0385C11.1834 21.1505 11.6514 21.2192 12.0845 21.401C12.5556 21.5186 13.0387 21.5822 13.5208 21.6357C14.0166 21.7579 14.5063 21.9215 15.0177 21.9689C15.2823 22.028 15.5494 22.0785 15.822 22.0684C16.2405 22.0623 16.6191 22.2814 17.0341 22.2996C17.3976 22.3228 17.7632 22.2986 18.1266 22.3309C18.5194 22.3662 18.9173 22.3339 19.307 22.4081C20.4959 22.5783 21.7313 22.5647 22.888 22.2143C22.9697 22.2047 23.0515 22.1991 23.1348 22.1941C22.8763 22.3945 22.5487 22.449 22.2367 22.5081C21.7904 22.6131 21.329 22.5692 20.8756 22.6121C20.3844 22.653 19.8947 22.5823 19.4065 22.5394C18.8844 22.5424 18.369 22.4319 17.8465 22.4405C17.6602 22.4405 17.4734 22.4455 17.2876 22.4299C16.5984 22.343 15.9123 22.2365 15.2222 22.1603C14.3867 22.0234 13.5683 21.8023 12.7383 21.6387C12.1739 21.5565 11.6074 21.456 11.0763 21.2414C10.6386 21.1243 10.2125 20.9658 9.76824 20.8734C9.4931 20.8153 9.17756 20.6896 8.9115 20.8391C8.49247 21.1531 8.49449 21.8791 8.91302 22.1946C9.3275 22.5021 9.74502 22.809 10.211 23.0367C9.86366 23.1023 9.5865 22.8297 9.33306 22.6363C9.2124 22.5273 9.04579 22.5111 8.89383 22.4793C8.80851 22.3021 8.66917 22.1638 8.55103 22.0103C8.4435 21.8048 8.51973 21.561 8.45814 21.3444C8.41674 21.248 8.29608 21.2778 8.21429 21.2687Z" fill="#55764A"/>
<path d="M8.91159 20.8391C9.17765 20.6896 9.49319 20.8153 9.76834 20.8734C10.2126 20.9658 10.6387 21.1243 11.0764 21.2414C11.6075 21.456 12.174 21.5565 12.7384 21.6387C13.5684 21.8023 14.3868 22.0234 15.2223 22.1603C15.9124 22.2365 16.5985 22.343 17.2877 22.4299C17.4735 22.4455 17.6603 22.4405 17.8465 22.4405C18.3691 22.4319 18.8845 22.5424 19.4066 22.5394C19.8948 22.5823 20.3845 22.653 20.8757 22.6121C21.3291 22.5692 21.7905 22.6131 22.2368 22.5081C22.5488 22.449 22.8764 22.3945 23.1349 22.1941C23.4267 21.9846 23.6201 21.6761 23.8291 21.3909C23.9321 21.3772 24.0346 21.3636 24.1376 21.35C23.8367 21.8775 23.4464 22.4304 22.8416 22.6257C22.4483 22.7434 22.0429 22.8428 21.6299 22.8322C21.1741 22.8216 20.7207 22.915 20.2648 22.8671C19.5267 22.7979 18.7851 22.7701 18.0475 22.7C17.7102 22.6767 17.3684 22.7161 17.0347 22.6505C16.7046 22.5848 16.3653 22.5899 16.0351 22.5248C15.559 22.4369 15.0678 22.4394 14.6008 22.3057C14.1313 22.1911 13.6542 22.1098 13.1862 21.9896C12.5592 21.8437 11.9109 21.7952 11.2955 21.5973C10.8381 21.4358 10.3696 21.3096 9.90818 21.1617C9.62395 21.0728 9.3281 21.0152 9.02973 21.0238C8.84192 21.2752 8.7667 21.6372 8.9742 21.9018C9.11455 22.0659 9.31195 22.1613 9.48107 22.291C9.79812 22.5434 10.1621 22.7292 10.5322 22.8908C10.9234 23.0579 11.2627 23.3209 11.6479 23.5007C12.0442 23.7243 12.485 23.8546 12.8783 24.0843C13.167 24.2393 13.471 24.3645 13.7668 24.5053C14.1682 24.6921 14.6205 24.6689 15.0446 24.7643C15.2864 24.8168 15.5394 24.787 15.7776 24.8597C15.9766 24.9127 16.1684 25.0016 16.3774 25.0087C16.8288 25.0243 17.2816 24.9955 17.7325 25.0278C18.2388 25.0839 18.7492 25.0597 19.2571 25.0657C19.5954 25.0723 19.9301 25.0127 20.2683 25.0132C20.5728 25.0167 20.8727 24.942 21.1776 24.9597C21.6138 24.9663 22.0621 25.0839 22.4902 24.9506C22.7734 24.8774 23.0309 24.7285 23.2566 24.5447C23.504 24.3604 23.6302 24.0676 23.8463 23.853C23.8589 23.8702 23.8846 23.905 23.8973 23.9227C23.9735 23.8495 24.0512 23.7778 24.1275 23.7041L24.1174 23.8122C23.9937 24.0121 23.816 24.1696 23.6862 24.3645C23.6403 24.4205 23.6368 24.4927 23.6342 24.5619C23.5691 24.6073 23.5075 24.6563 23.4434 24.7027C23.1223 24.9935 22.7225 25.1995 22.2918 25.2636C21.8521 25.2873 21.4124 25.2409 20.9736 25.2227C20.1512 25.2974 19.3258 25.3373 18.4993 25.3247C18.0101 25.3409 17.526 25.2429 17.0368 25.2641C16.6697 25.2495 16.285 25.3197 15.9352 25.1758C15.608 25.0526 15.2551 25.0571 14.9148 24.9981C14.4908 24.9244 14.05 24.9082 13.6502 24.7345C13.373 24.6118 13.1039 24.4725 12.8293 24.3463C12.2492 24.0429 11.6338 23.8101 11.0678 23.48C10.8008 23.2982 10.5105 23.1558 10.2111 23.0367C9.74511 22.809 9.3276 22.502 8.91311 22.1946C8.49458 21.8791 8.49256 21.1531 8.91159 20.8391Z" fill="#090400"/>
<path d="M9.0297 21.0238C9.32807 21.0152 9.62392 21.0728 9.90815 21.1617C9.94753 21.1864 9.98691 21.2121 10.0258 21.2389C9.77437 21.2162 9.52749 21.1632 9.27809 21.1258C9.21145 21.1203 9.12512 21.0975 9.08069 21.1657C8.905 21.3717 8.98982 21.6564 8.97417 21.9018C8.76667 21.6372 8.84189 21.2752 9.0297 21.0238Z" fill="#663D2F"/>
<path d="M9.73901 21.5807C9.78496 21.5777 9.87785 21.5706 9.92379 21.5671C10.1444 21.7064 10.3443 21.8765 10.5725 22.0038C10.8709 22.134 11.2011 22.1643 11.5055 22.2789C11.7337 22.3673 11.9614 22.4597 12.1972 22.5283C12.5183 22.6157 12.807 22.8055 13.1428 22.8418C13.4391 22.8787 13.7289 22.9509 14.0222 23.0024C14.3181 23.0584 14.6169 22.9857 14.9148 23.0105C15.2667 23.0423 15.6261 23.0317 15.97 23.1266C16.5667 23.2836 17.1735 23.4254 17.7925 23.4527C18.2297 23.4815 18.6649 23.5663 19.1051 23.5426C20.0128 23.5007 20.9241 23.6168 21.8298 23.5113C22.2367 23.4749 22.7113 23.5744 23.041 23.2684C23.3378 22.9519 23.7316 22.7434 24.0032 22.4006C23.9856 22.5026 23.9719 22.6056 23.9578 22.708C24.0335 22.8004 24.1219 22.8863 24.1719 22.9968C24.2435 23.2301 24.1759 23.4739 24.1274 23.7041C24.0512 23.7778 23.9734 23.8495 23.8972 23.9227C23.8846 23.9051 23.8588 23.8702 23.8462 23.8531C23.977 23.7016 24.0931 23.5239 24.1163 23.3209C24.1355 23.1518 24.0467 22.9988 23.9745 22.8534C23.6867 23.0231 23.4459 23.2583 23.198 23.4795C22.994 23.6678 22.7093 23.739 22.4387 23.7531C21.849 23.7753 21.2609 23.8283 20.6712 23.8445C20.1012 23.7733 19.5267 23.8021 18.9537 23.8031C18.4796 23.8117 18.0121 23.7157 17.5391 23.6955C16.9337 23.6693 16.3562 23.4694 15.767 23.3477C15.1546 23.2154 14.5235 23.3416 13.9076 23.2457C13.7355 23.2235 13.5663 23.1861 13.3982 23.1458C13.1226 23.0776 12.8318 23.0675 12.5702 22.9473C12.2688 22.8131 11.9427 22.7489 11.6428 22.6121C11.197 22.4087 10.6806 22.3976 10.2625 22.128C10.0545 21.9851 9.81828 21.8357 9.73901 21.5807Z" fill="#160000"/>
<path d="M21.1149 26.1714C21.3557 26.0351 21.6389 25.9613 21.9131 26.026C22.1529 26.1396 22.32 26.3582 22.5356 26.5081C22.7425 26.6459 22.8107 26.9014 22.9894 27.067C23.1384 27.2518 23.3736 27.3149 23.572 27.429C24.1016 27.6991 24.5792 28.0641 25.0038 28.4786C25.2436 28.7264 25.4294 29.0193 25.6541 29.2798C25.7924 29.4479 25.9565 29.5953 26.0756 29.7786C26.2634 30.0492 26.3523 30.3708 26.5204 30.653C26.5476 30.6611 26.6027 30.6767 26.6304 30.6848C26.7193 30.9751 26.9111 31.2179 27.0066 31.5057C27.1429 31.7929 27.2403 32.0969 27.311 32.4063C27.2842 32.6764 27.0288 32.8193 26.8243 32.9511C26.4977 33.1333 26.1816 33.3474 25.8186 33.4504C25.5369 33.5423 25.2381 33.566 24.9604 33.671C24.7367 33.7594 24.4929 33.7533 24.2581 33.7841C23.8179 33.8316 23.3802 33.7402 22.9399 33.7457C22.6047 33.7245 22.266 33.773 21.9343 33.7089C21.3754 33.6271 20.7756 33.6488 20.2718 33.3585C19.6705 33.0303 19.1596 32.5578 18.5391 32.2604C18.4028 32.008 18.2518 31.744 18.2655 31.4466C18.2271 30.9877 18.3866 30.4546 18.0661 30.0648C17.8702 29.8614 17.804 29.5685 17.591 29.3797C17.3406 29.144 17.074 28.8981 16.965 28.5614C16.9433 28.4392 16.9614 28.315 16.966 28.1923C17.1598 28.054 17.3345 27.8364 17.592 27.8374C17.7404 27.8227 17.8767 27.8899 18.009 27.9474C18.1009 28.0777 18.2448 28.1923 18.2387 28.368C18.2503 28.5775 18.3538 28.7789 18.5194 28.9082C18.741 29.0647 19.0132 29.1187 19.2792 29.1374C19.3307 29.2984 19.3847 29.46 19.4034 29.6291C19.4332 29.8407 19.411 30.0689 19.5261 30.2587C19.771 30.6499 20.14 30.9387 20.503 31.2149C20.7256 31.3739 20.8791 31.6152 21.124 31.746C21.3915 31.9227 21.7263 31.9303 22.0357 31.9131C22.0635 32.1792 22.2185 32.4392 22.4931 32.5048C22.8844 32.5755 23.2959 32.63 23.6846 32.5149C23.7366 32.7072 23.832 32.9127 24.041 32.9718C24.3732 33.0394 24.7796 33.046 25.0295 32.7779C25.1628 32.6078 25.34 32.4785 25.4678 32.3044C25.6753 32.0191 25.9055 31.7495 26.1635 31.5087C26.1498 31.4678 26.1226 31.3865 26.1089 31.3456C25.853 31.3431 25.7368 31.6006 25.5778 31.7571C25.384 31.9545 25.2653 32.2135 25.0578 32.3983C24.9291 32.5103 24.8362 32.6764 24.6645 32.7284C24.4464 32.8133 24.2011 32.7749 23.9946 32.6754C23.9547 32.5346 23.885 32.3988 23.883 32.2503C23.9673 32.055 24.1647 31.9484 24.3031 31.796C24.5575 31.5602 24.7544 31.2714 25.0114 31.0377C25.1063 30.967 25.1457 30.8181 25.0709 30.7231C24.9079 30.6893 24.8407 30.8781 24.7342 30.965C24.4308 31.2492 24.1854 31.59 23.8653 31.8576C23.6886 31.9908 23.6467 32.2852 23.3973 32.315C23.0798 32.3291 22.7607 32.2806 22.4482 32.2276C22.2952 32.0711 22.2427 31.8141 22.3523 31.6193C22.422 31.4719 22.4729 31.3128 22.5759 31.1836C22.7961 30.8998 22.9495 30.5545 23.253 30.3445C23.3731 30.2385 23.5503 30.185 23.6235 30.035C23.6695 29.9275 23.5256 29.8588 23.4438 29.9108C23.1833 30.0663 22.9354 30.2516 22.7415 30.4859C22.637 30.6353 22.5487 30.7958 22.4316 30.9357C22.2559 31.1386 22.1771 31.3986 22.0681 31.639C21.7323 31.7167 21.3618 31.6435 21.1013 31.4123C20.8498 31.1901 20.5843 30.9296 20.5444 30.5788C20.7625 30.235 20.9538 29.8396 21.3188 29.6276C21.7202 29.458 22.0908 29.2268 22.4634 29.0031C22.7627 28.7608 23.0561 28.5094 23.3726 28.2877C23.4751 28.2287 23.4786 28.1211 23.4413 28.0201C23.3524 28.0353 23.2499 28.0267 23.1818 28.0969C22.9697 28.2756 22.7395 28.4331 22.5386 28.6255C22.4674 28.6936 22.3861 28.7572 22.2831 28.7653C22.3982 28.6159 22.4401 28.4245 22.5638 28.2822C22.6037 28.2377 22.6234 28.1807 22.6476 28.1272C22.2513 27.7985 21.6955 27.6678 21.1962 27.7904C21.0957 27.8026 20.9922 27.8 20.8958 27.8323C20.7524 27.9414 20.6555 28.0994 20.5131 28.2095C20.344 28.3493 20.1339 28.422 19.9254 28.4791C19.9123 28.2867 19.9477 28.0812 19.879 27.899C19.7296 27.7384 19.5513 27.5946 19.5014 27.3684L19.4968 27.3573C19.9906 26.9059 20.4823 26.4223 21.1149 26.1714Z" fill="#517E3C"/>
<path d="M19.3637 27.6046C19.2279 27.5158 19.4465 27.4345 19.5015 27.3684C19.5515 27.5945 19.7297 27.7384 19.8791 27.899C19.9478 28.0812 19.9124 28.2867 19.9256 28.4791C20.1341 28.422 20.3441 28.3493 20.5132 28.2095C20.6556 28.0994 20.7525 27.9414 20.8959 27.8323C20.9923 27.8 21.0958 27.8025 21.1963 27.7904C20.8914 28.0004 20.6273 28.262 20.3143 28.4604C20.0796 28.6462 19.8246 28.8426 19.5131 28.8592C19.2359 28.8698 18.9396 28.8643 18.6887 28.731C18.4408 28.5679 18.4463 28.1999 18.618 27.9833C18.7472 27.8758 18.9058 27.8121 19.0517 27.7309C19.2501 27.8399 19.4848 27.9454 19.5873 28.1595C19.5808 28.4139 19.1905 28.4644 19.2359 28.7446C19.4722 28.7976 19.6368 28.5886 19.7635 28.4235C19.8473 28.3326 19.8615 28.2024 19.8357 28.0863C19.7514 27.8667 19.5596 27.7203 19.3637 27.6046Z" fill="#557A45"/>
<path d="M20.766 28.4604C21.0119 28.2655 21.2421 27.9858 21.5839 27.9863C21.6182 27.9979 21.6869 28.0222 21.7207 28.0338C21.4562 28.4402 21.0896 28.7592 20.7489 29.098C20.4131 29.4211 20.0855 29.7573 19.7008 30.0239C19.6483 29.7296 19.6498 29.4272 19.5675 29.1384C20.039 29.0586 20.3803 28.7098 20.766 28.4604Z" fill="#567944"/>
</g>
</g>
<defs>
<clipPath id="clip0_410_652">
<rect width="32" height="32" fill="white" transform="translate(0 -0.000488281)"/>
</clipPath>
</defs>
</svg>
