<svg width="32" height="32" viewBox="0 0 32 32" fill="none" xmlns="http://www.w3.org/2000/svg">
<g clip-path="url(#clip0_1_11392)">
<path d="M16 32C24.8366 32 32 24.8366 32 16C32 7.16344 24.8366 0 16 0C7.16345 0 0 7.16344 0 16C0 24.8366 7.16345 32 16 32Z" fill="white"/>
<path d="M26.2524 14.0543H22.5493V23.3175H26.2524V14.0543Z" fill="black"/>
<path d="M22.5493 12.9207L25.853 11.4848C26.1013 11.3769 26.2524 11.1393 26.2524 10.8694V9.25L23.1323 10.6103C22.7868 10.7615 22.5709 11.0962 22.5709 11.4632L22.5493 12.9207Z" fill="#00B3ED"/>
<path d="M7.15388 14.0004C7.70449 11.2258 10.4035 9.42279 13.1782 9.9734C15.6181 10.4592 17.3563 12.6185 17.3023 15.1016C17.3023 15.4147 17.2699 15.7278 17.2052 16.0409L18.9218 19.7764C21.556 16.0085 20.6384 10.8263 16.8705 8.19202C13.1026 5.55774 7.92041 6.47542 5.28613 10.2433C2.65185 14.0112 3.56953 19.1934 7.33742 21.8277C9.14039 23.08 11.3536 23.5766 13.5237 23.2096L12.1849 20.2406C9.35631 20.2514 7.05672 17.9734 7.04592 15.1448C7.02433 14.7669 7.06751 14.3783 7.15388 14.0004Z" fill="black"/>
<path d="M18.965 23.3175H15.1215L12.6924 17.9302H16.5358L18.965 23.3175Z" fill="#00B3ED"/>
</g>
<defs>
<clipPath id="clip0_1_11392">
<rect width="32" height="32" fill="white"/>
</clipPath>
</defs>
</svg>
