<svg width="32" height="32" viewBox="0 0 32 32" fill="none" xmlns="http://www.w3.org/2000/svg">
<g clip-path="url(#clip0_1_11345)">
<path d="M16 32C24.8366 32 32 24.8366 32 16C32 7.16344 24.8366 0 16 0C7.16344 0 0 7.16344 0 16C0 24.8366 7.16344 32 16 32Z" fill="white"/>
<path d="M9.43494 4.16584L16.0407 11.9056L20.4724 9.29761C20.4724 9.29761 15.1209 2.14673 13.6994 2.6515C12.3616 3.1563 9.43494 4.16584 9.43494 4.16584Z" fill="black"/>
<path d="M20.6396 9.29769C21.3284 7.99929 21.8349 6.61214 22.1447 5.17542C22.1447 5.17542 27.1617 7.19451 25.2385 12.2422L20.6396 9.29769Z" fill="black"/>
<path d="M25.2385 12.2423L25.6566 17.5424L27.5798 17.29C27.5798 17.29 28.0815 17.1218 27.9979 16.1964C27.9143 15.1869 27.747 13.0836 27.747 13.0836C27.747 13.0836 27.8306 12.5788 26.66 12.4106C25.2385 12.1582 25.2385 12.2423 25.2385 12.2423Z" fill="black"/>
<path d="M25.6567 17.5424L21.8103 20.6551L23.5663 24.1043C23.5663 24.1043 23.9844 25.4503 25.2387 23.936C26.4093 22.4217 26.911 22.1694 26.8273 21.244C26.7437 20.3186 26.4929 18.1312 25.6567 17.5424Z" fill="black"/>
<path d="M21.7267 20.6549L16.4588 18.2993L11.8599 27.6375C11.8599 27.6375 11.5254 28.3105 12.6961 28.3947C13.8667 28.5629 15.7899 28.9836 16.7933 27.974C17.7967 27.0486 21.7267 20.6549 21.7267 20.6549Z" fill="black"/>
<path d="M16.4589 18.2153L15.9572 11.9899L4.58526 12.747C4.58526 12.747 3.91633 12.8312 3.99997 14.093C4.08359 15.7756 4.25082 17.6264 4.25082 17.6264C4.25082 17.6264 4.16721 18.3836 5.67231 18.4677C7.17738 18.5518 16.2916 18.5518 16.4589 18.2153Z" fill="black"/>
</g>
<defs>
<clipPath id="clip0_1_11345">
<rect width="32" height="32" fill="white"/>
</clipPath>
</defs>
</svg>
