<svg width="32" height="32" viewBox="0 0 32 32" fill="none" xmlns="http://www.w3.org/2000/svg">
<circle cx="16" cy="16" r="15" fill="#F00500"/>
<path d="M11.1762 5.7785C10.128 4.49387 8.52191 3.02908 7.63648 2.2485C6.73187 1.45101 5.613 0.924316 4.70542 0.924316C4.21443 1.31116 3.70121 2.52919 3.90198 4.77784C4.16274 7.69832 4.76854 10.0548 5.33141 11.5289C3.90873 14.4249 3.18792 17.7521 3.25419 19.21C3.34346 21.1739 4.68645 22.9205 7.68798 25.2506C9.94951 27.0063 13.4311 28.3753 15.9902 28.3753C18.5493 28.3753 22.0308 27.0063 24.2924 25.2506C27.2939 22.9205 28.6369 21.1739 28.7262 19.21C28.7928 17.7437 28.0633 14.3866 26.6244 11.4791C27.1818 10.0019 27.777 7.66563 28.0349 4.77784C28.2356 2.52919 27.7224 1.31116 27.2314 0.924316C26.3239 0.924316 25.205 1.45101 24.3004 2.2485C23.4178 3.02659 21.819 4.48454 20.7707 5.76621C19.06 5.14093 17.372 5.07541 15.9902 5.07541C14.5994 5.07541 12.8983 5.14178 11.1762 5.7785Z" fill="#FFA409"/>
<path d="M9.95742 6.28036C9.56562 5.83897 8.53504 4.76871 7.54711 4.01884C6.55917 3.26896 5.59802 2.87319 5.24094 2.76904C5.0376 3.11621 4.66961 4.13489 4.82434 5.43229C4.97908 6.72969 5.65258 9.18663 5.96999 10.2529C6.30227 9.71729 7.12753 8.48536 7.77028 7.84261C8.41303 7.19985 9.49619 6.5333 9.95742 6.28036Z" fill="#FF9300"/>
<path d="M21.9793 6.28036C22.3711 5.83897 23.4017 4.76871 24.3896 4.01884C25.3775 3.26896 26.3387 2.87319 26.6957 2.76904C26.8991 3.11621 27.2671 4.13489 27.1123 5.43229C26.9576 6.72969 26.2841 9.18663 25.9667 10.2529C25.6344 9.71729 24.8092 8.48536 24.1664 7.84261C23.5237 7.19985 22.4405 6.5333 21.9793 6.28036Z" fill="#FF9300"/>
<path d="M4.88855 3.81066L4.88495 3.81068C4.79577 4.25971 4.75089 4.81439 4.82459 5.4323C4.97932 6.72971 5.65282 9.18664 5.97023 10.2529C6.30252 9.7173 7.12778 8.48537 7.77053 7.84262C8.02158 7.59157 8.33981 7.33689 8.66193 7.10464C8.24081 6.18544 7.48405 5.09803 6.72903 4.52494C5.78376 3.80744 5.25802 3.80933 4.88855 3.81066Z" fill="#FF8300"/>
<path d="M27.0485 3.81066L27.0521 3.81068C27.1413 4.25971 27.1861 4.81439 27.1124 5.4323C26.9577 6.72971 26.2842 9.18664 25.9668 10.2529C25.6345 9.7173 24.8092 8.48537 24.1665 7.84262C23.9154 7.59157 23.5972 7.33689 23.2751 7.10464C23.6962 6.18544 24.453 5.09803 25.208 4.52494C26.1533 3.80744 26.679 3.80933 27.0485 3.81066Z" fill="#FF8300"/>
<path d="M28.7303 19.0517C27.8231 18.8722 26.1731 18.6769 24.9105 18.9715C23.4822 19.3048 21.9348 20.5983 21.3397 21.2034C20.7842 19.7354 18.8937 16.8113 15.7751 16.8589C12.6566 16.9065 11.0438 19.7751 10.6272 21.2034C10.0321 20.6083 8.5561 19.3585 7.41344 19.1205C7.32366 19.1018 7.2327 19.0823 7.14062 19.0627C5.98679 18.8165 4.65648 18.5326 3.25146 19.1271C3.25215 19.1552 3.25311 19.1827 3.25433 19.2096C3.3436 21.1735 4.68659 22.9201 7.68811 25.2502C9.94964 27.0059 13.4312 28.3749 15.9903 28.3749C18.5494 28.3749 22.031 27.0059 24.2925 25.2502C27.294 22.9201 28.637 21.1735 28.7263 19.2096C28.7286 19.1592 28.7299 19.1065 28.7303 19.0517Z" fill="white"/>
<path d="M10.262 10.6768C9.05684 10.6768 8.57329 11.4058 8.54353 12.0381C8.51378 12.6705 8.75927 12.8862 8.94525 12.9234C9.13123 12.9606 10.9018 13.2433 11.4448 12.7374C11.9879 12.2316 11.5787 10.8181 10.262 10.6768Z" fill="white"/>
<path d="M21.7185 10.6768C22.9237 10.6768 23.4072 11.4058 23.437 12.0381C23.4667 12.6705 23.2212 12.8862 23.0353 12.9234C22.8493 12.9606 21.0787 13.2433 20.5357 12.7374C19.9926 12.2316 20.4018 10.8181 21.7185 10.6768Z" fill="white"/>
<path d="M8.06004 14.3967C8.06004 14.1289 8.11211 13.7644 8.29065 13.6974C8.9676 13.5263 10.6563 14.5083 11.6904 15.2076C12.7244 15.9069 13.089 16.5094 12.9699 16.7029C12.8509 16.8963 11.921 16.8665 10.6117 16.5615C9.30239 16.2565 8.14187 15.3638 8.09723 15.2522C8.05786 15.1538 8.059 14.7717 8.05982 14.4992L8.06004 14.3967Z" fill="black"/>
<path d="M23.9205 14.3967C23.9205 14.1289 23.8685 13.7644 23.6899 13.6974C23.013 13.5263 21.3242 14.5083 20.2902 15.2076C19.2561 15.9069 18.8916 16.5094 19.0106 16.7029C19.1297 16.8963 20.0596 16.8665 21.3689 16.5615C22.6782 16.2565 23.8387 15.3638 23.8833 15.2522C23.9227 15.1538 23.9216 14.7717 23.9207 14.4992L23.9205 14.3967Z" fill="black"/>
<path d="M16.8166 18.7188C17.4713 18.7188 17.4713 19.3288 17.4713 19.5668C17.4713 19.6019 17.4738 19.6478 17.4769 19.7017C17.4944 20.0142 17.5268 20.5926 17.1588 20.8464C17.0362 20.9309 16.9125 21.043 16.7831 21.1603C16.4941 21.4221 16.1771 21.7094 15.7825 21.7715V22.7136H15.9313L16.2215 23.1228H17.6944L17.7763 22.9963H18.8401V23.0781L18.5425 23.346C18.5549 23.3856 18.5723 23.5052 18.5425 23.6658C18.5127 23.8265 18.4756 23.9411 18.4607 23.9783L18.1854 23.9411C18.173 24.0031 18.1274 24.1896 18.0441 24.4395C17.9608 24.6895 17.8308 24.9454 17.7763 25.0421L17.5977 24.804L17.6349 23.465C17.3076 23.5319 16.4372 23.6658 15.5742 23.6658C14.7113 23.6658 13.8359 23.5319 13.5061 23.465V24.7669L13.335 25.0421L12.9036 23.9783H12.6581L12.3754 22.9963H13.3871L13.5061 23.1228H14.7931L15.0535 22.7136H15.2618V21.7513C14.8049 21.6655 14.4781 21.4153 14.2277 21.0696C13.9153 20.6381 13.826 20.3405 13.826 19.9537V19.2395C13.826 18.9122 14.0938 18.7188 14.6146 18.7188H16.8166Z" fill="black"/>
<path d="M16.891 23.9337H14.5551V24.1866L14.875 24.38L15.1428 24.1606C15.2544 24.2833 15.4887 24.54 15.5333 24.5846C15.5891 24.6404 15.7491 24.6292 15.79 24.5846C15.8227 24.5489 15.9946 24.2697 16.0764 24.1345H16.3182L16.4223 24.3577C16.4608 24.3465 16.5585 24.319 16.6418 24.2982C16.7251 24.2774 16.8426 24.2151 16.891 24.1866V23.9337Z" fill="black"/>
</svg>
