<svg width="32" height="32" viewBox="0 0 32 32" fill="none" xmlns="http://www.w3.org/2000/svg">
<path d="M16 32C24.8366 32 32 24.8366 32 16C32 7.16344 24.8366 0 16 0C7.16344 0 0 7.16344 0 16C0 24.8366 7.16344 32 16 32Z" fill="url(#paint0_linear_686_4150)"/>
<path d="M10.7299 12.022C10.602 11.8632 10.4079 11.775 10.2006 11.775H5.92721C5.89193 11.775 5.86106 11.7618 5.8346 11.7398C5.81255 11.7177 5.79932 11.6913 5.79932 11.6604V8.78056C5.79932 8.74969 5.81255 8.72323 5.8346 8.70118C5.86106 8.67471 5.89193 8.66148 5.92721 8.66589H10.4432C11.581 8.66589 12.5645 9.13337 13.3936 10.0639L14.4917 11.4046L12.3528 14.011L10.7299 12.022ZM18.624 10.0507C19.4487 9.12896 20.4366 8.66589 21.5876 8.66589H26.0904C26.1213 8.66148 26.1521 8.67471 26.1742 8.69235C26.1962 8.71441 26.205 8.74528 26.2006 8.78056V11.6604C26.2006 11.6913 26.1918 11.7177 26.1742 11.7398C26.1521 11.7662 26.1213 11.7795 26.0904 11.775H21.817C21.6141 11.7706 21.42 11.8632 21.2877 12.022L18.1389 15.8544L21.301 19.7133C21.4289 19.8588 21.6185 19.947 21.8125 19.9426H26.086C26.1168 19.9382 26.1521 19.9559 26.1698 19.9779C26.1874 20.0044 26.2006 20.0397 26.1962 20.0705V22.9503C26.1962 22.9812 26.1874 23.0077 26.1698 23.0297C26.1477 23.0562 26.1168 23.0694 26.086 23.065H21.5876C20.4366 23.065 19.4575 22.5975 18.6372 21.667L16.0176 18.4696L13.398 21.667C12.5733 22.5975 11.5854 23.065 10.4344 23.065H5.92721C5.89634 23.0694 5.86106 23.0518 5.84342 23.0297C5.82137 23.0033 5.81255 22.968 5.81696 22.9371V20.0573C5.81696 20.0264 5.82578 20 5.84342 19.9779C5.86547 19.9515 5.89634 19.9382 5.92721 19.9426H10.2006C10.4035 19.9426 10.5976 19.85 10.7299 19.6957L13.8214 15.9206L18.624 10.0507Z" fill="#00D1FF"/>
<defs>
<linearGradient id="paint0_linear_686_4150" x1="16.0022" y1="-9.2613e-05" x2="16.0022" y2="8.46738" gradientUnits="userSpaceOnUse">
<stop stop-color="#090220"/>
<stop offset="1" stop-color="#170659"/>
</linearGradient>
</defs>
</svg>
