<svg width="32" height="32" viewBox="0 0 32 32" fill="none" xmlns="http://www.w3.org/2000/svg">
<path d="M16 32C24.8366 32 32 24.8366 32 16C32 7.16344 24.8366 0 16 0C7.16344 0 0 7.16344 0 16C0 24.8366 7.16344 32 16 32Z" fill="black"/>
<path d="M8.89878 20.0963C9.02572 19.9693 9.20028 19.8953 9.38541 19.8953H26.1742C26.481 19.8953 26.6344 20.2655 26.4175 20.4824L23.101 23.7989C22.9741 23.9258 22.7995 23.9999 22.6144 23.9999H5.82559C5.51881 23.9999 5.36541 23.6296 5.58228 23.4128L8.89878 20.0963Z" fill="url(#paint0_linear_686_4183)"/>
<path d="M8.89853 7.7137C9.03077 7.58675 9.20532 7.5127 9.38516 7.5127H26.1739C26.4807 7.5127 26.6341 7.88296 26.4173 8.09983L23.1008 11.4163C22.9738 11.5433 22.7993 11.6173 22.6141 11.6173H5.82535C5.51856 11.6173 5.36517 11.2471 5.58203 11.0302L8.89853 7.7137Z" fill="url(#paint1_linear_686_4183)"/>
<path d="M23.101 13.8653C22.9741 13.7384 22.7995 13.6643 22.6144 13.6643H5.82559C5.51881 13.6643 5.36541 14.0346 5.58228 14.2514L8.89878 17.5679C9.02572 17.6949 9.20028 17.7689 9.38541 17.7689H26.1742C26.481 17.7689 26.6344 17.3987 26.4175 17.1818L23.101 13.8653Z" fill="url(#paint2_linear_686_4183)"/>
<defs>
<linearGradient id="paint0_linear_686_4183" x1="25" y1="10.4999" x2="8" y2="29.4999" gradientUnits="userSpaceOnUse">
<stop stop-color="#00FFA3"/>
<stop offset="1" stop-color="#DC1FFF"/>
</linearGradient>
<linearGradient id="paint1_linear_686_4183" x1="25" y1="6.49999" x2="3.5" y2="21" gradientUnits="userSpaceOnUse">
<stop stop-color="#00FFA3"/>
<stop offset="1" stop-color="#DC1FFF"/>
</linearGradient>
<linearGradient id="paint2_linear_686_4183" x1="23.5" y1="6.99994" x2="10.3948" y2="26.4522" gradientUnits="userSpaceOnUse">
<stop stop-color="#00FFA3"/>
<stop offset="1" stop-color="#DC1FFF"/>
</linearGradient>
</defs>
</svg>
