<svg width="32" height="32" viewBox="0 0 32 32" fill="none" xmlns="http://www.w3.org/2000/svg">
<g clip-path="url(#clip0_1_10957)">
<path d="M0 16C0 7.16344 7.16344 0 16 0C24.8366 0 32 7.16344 32 16C32 24.8366 24.8366 32 16 32C7.16344 32 0 24.8366 0 16Z" fill="black"/>
<path d="M0 16C0 7.16344 7.16344 0 16 0C24.8366 0 32 7.16344 32 16C32 24.8366 24.8366 32 16 32C7.16344 32 0 24.8366 0 16Z" fill="black"/>
<path d="M18.3726 4.2348L19.0649 5.85624C20.4236 9.03981 22.9598 11.5757 26.1437 12.9343L27.7654 13.6266C28.1896 13.8075 28.5342 14.067 28.8003 14.3761C27.9926 8.5865 23.4131 4.00685 17.6229 3.2C17.9314 3.4653 18.1916 3.81042 18.3726 4.2348Z" fill="#A6A6A6"/>
<path d="M4.23483 13.6266L5.85648 12.9343C9.04046 11.5757 11.5765 9.03978 12.936 5.85624L13.6276 4.2348C13.8092 3.81042 14.0688 3.4653 14.3773 3.2C8.58702 4.00685 4.00752 8.5865 3.19995 14.3761C3.4659 14.067 3.81048 13.8075 4.23486 13.6266H4.23483Z" fill="#A6A6A6"/>
<path d="M27.7654 18.3727L26.1437 19.065C22.9598 20.4237 20.4236 22.9601 19.0649 26.1438L18.3726 27.7645C18.1916 28.1888 17.9314 28.5341 17.6229 28.8C23.4131 27.9925 27.9926 23.4128 28.8003 17.6232C28.5342 17.9323 28.1896 18.1918 27.7654 18.3727Z" fill="#A6A6A6"/>
<path d="M13.6276 27.7645L12.936 26.1438C11.5765 22.9601 9.04046 20.4237 5.85648 19.065L4.23486 18.3727C3.81048 18.1918 3.46587 17.9323 3.19995 17.6232C4.00752 23.4128 8.58702 27.9925 14.3773 28.8C14.0688 28.5341 13.8092 28.1888 13.6276 27.7645H13.6276Z" fill="#A6A6A6"/>
<path d="M10.2825 14.7671L11.0571 14.4363C12.5778 13.7871 13.7894 12.5763 14.4386 11.0558L14.7689 10.2812C15.232 9.19638 16.7701 9.19638 17.2333 10.2812L17.5635 11.0558C18.2128 12.5763 19.4244 13.7871 20.945 14.4363L21.7197 14.7671C22.8046 15.2302 22.8046 16.7676 21.7197 17.2307L20.945 17.5615C19.4244 18.2106 18.2128 19.4215 17.5635 20.9426L17.2333 21.7166C16.7701 22.8013 15.232 22.8013 14.7689 21.7166L14.4386 20.9426C13.7894 19.4215 12.5778 18.2106 11.0571 17.5615L10.2825 17.2307C9.19751 16.7676 9.19751 15.2302 10.2825 14.7671Z" fill="white"/>
</g>
<defs>
<clipPath id="clip0_1_10957">
<rect width="32" height="32" fill="white"/>
</clipPath>
</defs>
</svg>
