<svg width="16px" height="16px" viewBox="0 0 16 16" fill="none" xmlns="http://www.w3.org/2000/svg"><g clip-path="url(#clip0_20038_163790)"><path d="M13.5803 2.31191C12.0894 0.821063 10.1073 0 7.99884 0C5.89044 0 3.90822 0.821063 2.41737 2.31191C0.9265 3.80278 0.105469 5.785 0.105469 7.89337V8.10659L7.99884 16L15.8922 8.10662V7.89341C15.8922 5.785 15.0712 3.80278 13.5803 2.31191ZM1.14559 7.69072C1.24728 6.71328 2.07587 5.94866 3.07978 5.94866C4.15212 5.94866 5.0245 6.82106 5.0245 7.89341V7.97694L6.82087 13.366L1.14559 7.69072ZM6.05566 7.81459C6.09712 6.77859 6.95291 5.94866 7.99884 5.94866C9.04478 5.94866 9.90056 6.77863 9.94203 7.81459L7.99884 13.6441L6.05566 7.81459ZM9.17681 13.366L10.9732 7.97691V7.89337C10.9732 6.82103 11.8456 5.94863 12.9179 5.94863C13.9218 5.94863 14.7504 6.71325 14.8521 7.69069L9.17681 13.366Z" fill="#05F283"></path></g><defs><clipPath id="clip0_20038_163790"><rect width="16" height="16" fill="white"></rect></clipPath></defs></svg>