<svg width="32" height="32" viewBox="0 0 32 32" fill="none" xmlns="http://www.w3.org/2000/svg">
<path d="M16 32C24.8365 32 32 24.8365 32 16C32 7.16345 24.8365 0 16 0C7.16345 0 0 7.16345 0 16C0 24.8365 7.16345 32 16 32Z" fill="#3375BB"/>
<path fill-rule="evenodd" clip-rule="evenodd" d="M15.3536 6.23247C15.7248 5.92251 16.2645 5.92251 16.6356 6.23247C19.3543 8.50295 22.4541 8.48539 23.6537 8.4786C23.7136 8.47826 23.7687 8.47795 23.8188 8.47795C24.0866 8.47795 24.3432 8.58539 24.5312 8.7762C24.7191 8.96701 24.8227 9.22524 24.8187 9.49304C24.7619 13.2559 24.6111 15.9416 24.3151 17.9099C24.0193 19.877 23.5658 21.2251 22.835 22.2409C22.099 23.2638 21.153 23.8445 20.1457 24.4012C19.9712 24.4977 19.7932 24.5942 19.611 24.693C18.7268 25.1727 17.744 25.7058 16.5775 26.5426C16.2291 26.7925 15.7601 26.7925 15.4117 26.5426C14.2463 25.7066 13.2648 25.1737 12.382 24.6944C12.199 24.5951 12.0202 24.498 11.8448 24.401C10.8383 23.8442 9.89364 23.2632 9.15905 22.24C8.42983 21.2242 7.97786 19.8761 7.68319 17.9094C7.38831 15.9413 7.23817 13.2558 7.18139 9.49304C7.17735 9.22524 7.2809 8.96701 7.46885 8.7762C7.6568 8.58539 7.91344 8.47795 8.18127 8.47795C8.23081 8.47795 8.28537 8.47826 8.34468 8.4786C9.53456 8.4854 12.6348 8.50312 15.3536 6.23247ZM9.19924 10.4717C9.26636 13.6789 9.41237 15.9529 9.66111 17.613C9.93537 19.4436 10.3218 20.4302 10.7837 21.0736C11.2403 21.7096 11.8395 22.1124 12.813 22.651C12.9715 22.7387 13.1388 22.8294 13.3144 22.9246C14.0631 23.3306 14.9643 23.8193 15.9946 24.5125C17.0264 23.8185 17.9289 23.3294 18.6789 22.923C18.8538 22.8283 19.0203 22.7381 19.1783 22.6508C20.1531 22.1121 20.7537 21.7091 21.2115 21.0728C21.6746 20.4292 22.0621 19.4427 22.3373 17.6125C22.5869 15.9526 22.7336 13.6788 22.8008 10.4719C21.2613 10.4222 18.5499 10.1043 15.9946 8.26497C13.4424 10.1021 10.7349 10.4215 9.19924 10.4717Z" fill="white"/>
</svg>
