<svg width="32" height="32" viewBox="0 0 32 32" fill="none" xmlns="http://www.w3.org/2000/svg">
<path d="M16 32C24.8368 32 32 24.8368 32 16C32 7.1632 24.8368 0 16 0C7.1632 0 0 7.1632 0 16C0 24.8368 7.1632 32 16 32Z" fill="#FF007A"/>
<path d="M15.9731 7.95488C15.0323 6.93095 14.1461 6.34585 13.1645 6.11978C12.7419 6.0267 12.142 5.97351 11.8829 6.0134L11.8201 6.02159C11.7915 6.02734 11.7909 6.03393 11.826 6.04308L11.9065 6.05893L12.0465 6.07989C13.0963 6.23946 13.9007 6.6384 14.7051 7.39637C14.7358 7.42518 14.7665 7.45446 14.7973 7.48436L14.9846 7.67251C15.0164 7.70555 15.0486 7.73953 15.0813 7.77462L15.2846 7.99976L15.506 8.25925C15.5448 8.30579 15.5845 8.35409 15.6254 8.4043L15.8855 8.72987L16.1828 9.11225L16.4736 9.47785C16.6129 9.64968 16.7437 9.80548 16.8681 9.94723L17.1093 10.2126C17.6944 10.8321 18.1588 11.1334 18.7822 11.3634L19.0407 11.4522C19.6951 11.665 20.3632 11.7581 21.5357 11.8245L21.9607 11.8494L22.3265 11.8783L22.6406 11.9131C23.174 11.9832 23.4853 12.0921 23.7853 12.29C24.0443 12.4628 24.2352 12.6623 24.4397 12.9682L24.5624 13.141L24.5106 12.7775C24.3746 12.0483 23.8583 11.0922 23.2126 10.3884L23.0899 10.2554L22.9867 10.6729C22.8128 11.3046 22.4955 11.7448 22.1901 11.7448C22.0401 11.7448 21.8765 11.6517 21.822 11.5187C21.7538 11.3458 21.7538 11.2926 21.8629 11.0932L21.9194 10.9822C22.0742 10.6394 22.0988 10.2062 22.0129 9.6437C22.009 9.61901 22.0048 9.59431 22.0004 9.57004L21.9724 9.43295L21.9435 9.32657C21.9341 9.2985 21.9252 9.27896 21.9174 9.27136C21.9004 9.25142 21.8527 9.21651 21.7851 9.17288L21.6269 9.07582L21.4351 8.96658L21.2291 8.85622L21.0283 8.75584L20.9358 8.71286C19.6406 8.12775 18.0863 7.94158 16.573 8.18094L16.2185 8.23413L15.9731 7.95488Z" fill="white"/>
<path d="M7.77119 6.05227L7.70425 6C7.70425 6 7.70371 6.00203 7.70592 6.00594L7.73736 6.05071L8.18613 6.6118L8.69842 7.21652L9.81062 8.51036L10.3391 9.11184L10.8293 9.65735L11.1871 10.0438L11.7428 10.6191L11.8148 10.7034L11.8736 10.787C12.0175 11.0284 11.9227 11.255 11.6103 11.4256C11.4194 11.532 11.024 11.6384 10.8331 11.6384C10.615 11.6384 10.3559 11.532 10.1787 11.3591L10.1126 11.2806L9.93909 11.0493L9.40107 10.2961L8.83407 9.48662L7.98641 8.32636C7.98237 8.32439 7.98187 8.32868 7.98492 8.33921L8.0047 8.38957L8.07425 8.53545L8.24141 8.86125L9.16014 10.5863L9.48647 11.2197L9.57621 11.4059L9.617 11.505L9.61972 11.5187C9.61972 11.6916 9.56518 11.7846 9.34704 12.024L9.27123 12.1105C8.95576 12.49 8.80656 12.9425 8.69262 13.8192L8.66596 14.0022C8.51963 14.9029 8.17077 15.602 7.30709 16.6718L6.76641 17.3338L6.63652 17.4988L6.49291 17.6934L6.39063 17.852L6.33423 17.9531L6.21403 18.1942C6.07535 18.4909 6.03061 18.7062 6.00676 19.125C5.97949 19.6304 6.03402 19.9495 6.18399 20.4282C6.32033 20.8538 6.47031 21.133 6.83842 21.6782L6.92085 21.8057L7.06622 22.041L7.18357 22.2468C7.28608 22.4366 7.34287 22.5764 7.34287 22.649L7.34355 22.6716C7.3472 22.7201 7.36849 22.7377 7.47552 22.7245L7.58985 22.7056L7.86095 22.649C9.03346 22.383 10.0015 21.9309 10.5332 21.3724C10.8604 21.0266 10.9422 20.8405 10.9422 20.3617L10.9388 20.1716C10.9311 20.0152 10.9081 19.9429 10.8468 19.8032C10.7104 19.5107 10.4514 19.2713 9.89239 18.899L9.74103 18.7949C9.11255 18.3493 8.83675 17.97 8.76079 17.4761C8.70625 17.1144 8.7477 16.8463 8.97587 16.3246L9.10594 16.041L9.28272 15.6742C9.62398 14.9526 9.72084 14.5838 9.78332 13.7793L9.79521 13.635C9.83741 13.1801 9.90727 12.979 10.056 12.8219C10.2332 12.6357 10.3832 12.5692 10.8059 12.516L11.0072 12.4856C11.5902 12.3868 11.9865 12.2168 12.3056 11.9176C12.6192 11.6384 12.7555 11.3591 12.7691 10.9469L12.7828 10.641L12.6055 10.4549L12.5551 10.4L12.34 10.1815L12.0415 9.89333L11.4015 9.29522L10.0096 8.02973L8.5462 6.72624L7.77119 6.05227Z" fill="white"/>
<path d="M20.6767 15.8272C20.6931 15.8272 20.7291 15.8415 20.7729 15.8645L21.0837 16.0495L21.8076 16.4446L22.2446 16.6782C23.349 17.2633 23.9761 17.7155 24.4124 18.2341C24.7942 18.6862 25.0259 19.2048 25.135 19.8431C25.2032 20.2022 25.1623 21.0665 25.0668 21.4256C24.7669 22.5559 24.0852 23.4601 23.0899 23.9787L22.9521 24.0487L22.8506 24.095L22.8036 24.1117C22.7997 24.1117 22.8014 24.1009 22.8077 24.0816L22.8638 23.9469L22.9263 23.8192C23.2535 23.141 23.2944 22.4894 23.049 21.758C22.9848 21.5642 22.8904 21.3534 22.7543 21.1034L22.6037 20.8396L22.4226 20.5449L22.2083 20.2144L21.9583 19.8431L21.3776 19.0078L21.1897 18.7244L21.0484 18.4976L20.9374 18.3025L20.8404 18.1144C20.4859 17.3564 20.4041 16.6383 20.5949 15.9602L20.6277 15.8846C20.644 15.8511 20.6604 15.8272 20.6767 15.8272Z" fill="white"/>
<path d="M15.8367 20.6543C16.5593 20.8405 17.2138 21.2394 17.5546 21.7314C17.8818 22.2101 18.0318 22.6224 18.1818 23.5399L18.2566 23.9997L18.3181 24.3511C18.4272 24.8298 18.6453 25.2021 18.918 25.4016C19.3104 25.6856 19.9733 25.7174 20.6445 25.5075L20.9614 25.4016C21.004 25.3883 21.0312 25.3817 21.0312 25.3883C21.0411 25.398 20.9988 25.4358 20.929 25.4857L20.807 25.5678C20.7843 25.5823 20.7607 25.5971 20.7365 25.6119L20.5879 25.6988C20.5383 25.7265 20.4896 25.7522 20.445 25.7739C20.1041 25.9468 19.8315 26 19.4633 26C18.8089 26 18.2499 25.6676 17.8 25.0027C17.7682 24.9583 17.7258 24.8859 17.6773 24.7958L17.5736 24.595L17.4619 24.3652L17.1904 23.775C16.8108 22.9722 16.5617 22.6865 16.0685 22.3697C15.5777 22.0639 14.9505 21.9974 14.4734 22.2234C13.8462 22.516 13.6826 23.3005 14.1189 23.7793C14.2961 23.9787 14.6233 24.1383 14.896 24.1782C15.4005 24.2447 15.8367 23.8591 15.8367 23.367C15.8367 23.0479 15.714 22.8617 15.3868 22.7154C14.9505 22.5293 14.4734 22.742 14.487 23.1543C14.487 23.3024 14.5471 23.4018 14.6759 23.4774L14.8283 23.5555C14.8342 23.5598 14.8321 23.5611 14.8228 23.5604L14.7733 23.5532C14.3779 23.4734 14.2825 22.9947 14.5961 22.6888C14.9778 22.3165 15.7822 22.4761 16.0549 22.9947C16.164 23.2075 16.1776 23.633 16.0822 23.8989C15.8504 24.4841 15.196 24.7899 14.5279 24.617C14.1472 24.5158 13.952 24.4145 13.5705 24.0554L13.3418 23.8325C12.4351 22.9229 12.0575 22.7094 10.8531 22.5193L10.3968 22.4495L10.6832 22.1835C11.6921 21.3591 12.9327 20.774 14.078 20.5878C14.5688 20.508 15.3868 20.5346 15.8367 20.6543Z" fill="white"/>
<path d="M19.3952 15.2155L19.4857 15.4794C19.5258 15.6041 19.577 15.8072 19.5997 15.9735L19.6216 16.1223C19.7633 17.3044 19.0958 18.2639 17.8 18.6596L17.7577 18.674C17.7409 18.6791 17.7215 18.6845 17.6997 18.6903L17.543 18.7276L17.3416 18.7693L16.9813 18.8354L16.5866 18.899L16.1857 18.9703L15.8392 19.037L15.5389 19.1015L15.2767 19.1663L15.0445 19.2339C14.8612 19.292 14.7006 19.3555 14.5415 19.4309L14.3668 19.516L14.1113 19.6507L13.9671 19.7335L13.8609 19.8011C13.8198 19.8298 13.7985 19.8498 13.8053 19.8564C13.8135 19.8644 13.8462 19.858 13.8887 19.8459L14.1518 19.7611C14.7228 19.5849 15.3707 19.4925 16.3003 19.4442L16.4382 19.4349L17.3365 19.3644C18.2499 19.2447 18.8907 18.9788 19.3815 18.4867C19.6542 18.2075 19.8178 17.9548 19.9542 17.5958L19.9992 17.46C20.0233 17.3761 20.0363 17.2993 20.043 17.1909L20.049 17L20.0483 16.633C20.0442 16.4177 20.0269 16.3255 19.9542 16.133C19.8315 15.8006 19.6951 15.5612 19.5179 15.3618L19.3952 15.2155Z" fill="white"/>
<path d="M17.8682 11.5852L17.8816 11.5915L18.1 11.7581C18.3478 11.9515 18.6098 12.0954 18.9819 12.2174L19.2191 12.2882C19.3451 12.3225 19.4828 12.3553 19.6346 12.3874L19.9581 12.4507L20.3241 12.5134L20.7373 12.5768L21.2033 12.6449L21.636 12.713L22.0136 12.7789C22.426 12.8556 22.7468 12.9338 23.049 13.0346C24.6987 13.5666 25.7213 14.657 25.9667 16.133C26.0348 16.5586 25.9939 17.3697 25.8849 17.7953C25.8702 17.8464 25.8513 17.9042 25.8296 17.9653L25.7576 18.1559L25.677 18.3477L25.5963 18.5217C25.5313 18.6539 25.4748 18.7476 25.4486 18.7527C25.435 18.7527 25.4077 18.6862 25.4077 18.5798C25.3804 18.0213 25.0941 17.4894 24.6169 17.0772C24.5649 17.0337 24.5115 16.9911 24.456 16.9492L24.283 16.8251C24.2529 16.8046 24.2221 16.7842 24.1906 16.7639L23.9917 16.6416C23.9568 16.6211 23.9209 16.6006 23.8841 16.58L23.6502 16.4548C23.6089 16.4337 23.5665 16.4123 23.5228 16.3907L23.2448 16.2579L22.9323 16.1174L22.39 15.8876L21.7473 15.6286C21.6698 15.598 21.5902 15.5667 21.5084 15.5346C18.8089 14.4708 17.8545 13.5533 17.8545 11.9974L17.8567 11.8376L17.8682 11.5852Z" fill="white"/>
<path d="M14.0643 12.782C13.8598 12.6756 13.4372 12.6357 13.219 12.7022C12.8918 12.7953 12.5783 13.141 12.4828 13.4868C12.4283 13.6995 12.4556 14.0852 12.551 14.2048C12.701 14.391 12.8373 14.4442 13.219 14.4442C13.9689 14.4442 14.6097 14.1251 14.6779 13.7394C14.746 13.4203 14.4597 12.9815 14.0643 12.782Z" fill="white"/>
<path d="M22.5718 6.39904C22.5787 6.39904 22.5753 6.42231 22.565 6.45888L22.5365 6.54679C22.5306 6.56341 22.5241 6.58077 22.5173 6.5985C22.4082 6.89106 22.3946 7.30329 22.4628 7.76871L22.4996 7.983C22.5615 8.30266 22.6387 8.45644 22.9292 8.76743L23.4586 9.31086L23.8453 9.72595L24.0443 9.94955L24.2761 10.2421L23.9656 9.95826L23.7742 9.79559L23.4478 9.53566L23.2394 9.37922L23.0666 9.25825C23.0421 9.24209 23.0201 9.22819 23.0011 9.21695L22.9536 9.19158C22.8741 9.14725 22.8513 9.13986 22.8065 9.17711L22.7764 9.20487C22.7545 9.22615 22.7393 9.25168 22.7288 9.29934L22.7165 9.38966L22.71 9.52657L22.7082 9.72349C22.6946 10.3219 22.6128 10.6942 22.4082 11.0799L22.3583 11.1652L22.3278 11.2051C22.3174 11.2139 22.3146 11.2064 22.3195 11.1836L22.3397 11.1179L22.3969 10.9718L22.4225 10.892C22.4261 10.8785 22.4295 10.8645 22.4325 10.8499L22.4474 10.7507L22.4567 10.6184L22.4615 10.4365L22.4628 10.1889C22.4628 9.08709 22.3391 8.78133 21.6089 8.35266L21.3565 8.2102L21.0295 8.04318C20.9742 8.01605 20.9201 7.98999 20.8696 7.96605L20.4603 7.78035L20.3661 7.73243C20.3625 7.73006 20.3615 7.72882 20.3632 7.72882C20.369 7.72312 20.4105 7.72902 20.4753 7.74312L20.632 7.78125L20.8284 7.8352L21.0424 7.89892L21.2517 7.96636C21.285 7.97757 21.3171 7.98869 21.3477 7.99958L21.7158 8.14062L21.9256 8.21452L22.0129 8.23962L22.0702 8.25013L22.1075 8.25012C22.1127 8.24946 22.1174 8.24854 22.1219 8.24743C22.1492 8.22084 22.1704 8.16469 22.1856 8.03171L22.1987 7.87137C22.2005 7.8398 22.2022 7.80565 22.2037 7.76871C22.2276 7.32656 22.2828 7.01676 22.3967 6.74133L22.4762 6.5668L22.5258 6.46719C22.548 6.42563 22.565 6.39904 22.5718 6.39904Z" fill="white"/>
<path d="M11.7739 6.6118L11.7466 6.89106C11.6648 7.78201 12.0329 8.97881 12.6055 9.75008C13.0554 10.3485 13.7508 10.8139 14.2689 10.8671C14.6097 10.8937 14.7051 10.7873 14.5552 10.5745C14.337 10.282 14.078 9.81657 14.0098 9.61711C14.0047 9.60215 13.9987 9.58324 13.9921 9.56098L13.9451 9.392L13.8603 9.0505L13.7642 8.62017C13.5436 7.66431 13.296 7.25792 12.7828 6.95755C12.5783 6.83787 12.1556 6.67829 11.9102 6.6384L11.7739 6.6118Z" fill="white"/>
</svg>
