<svg width="32" height="32" viewBox="0 0 32 32" fill="none" xmlns="http://www.w3.org/2000/svg">
<g clip-path="url(#clip0_513_49)">
<path d="M16 32C24.8366 32 32 24.8366 32 16C32 7.16344 24.8366 0 16 0C7.16344 0 0 7.16344 0 16C0 24.8366 7.16344 32 16 32Z" fill="#0052FF"/>
<circle cx="16" cy="16" r="11" fill="white"/>
<path d="M16.9798 4.5V10.3265H14.9231V4.5H16.9798ZM16.9798 20.8786L16.9717 23.5H14.915L14.9231 20.8786H16.9798ZM17.668 18.2918C17.668 17.9922 17.6113 17.7372 17.498 17.5269C17.39 17.3166 17.2119 17.1299 16.9636 16.9669C16.7206 16.8039 16.3914 16.6462 15.9757 16.4937C15.274 16.2309 14.6559 15.9522 14.1215 15.6578C13.5924 15.3581 13.1795 14.9874 12.8826 14.5458C12.5857 14.0989 12.4372 13.5337 12.4372 12.8502C12.4372 12.1983 12.5965 11.6331 12.915 11.1546C13.2335 10.6762 13.6734 10.3081 14.2348 10.0505C14.8016 9.78764 15.4602 9.6562 16.2105 9.6562C16.7827 9.6562 17.3009 9.74032 17.7652 9.90857C18.2294 10.0716 18.6289 10.3134 18.9636 10.6341C19.2982 10.9496 19.5547 11.336 19.7328 11.7934C19.9109 12.2508 20 12.774 20 13.3628H17.6761C17.6761 13.0474 17.641 12.7687 17.5709 12.5269C17.5007 12.285 17.3981 12.0826 17.2632 11.9196C17.1336 11.7566 16.9771 11.6357 16.7935 11.5568C16.61 11.4727 16.4076 11.4306 16.1862 11.4306C15.857 11.4306 15.587 11.4937 15.3765 11.6199C15.166 11.7461 15.0121 11.917 14.915 12.1325C14.8232 12.3428 14.7773 12.5847 14.7773 12.8581C14.7773 13.1262 14.8259 13.3602 14.9231 13.56C15.0256 13.7598 15.2011 13.9438 15.4494 14.112C15.6977 14.275 16.0378 14.4433 16.4696 14.6168C17.1714 14.8797 17.7868 15.1636 18.3158 15.4685C18.8448 15.7734 19.2578 16.1467 19.5547 16.5884C19.8516 17.03 20 17.5926 20 18.2761C20 18.9543 19.8381 19.5326 19.5142 20.0111C19.1903 20.4843 18.7368 20.8471 18.1538 21.0994C17.5709 21.3465 16.8961 21.4701 16.1296 21.4701C15.6329 21.4701 15.139 21.407 14.6478 21.2808C14.1565 21.1494 13.7112 20.9391 13.3117 20.6499C12.9123 20.3607 12.5938 19.9769 12.3563 19.4985C12.1188 19.0148 12 18.4207 12 17.7161H14.332C14.332 18.0999 14.3833 18.4207 14.4858 18.6783C14.5884 18.9306 14.7233 19.1331 14.8907 19.2855C15.0634 19.4328 15.2578 19.5379 15.4737 19.601C15.6896 19.6641 15.9082 19.6956 16.1296 19.6956C16.475 19.6956 16.7584 19.6352 16.9798 19.5142C17.2065 19.3933 17.3765 19.2277 17.4899 19.0174C17.6086 18.8018 17.668 18.56 17.668 18.2918Z" fill="#0052FF"/>
</g>
<defs>
<clipPath id="clip0_513_49">
<rect width="32" height="32" fill="white"/>
</clipPath>
</defs>
</svg>
