<svg width="32" height="32" viewBox="0 0 32 32" fill="none" xmlns="http://www.w3.org/2000/svg">
<circle cx="16" cy="16" r="16" fill="#2775CA"/>
<path fill-rule="evenodd" clip-rule="evenodd" d="M13.0667 27.0665C13.0667 27.4665 12.8 27.5999 12.4 27.5999C7.46667 25.9999 4 21.4665 4 16.1332C4 10.7999 7.46667 6.26652 12.4 4.66652C12.8 4.53319 13.0667 4.79985 13.0667 5.19985V6.13319C13.0667 6.39985 12.9333 6.66652 12.6667 6.79985C8.8 8.26652 6.13333 11.8665 6.13333 16.1332C6.13333 20.3999 8.93333 24.1332 12.6667 25.4665C12.9333 25.5999 13.0667 25.8665 13.0667 26.1332V27.0665ZM17.0667 23.7332C17.0667 23.9999 16.8 24.2665 16.5333 24.2665H15.4667C15.2 24.2665 14.9333 23.9999 14.9333 23.7332V22.1332C12.8 21.8665 11.7333 20.6665 11.3333 18.9332C11.3333 18.6665 11.4667 18.3999 11.7333 18.3999H12.9333C13.2 18.3999 13.3333 18.5332 13.4667 18.7999C13.7333 19.7332 14.2667 20.5332 16 20.5332C17.3333 20.5332 18.2667 19.8665 18.2667 18.7999C18.2667 17.7332 17.7333 17.3332 15.8667 17.0665C13.0667 16.6665 11.7333 15.8665 11.7333 13.5999C11.7333 11.8665 13.0667 10.5332 14.9333 10.2665V8.66652C14.9333 8.39985 15.2 8.13319 15.4667 8.13319H16.5333C16.8 8.13319 17.0667 8.39985 17.0667 8.66652V10.2665C18.6667 10.5332 19.7333 11.4665 20 12.9332C20 13.1999 19.8667 13.4665 19.6 13.4665H18.5333C18.2667 13.4665 18.1333 13.3332 18 13.0665C17.7333 12.1332 17.0667 11.7332 15.8667 11.7332C14.5333 11.7332 13.8667 12.3999 13.8667 13.3332C13.8667 14.2665 14.2667 14.7999 16.2667 15.0665C19.0667 15.4665 20.4 16.2665 20.4 18.5332C20.4 20.2665 19.0667 21.7332 17.0667 22.1332V23.7332ZM18.9333 27.0665C18.9333 27.4665 19.2 27.7332 19.6 27.5999C24.5333 25.9999 28 21.4665 28 16.1332C28 10.7999 24.4 6.26652 19.6 4.66652C19.2 4.66652 18.9333 4.79985 18.9333 5.19985V6.13319C18.9333 6.39985 19.0667 6.66652 19.3333 6.79985C23.0667 8.13319 25.8667 11.8665 25.8667 16.1332C25.8667 20.3999 23.2 23.9999 19.3333 25.4665C19.0667 25.5999 18.9333 25.8665 18.9333 26.1332V27.0665Z" fill="white"/>
</svg>
