<svg width="32" height="32" viewBox="0 0 32 32" fill="none" xmlns="http://www.w3.org/2000/svg">
<circle cx="16" cy="16" r="16" fill="#26A17B"/>
<path fill-rule="evenodd" clip-rule="evenodd" d="M17.7395 11.5232V13.8699L17.742 13.8724C22.135 14.0731 25.4374 14.9391 25.4374 15.9728C25.4374 17.009 22.135 17.8724 17.742 18.0731V25.5956H13.8278V18.0731C9.42971 17.8699 6.11963 17.0064 6.11963 15.9702C6.11963 14.934 9.42715 14.0705 13.8278 13.8699V11.5232H8.41339V7.94482H23.1539V11.5232H17.7395ZM17.7395 17.428V17.4305V17.4331C21.6179 17.2604 24.5132 16.5899 24.5132 15.7874C24.5132 14.9848 21.6204 14.3143 17.7395 14.1416V16.7626C17.6268 16.7728 17.0227 16.8236 15.8143 16.8236C14.8083 16.8236 14.0787 16.7804 13.8252 16.7626V14.1391C9.93915 14.3093 7.03611 14.9823 7.03611 15.7848C7.03611 16.5899 9.93659 17.2604 13.8252 17.4305V17.428C14.0761 17.4407 14.7852 17.4686 15.7964 17.4686C17.0611 17.4686 17.6294 17.4356 17.7395 17.428Z" fill="white"/>
</svg>
