<svg width="32" height="32" viewBox="0 0 32 32" fill="none" xmlns="http://www.w3.org/2000/svg">
<path d="M16 32C24.8366 32 32 24.8366 32 16C32 7.16344 24.8366 0 16 0C7.16344 0 0 7.16344 0 16C0 24.8366 7.16344 32 16 32Z" fill="#60BBF9"/>
<path d="M14.7369 24.2791L7.03818 9.51388C7.01011 9.45949 6.99716 9.39929 7.00052 9.3389C7.00389 9.27852 7.02347 9.21992 7.05743 9.16859C7.0914 9.11726 7.13864 9.07487 7.19474 9.04539C7.25083 9.01591 7.31396 9.00029 7.37821 9H10.0465C10.1895 9 10.3235 9.07529 10.3865 9.19388L16.009 19.9054C16.509 20.8654 17.9602 20.8654 18.4612 19.9054L24.0657 9.20235C24.098 9.14378 24.1469 9.0947 24.2068 9.06051C24.2668 9.02631 24.3356 9.0083 24.4058 9.00847H24.7378C24.9348 9.00847 25.0598 9.20235 24.9708 9.36235L17.1901 24.28C16.6891 25.24 15.2389 25.24 14.7369 24.28V24.2791Z" fill="white"/>
</svg>
