<svg width="32" height="32" viewBox="0 0 32 32" fill="none" xmlns="http://www.w3.org/2000/svg">
<circle cx="16" cy="16" r="16" fill="#F3F3F3"/>
<path d="M8.88892 24.2107V16.0024L12.4445 18.0545V22.1586L8.88892 24.2107Z" fill="#2BBDF7"/>
<path d="M16 16.0024L19.5556 13.9503V18.0545L16 20.1065V16.0024Z" fill="#2BBDF7"/>
<path d="M26.6667 9.84619L23.1111 11.8983V24.2107L26.6667 22.1586V9.84619Z" fill="#2BBDF7"/>
<path d="M16 16.0024L5.33337 9.84619V22.1586L8.88893 24.2107V16.0024L16 20.1065V16.0024Z" fill="#2891F9"/>
<path d="M19.5555 22.1586V9.84619L23.1111 11.8983V24.2107L19.5555 22.1586Z" fill="#2891F9"/>
<path d="M5.33337 9.84625L8.88893 7.79419L19.5556 13.9504L16 16.0025L5.33337 9.84625Z" fill="#2B6DEF"/>
<path d="M23.1112 7.79419L26.6667 9.84625L23.1112 11.8983L19.5556 9.84625L23.1112 7.79419Z" fill="#2B6DEF"/>
</svg>
