<svg width="32" height="32" viewBox="0 0 32 32" fill="none" xmlns="http://www.w3.org/2000/svg">
<path opacity="0.8" fill-rule="evenodd" clip-rule="evenodd" d="M32 16C32 24.8366 24.8366 32 16 32C13.0619 32 10.3086 31.2078 7.94256 29.8259C7.82956 29.76 7.71725 29.6927 7.60625 29.6235C7.22094 29.3858 6.84606 29.1318 6.483 28.8627C6.37787 28.785 6.274 28.7059 6.17081 28.6256C2.415 25.6979 0 21.1311 0 16C0 7.16344 7.16344 0 16 0C24.8366 0 32 7.16344 32 16Z" fill="#E0E0E0"/>
<path d="M27 7.84886V9.75468L5 21V19.0951L5.79954 18.6861C6.40804 18.3751 6.77069 17.7277 6.71916 17.0446C6.70116 16.8086 6.69216 16.5718 6.69216 16.334C6.69355 12.8241 8.65675 9.61151 11.774 8.01795C14.8913 6.42439 18.636 6.71907 21.4674 8.78076L19.725 9.66597C17.3664 8.34512 14.487 8.37544 12.1566 9.74567C9.82613 11.1159 8.39277 13.6213 8.38898 16.3312C8.38912 16.665 8.41088 16.9984 8.45414 17.3294L27 7.84886Z" fill="black"/>
<path d="M9.63266 19.8702L26.9963 11L27 12.9017L26.1997 13.3104C25.5918 13.6222 25.2298 14.2691 25.2811 14.9518C25.2991 15.1888 25.3081 15.4277 25.3081 15.6684C25.3083 19.1778 23.3446 22.3905 20.2259 23.9834C17.1072 25.5763 13.3608 25.2799 10.5298 23.2164L12.1733 22.3766L12.2663 22.3271C14.6248 23.6522 17.507 23.6253 19.8404 22.2562C22.1739 20.8872 23.6092 18.3811 23.6125 15.6703C23.6124 15.3345 23.5907 14.9991 23.5474 14.6662L10.7448 21.2074L8.09619 22.552L5 24.1383V22.2338L8.1176 20.6475L9.63266 19.8702Z" fill="black"/>
</svg>
